<svg xmlns="http://www.w3.org/2000/svg" width="20" height="20" viewBox="0 0 20 20">
  <g id="correct_icon_mobile" transform="translate(-27.5 -27.5)">
    <g id="Path_47" data-name="Path 47" transform="translate(27.5 27.5)" fill="#00bfdf">
      <path d="M 10 19 C 5.037380218505859 19 1 14.96261978149414 1 10 C 1 5.037380218505859 5.037380218505859 1 10 1 C 14.96261978149414 1 19 5.037380218505859 19 10 C 19 14.96261978149414 14.96261978149414 19 10 19 Z" stroke="none"/>
      <path d="M 10 2 C 5.588789939880371 2 2 5.588789939880371 2 10 C 2 14.41121006011963 5.588789939880371 18 10 18 C 14.41121006011963 18 18 14.41121006011963 18 10 C 18 5.588789939880371 14.41121006011963 2 10 2 M 10 0 C 15.52285003662109 0 20 4.477149963378906 20 10 C 20 15.52285003662109 15.52285003662109 20 10 20 C 4.477149963378906 20 0 15.52285003662109 0 10 C 0 4.477149963378906 4.477149963378906 0 10 0 Z" stroke="none" fill="#00bfdf"/>
    </g>
    <g id="radio-correct-sm" transform="translate(-3.5 -3.5)">
      <path id="Path_48" data-name="Path 48" d="M38.179,38.318l2.939,2.939,6.324-7.325" transform="translate(-1.17 3.905)" fill="none" stroke="#fff" stroke-linejoin="round" stroke-width="2"/>
      <path id="Path_80" data-name="Path 80" d="M0,0H11V11H0Z" transform="translate(36 36)" fill="none" opacity="0.274"/>
    </g>
  </g>
</svg>
