<svg id="correct_icon" xmlns="http://www.w3.org/2000/svg" width="25" height="25" viewBox="0 0 25 25">
  <g id="Path_47" data-name="Path 47" fill="#00bfdf">
    <path d="M 12.5 24 C 9.428239822387695 24 6.540329933166504 22.80378913879395 4.368269920349121 20.63172912597656 C 2.196209907531738 18.45966911315918 1 15.5717601776123 1 12.5 C 1 9.428239822387695 2.196209907531738 6.540329933166504 4.368269920349121 4.368269920349121 C 6.540329933166504 2.196209907531738 9.428239822387695 1 12.5 1 C 15.5717601776123 1 18.45966911315918 2.196209907531738 20.63172912597656 4.368269920349121 C 22.80378913879395 6.540329933166504 24 9.428239822387695 24 12.5 C 24 15.5717601776123 22.80378913879395 18.45966911315918 20.63172912597656 20.63172912597656 C 18.45966911315918 22.80378913879395 15.5717601776123 24 12.5 24 Z" stroke="none"/>
    <path d="M 12.5 2 C 6.71027946472168 2 2 6.71027946472168 2 12.5 C 2 18.28972053527832 6.71027946472168 23 12.5 23 C 18.28972053527832 23 23 18.28972053527832 23 12.5 C 23 6.71027946472168 18.28972053527832 2 12.5 2 M 12.5 0 C 19.40356063842773 0 25 5.596439361572266 25 12.5 C 25 19.40356063842773 19.40356063842773 25 12.5 25 C 5.596439361572266 25 0 19.40356063842773 0 12.5 C 0 5.596439361572266 5.596439361572266 0 12.5 0 Z" stroke="none" fill="#00bfdf"/>
  </g>
  <g id="radio-correct" transform="translate(-30 -30)">
    <path id="Path_48" data-name="Path 48" d="M38.179,39.293l3.592,3.592L49.5,33.933" transform="translate(-1.501 3.754)" fill="none" stroke="#fff" stroke-linejoin="round" stroke-width="2"/>
    <path id="Path_80" data-name="Path 80" d="M0,0H13V13H0Z" transform="translate(36 36)" fill="none" opacity="0.274"/>
  </g>
</svg>
