<svg xmlns="http://www.w3.org/2000/svg" xmlns:xlink="http://www.w3.org/1999/xlink" width="342" height="248" viewBox="0 0 342 248"><defs><clipPath id="a"><path d="M263.312,237.574H79.438A71.69,71.69,0,0,1,8.2,157.881l3.893-34.659A71.691,71.691,0,0,1,83.331,59.535H259.419a71.691,71.691,0,0,1,71.242,63.687l3.893,34.659A71.69,71.69,0,0,1,263.312,237.574Z" fill="#c6e3dc"/></clipPath><linearGradient id="b" x1="172.929" y1="9.263" x2="172.929" y2="95.955" gradientUnits="userSpaceOnUse"><stop offset="0" stop-color="#ffd359"/><stop offset="1" stop-color="#ffcf08"/></linearGradient><clipPath id="c"><path d="M175.963,11.15l11.409,23.116a3.384,3.384,0,0,0,2.548,1.851l25.51,3.707a3.384,3.384,0,0,1,1.875,5.772L198.846,63.589a3.38,3.38,0,0,0-.973,3l4.357,25.407a3.384,3.384,0,0,1-4.91,3.567l-22.817-12a3.385,3.385,0,0,0-3.149,0l-22.817,12a3.384,3.384,0,0,1-4.91-3.567l4.358-25.407a3.385,3.385,0,0,0-.973-3L128.552,45.6a3.384,3.384,0,0,1,1.876-5.772l25.51-3.707a3.386,3.386,0,0,0,2.548-1.851L169.894,11.15A3.383,3.383,0,0,1,175.963,11.15Z" fill="none"/></clipPath><linearGradient id="d" x1="261.357" y1="232.831" x2="261.357" y2="300.311" gradientTransform="translate(48.909 -242.794) rotate(10)" xlink:href="#b"/><clipPath id="e"><path d="M267.936,33.74,273.557,53a2.633,2.633,0,0,0,1.7,1.764l19.054,6.289a2.634,2.634,0,0,1,.657,4.678l-16.582,11.3a2.635,2.635,0,0,0-1.151,2.165l-.094,20.065a2.634,2.634,0,0,1-4.246,2.071L257.029,89.053a2.633,2.633,0,0,0-2.414-.426L235.5,94.738a2.634,2.634,0,0,1-3.282-3.4L239,72.453a2.635,2.635,0,0,0-.342-2.428L226.936,53.737a2.634,2.634,0,0,1,2.218-4.171l20.056.606a2.632,2.632,0,0,0,2.2-1.074L263.283,32.92A2.635,2.635,0,0,1,267.936,33.74Z" fill="none"/></clipPath><linearGradient id="f" x1="122.628" y1="-116.033" x2="122.628" y2="-48.553" gradientTransform="translate(-20.876 167.99) rotate(-10)" xlink:href="#b"/><clipPath id="g"><path d="M82.321,33.461l11.87,16.178a2.633,2.633,0,0,0,2.2,1.075l20.056-.607a2.634,2.634,0,0,1,2.218,4.171L106.95,70.566a2.635,2.635,0,0,0-.341,2.428l6.774,18.887a2.634,2.634,0,0,1-3.281,3.4L90.99,89.168a2.635,2.635,0,0,0-2.415.426L72.706,101.873A2.634,2.634,0,0,1,68.46,99.8l-.094-20.065a2.631,2.631,0,0,0-1.151-2.164l-16.582-11.3a2.635,2.635,0,0,1,.658-4.679l19.054-6.289a2.635,2.635,0,0,0,1.7-1.764l5.62-19.262A2.635,2.635,0,0,1,82.321,33.461Z" fill="none"/></clipPath></defs><path d="M263.312,243.574H79.438A71.69,71.69,0,0,1,8.2,163.881l3.893-34.659A71.691,71.691,0,0,1,83.331,65.535H259.419a71.691,71.691,0,0,1,71.242,63.687l3.893,34.659A71.69,71.69,0,0,1,263.312,243.574Z" fill="#043331" opacity="0.3"/><path d="M263.312,237.574H79.438A71.69,71.69,0,0,1,8.2,157.881l3.893-34.659A71.691,71.691,0,0,1,83.331,59.535H259.419a71.691,71.691,0,0,1,71.242,63.687l3.893,34.659A71.69,71.69,0,0,1,263.312,237.574Z" fill="none" stroke="#fff" stroke-miterlimit="10" stroke-width="6"/><path d="M263.312,237.574H79.438A71.69,71.69,0,0,1,8.2,157.881l3.893-34.659A71.691,71.691,0,0,1,83.331,59.535H259.419a71.691,71.691,0,0,1,71.242,63.687l3.893,34.659A71.69,71.69,0,0,1,263.312,237.574Z" fill="#c6e3dc"/><g clip-path="url(#a)"><g opacity="0.28"><polygon points="298.805 -12.856 175.789 159.375 217.357 -42.521 298.805 -12.856" fill="#88c2b8"/><polygon points="117.115 -32.699 175.789 159.375 23.609 -7.979 117.115 -32.699" fill="#88c2b8"/><polygon points="-41.315 79.104 175.789 159.375 -66.366 190.676 -41.315 79.104" fill="#88c2b8"/><polygon points="-26.529 328.615 175.789 159.375 102.324 368.079 -26.529 328.615" fill="#88c2b8"/><polygon points="240.59 389.868 175.789 159.375 375.024 353.98 240.59 389.868" fill="#88c2b8"/><polygon points="383.18 58.427 175.789 159.375 432.959 197.306 383.18 58.427" fill="#88c2b8"/></g></g><path d="M198.9,102.392a4.716,4.716,0,0,1-2.215-.554L173.864,89.843a2.008,2.008,0,0,0-1.87,0l-22.817,11.995a4.71,4.71,0,0,1-2.215.554,4.765,4.765,0,0,1-4.69-5.571l4.357-25.407a2.009,2.009,0,0,0-.577-1.778L127.593,51.644a4.76,4.76,0,0,1,2.637-8.119l25.51-3.706a2.013,2.013,0,0,0,1.513-1.1L168.661,15.6a4.759,4.759,0,0,1,8.535,0L188.605,38.72a2.013,2.013,0,0,0,1.513,1.1l25.509,3.706a4.76,4.76,0,0,1,2.638,8.118L199.806,69.636a2.007,2.007,0,0,0-.578,1.778l4.358,25.407a4.765,4.765,0,0,1-4.691,5.571Z" fill="#2f4c54" opacity="0.3"/><path d="M274.933,108.179a4.026,4.026,0,0,0,4.021-4l.094-20.065a1.258,1.258,0,0,1,.55-1.035l16.582-11.3a4.009,4.009,0,0,0-1-7.12l-19.054-6.29a1.258,1.258,0,0,1-.814-.843l-5.62-19.262a4.009,4.009,0,0,0-7.081-1.249L250.74,53.2a1.263,1.263,0,0,1-1.015.515L229.5,53.106a4.009,4.009,0,0,0-3.248,6.351l11.718,16.287a1.26,1.26,0,0,1,.163,1.161l-6.775,18.887a3.955,3.955,0,0,0,.489,3.653,4.014,4.014,0,0,0,3.271,1.714,4.063,4.063,0,0,0,1.235-.194l19.112-6.112a1.277,1.277,0,0,1,.383-.06,1.264,1.264,0,0,1,.771.264l15.869,12.279A3.966,3.966,0,0,0,274.933,108.179Z" fill="#2f4c54" opacity="0.3"/><path d="M71.106,108.867a4.026,4.026,0,0,1-4.021-4l-.094-20.065a1.257,1.257,0,0,0-.55-1.034l-16.582-11.3a4.009,4.009,0,0,1,1-7.12l19.054-6.289a1.259,1.259,0,0,0,.814-.844l5.62-19.261a4.009,4.009,0,0,1,7.081-1.249L95.3,53.888a1.266,1.266,0,0,0,1.015.515l20.222-.609a4.009,4.009,0,0,1,3.248,6.35L108.066,76.432a1.26,1.26,0,0,0-.163,1.161l6.775,18.886a3.957,3.957,0,0,1-.489,3.654,4.014,4.014,0,0,1-3.271,1.714,4.064,4.064,0,0,1-1.235-.195L90.571,95.541a1.246,1.246,0,0,0-.383-.06,1.263,1.263,0,0,0-.771.263l-15.869,12.28A3.966,3.966,0,0,1,71.106,108.867Z" fill="#2f4c54" opacity="0.3"/><path d="M175.963,11.15l11.409,23.116a3.384,3.384,0,0,0,2.548,1.851l25.51,3.707a3.384,3.384,0,0,1,1.875,5.772L198.846,63.589a3.38,3.38,0,0,0-.973,3l4.357,25.407a3.384,3.384,0,0,1-4.91,3.567l-22.817-12a3.385,3.385,0,0,0-3.149,0l-22.817,12a3.384,3.384,0,0,1-4.91-3.567l4.358-25.407a3.385,3.385,0,0,0-.973-3L128.552,45.6a3.384,3.384,0,0,1,1.876-5.772l25.51-3.707a3.386,3.386,0,0,0,2.548-1.851L169.894,11.15A3.383,3.383,0,0,1,175.963,11.15Z" fill="none" stroke="#b57000" stroke-miterlimit="10" stroke-width="5"/><path d="M175.963,11.15l11.409,23.116a3.384,3.384,0,0,0,2.548,1.851l25.51,3.707a3.384,3.384,0,0,1,1.875,5.772L198.846,63.589a3.38,3.38,0,0,0-.973,3l4.357,25.407a3.384,3.384,0,0,1-4.91,3.567l-22.817-12a3.385,3.385,0,0,0-3.149,0l-22.817,12a3.384,3.384,0,0,1-4.91-3.567l4.358-25.407a3.385,3.385,0,0,0-.973-3L128.552,45.6a3.384,3.384,0,0,1,1.876-5.772l25.51-3.707a3.386,3.386,0,0,0,2.548-1.851L169.894,11.15A3.383,3.383,0,0,1,175.963,11.15Z" fill="url(#b)"/><g clip-path="url(#c)"><path d="M173.22,9.217c-4.166,2.143-8.431,28.345-13.152,30.509-2.867,1.314-6.042,1.648-12.147,2.618-11.2,1.78-14.436,1.468-14.661,2.932-.353,2.292,12.231,14.35,14.033,19.643-6.842,5.319-37.146-26.958-37.146-26.958L165.479,1.488S175.92,7.829,173.22,9.217Z" fill="#fedd59"/><path d="M147.782,64.748c2.789,3.12-1.849,21.053,1.482,23.251,2.876,1.9,19.916-14.516,23.373-14.5,4.921.024,14.962,7.759,17.205,5.8s-1.5-13.877.836-18.224c.873-1.621,6.526-6.144,11.419-9.8,4.077-3.049,7.625-5.349,7.468-6.287-.141-.849-3.576-1.071-9.167-1.833-7.563-1.031-13.209-1.658-14.9-3.094-2.872-2.443-7.086-19.225-9.282-25.554-1.948-5.616-3.782-6.188-3.782-6.188L184.126-5.44l34.2,38.952L231.7,41.021l-22.6,71.053s-68.161-6.61-68.367-7.229S144.459,61.03,147.782,64.748Z" fill="#f5bc2c" opacity="0.51"/><path d="M147.012,63.589a205.6,205.6,0,0,1-19.125-14.646l-1.137-.974-.289-.25c-.163-.16-.324-.326-.48-.5a6.2,6.2,0,0,1-.815-1.155,6.487,6.487,0,0,1-.275-5.569,6.781,6.781,0,0,1,1.665-2.382,6.623,6.623,0,0,1,2.588-1.436c.234-.062.471-.118.708-.167l.413-.078L131,36.3l1.471-.268c3.926-.7,7.864-1.325,11.807-1.913l5.923-.816,2.968-.366,1.484-.182.743-.09c.074,0,.011.016.026.024a.072.072,0,0,0,.01.057l.018.019c.015-.015-.014.047.035-.037l.178-.329,1.444-2.621c.964-1.747,1.956-3.48,2.959-5.207,2.013-3.452,4.084-6.875,6.258-10.248l1.65-2.519.854-1.268a4.447,4.447,0,0,1,1.422-1.383,4.15,4.15,0,0,1,3.569-.339,3.5,3.5,0,0,1,2.143,2.333,2.925,2.925,0,0,0-4.478-.388,2.652,2.652,0,0,0-.468.9l-.477,1.409-1,2.843c-1.355,3.776-2.812,7.5-4.327,11.2-.761,1.847-1.533,3.689-2.334,5.516l-1.2,2.741-.153.341a6.909,6.909,0,0,1-.326.617,6.8,6.8,0,0,1-3.381,2.861,7.211,7.211,0,0,1-1.421.386l-.737.125-1.474.247-2.95.5-5.91.9c-3.947.559-7.9,1.083-11.863,1.527l-1.487.161-.744.081-.326.037s-.012,0-.021-.007-.033-.108-.125-.05a.4.4,0,0,0-.15.211.161.161,0,0,0,0,.089.146.146,0,0,1,.017.063l.245.274,1,1.112A205.757,205.757,0,0,1,147.012,63.589Z" fill="#ffeb73"/><path d="M175.963,11.15c2.283,3.895,4.5,7.823,6.7,11.757l3.277,5.915,1.629,2.962.815,1.481.2.37a2.23,2.23,0,0,0,.144.218,1.95,1.95,0,0,0,.345.352,2.025,2.025,0,0,0,.866.4c.092.018.123.018.267.036l.419.046.84.092,3.359.369,6.718.738c4.48.485,8.947,1.057,13.421,1.581l.869.108a5.961,5.961,0,0,1,1.354.369,5.674,5.674,0,0,1,2.276,1.706,5.791,5.791,0,0,1,.981,5.437,5.67,5.67,0,0,1-.637,1.318,3.634,3.634,0,0,1-.432.579c-.139.162-.359.408-.429.47l-1.191,1.2-2.382,2.395-9.531,9.576-4.8,4.757-.15.148a1.223,1.223,0,0,0-.1.1.334.334,0,0,0-.044.054.621.621,0,0,0-.065.122.548.548,0,0,0-.033.271l.553,3.136,2.351,13.3,1.111,6.663.277,1.665.069.417c.022.135.046.249.077.549a6.721,6.721,0,0,1,.007,1.547,6.28,6.28,0,0,1-6.551,5.443,6.432,6.432,0,0,1-1.535-.292,5.433,5.433,0,0,1-.71-.281l-.33-.155-.186-.1-2.981-1.587c-1.985-1.062-3.982-2.1-5.954-3.191L175,86.715l-1.483-.808-.236-.13-.1-.044a.876.876,0,0,0-.211-.049.9.9,0,0,0-.435.063l-1.435.717-6.058,2.992c-4.043,1.985-8.067,4.009-12.127,5.963l-3.044,1.466a6.916,6.916,0,0,1-2.127.738,4.932,4.932,0,0,1-2.511-.3,5.049,5.049,0,0,1-3.09-3.652,5.3,5.3,0,0,1-.095-1.228l.072-.6c.029-.2.058-.293.086-.446l.35-1.653,2.9-13.209,1.5-6.595c.338-2.158,1.74-4.511.051-6.349a3.476,3.476,0,0,1,1.18,3.134l-.36,3.365-.779,6.719-1.668,13.42-.221,1.675c-.015.126-.048.31-.047.388s0,.161-.01.241a2.143,2.143,0,0,0,.078.446,1.811,1.811,0,0,0,1.206,1.194,1.489,1.489,0,0,0,.812.021,3.811,3.811,0,0,0,1-.486l2.934-1.677c3.912-2.237,7.86-4.4,11.788-6.609l5.9-3.294.738-.41.819-.439a5.887,5.887,0,0,1,4.288-.362,6.491,6.491,0,0,1,.691.254l.517.252,1.507.763,12.053,6.1c2.014,1.007,4,2.062,6,3.095l3,1.556.187.1a.251.251,0,0,0,.056.018c.027,0,.049.038.073.03a1.1,1.1,0,0,0,.119.022.535.535,0,0,0,.239-.065.544.544,0,0,0,.3-.395c-.012-.041,0-.081-.014-.137a1.606,1.606,0,0,0-.042-.286l-.073-.416-.294-1.663-1.172-6.652-2.217-13.325-.277-1.666-.139-.833-.069-.416-.037-.226-.05-.384a6.222,6.222,0,0,1,1.236-4.371,6,6,0,0,1,.506-.585l.354-.347L202,56.667l9.817-9.283,2.454-2.32,1.227-1.16a1.967,1.967,0,0,0,.144-.15.245.245,0,0,0,.079-.09.736.736,0,0,0,.12-.184,1.023,1.023,0,0,0-.457-1.283,1.287,1.287,0,0,0-.264-.1l-.8-.141c-4.438-.771-8.883-1.494-13.316-2.3l-6.65-1.2-3.325-.6-.831-.15-.416-.076c-.135-.024-.382-.07-.562-.123a4.765,4.765,0,0,1-2.813-2.132,5.364,5.364,0,0,1-.271-.516l-.17-.387-.68-1.547-1.36-3.1-2.7-6.2C179.437,19.478,177.666,15.331,175.963,11.15Z" fill="#de9a15"/></g><g opacity="0.68"><path d="M173.01,12.836c1.2,1,.8,1.379.78,1.9a7.489,7.489,0,0,1-.379,1.456,7.6,7.6,0,0,1-.718,1.324,2.714,2.714,0,0,1-.485.613,2.273,2.273,0,0,1-1.36.273.641.641,0,0,1-.411-.159,2.268,2.268,0,0,1-.82-1.12,2.728,2.728,0,0,1,.056-.779,7.645,7.645,0,0,1,.363-1.462,7.428,7.428,0,0,1,.7-1.33c.34-.4.3-.952,1.861-.881A.684.684,0,0,1,173.01,12.836Z" fill="#fff"/></g><g opacity="0.68"><path d="M150.329,81.374c1.411.575,1.124.893,1.24,1.271a3.9,3.9,0,0,1,.01,1.084,4.01,4.01,0,0,1-.349,1.029,1.572,1.572,0,0,1-.308.5,2.454,2.454,0,0,1-1.237.353.884.884,0,0,1-.435-.067,2.444,2.444,0,0,1-1.076-.7,1.569,1.569,0,0,1-.147-.563A3.975,3.975,0,0,1,148,83.184a3.919,3.919,0,0,1,.332-1.032c.223-.326.044-.715,1.562-.844A.945.945,0,0,1,150.329,81.374Z" fill="#fff"/></g><g opacity="0.68"><path d="M132.987,43.681c.323-1.521.818-1.335,1.273-1.553a6.8,6.8,0,0,1,1.4-.315,6.906,6.906,0,0,1,1.434.047,2.486,2.486,0,0,1,.731.157,2.279,2.279,0,0,1,.825,1.092.668.668,0,0,1,.044.438,2.277,2.277,0,0,1-.59,1.235,2.507,2.507,0,0,1-.684.3,6.993,6.993,0,0,1-1.4.332,6.747,6.747,0,0,1-1.433-.029c-.489-.123-.937.159-1.558-1.267A.723.723,0,0,1,132.987,43.681Z" fill="#fff"/></g><path d="M267.936,33.74,273.557,53a2.633,2.633,0,0,0,1.7,1.764l19.054,6.289a2.634,2.634,0,0,1,.657,4.678l-16.582,11.3a2.635,2.635,0,0,0-1.151,2.165l-.094,20.065a2.634,2.634,0,0,1-4.246,2.071L257.029,89.053a2.633,2.633,0,0,0-2.414-.426L235.5,94.738a2.634,2.634,0,0,1-3.282-3.4L239,72.453a2.635,2.635,0,0,0-.342-2.428L226.936,53.737a2.634,2.634,0,0,1,2.218-4.171l20.056.606a2.632,2.632,0,0,0,2.2-1.074L263.283,32.92A2.635,2.635,0,0,1,267.936,33.74Z" fill="none" stroke="#b57000" stroke-miterlimit="10" stroke-width="5"/><path d="M267.936,33.74,273.557,53a2.633,2.633,0,0,0,1.7,1.764l19.054,6.289a2.634,2.634,0,0,1,.657,4.678l-16.582,11.3a2.635,2.635,0,0,0-1.151,2.165l-.094,20.065a2.634,2.634,0,0,1-4.246,2.071L257.029,89.053a2.633,2.633,0,0,0-2.414-.426L235.5,94.738a2.634,2.634,0,0,1-3.282-3.4L239,72.453a2.635,2.635,0,0,0-.342-2.428L226.936,53.737a2.634,2.634,0,0,1,2.218-4.171l20.056.606a2.632,2.632,0,0,0,2.2-1.074L263.283,32.92A2.635,2.635,0,0,1,267.936,33.74Z" fill="url(#d)"/><g clip-path="url(#e)"><path d="M266.094,31.888c-3.483,1.08-10.294,20.589-14.206,21.609-2.375.62-4.854.447-9.665.365-8.83-.149-11.264-.825-11.635.266-.58,1.71,7.437,12.654,8.1,16.955C232.727,74.235,213.859,45.4,213.859,45.4l47.346-20.48S268.351,31.189,266.094,31.888Z" fill="#fedd59"/><path d="M239.088,71.017c1.716,2.769-4.263,15.889-2.007,18.024,1.948,1.843,17.23-8.435,19.877-7.955,3.769.684,10.421,7.971,12.406,6.77s.722-10.841,3.1-13.857c.888-1.125,5.833-3.828,10.079-5.973,3.537-1.786,6.567-3.07,6.574-3.81.006-.67-2.6-1.3-6.78-2.644-5.658-1.813-9.9-3.056-11-4.386-1.871-2.26-2.833-15.695-3.661-20.843-.735-4.568-2.063-5.255-2.063-5.255l10.819-8.961,20.956,34.482,9.236,7.564L279.7,115.585s-51.357-14.279-51.432-14.782S237.044,67.719,239.088,71.017Z" fill="#f5bc2c" opacity="0.51"/><path d="M238.654,70.025a126.31,126.31,0,0,1-13.195-13.442L224.7,55.7l-.194-.228c-.118-.163-.233-.331-.343-.5a5.468,5.468,0,0,1-.536-1.128,5.733,5.733,0,0,1,.6-4.9,5.987,5.987,0,0,1,1.815-1.83,5.878,5.878,0,0,1,2.485-.865c.214-.019.43-.032.645-.038l.336-.006.583-.01,1.164-.018c3.106-.038,6.209.007,9.311.086l4.651.184,2.324.136,1.162.068.581.035c.019.007-.1.02-.143.04a.814.814,0,0,0-.3.186.684.684,0,0,0-.108.133c0,.007-.058.085-.011.034l.183-.227c.483-.607.986-1.2,1.486-1.8.99-1.2,2.007-2.376,3.034-3.547,2.059-2.337,4.171-4.636,6.375-6.868l1.67-1.66.864-.834a3.682,3.682,0,0,1,1.391-.9,3.384,3.384,0,0,1,2.933.309,2.754,2.754,0,0,1,1.28,2.19,2.156,2.156,0,0,0-3.277-.7,1.865,1.865,0,0,0-.367.594l-.518,1.038-1.083,2.092c-1.467,2.772-3.027,5.476-4.638,8.142-.809,1.331-1.628,2.655-2.473,3.959-.418.655-.833,1.313-1.267,1.957l-.161.242a6.152,6.152,0,0,1-.376.487,6.053,6.053,0,0,1-3.4,1.992,6.361,6.361,0,0,1-1.3.121h-.582l-1.164,0L245,53.653l-4.654-.1c-3.1-.108-6.2-.251-9.3-.476l-1.162-.089-.581-.045-.244-.018a.129.129,0,0,0,.063-.014.618.618,0,0,0,.436-.4.539.539,0,0,0-.087-.451A.241.241,0,0,0,229.4,52a.054.054,0,0,0-.038-.006l.146.245.6,1A126.491,126.491,0,0,1,238.654,70.025Z" fill="#ffeb73"/><path d="M267.936,33.74c1.292,3.274,2.511,6.57,3.718,9.869.617,1.646,1.192,3.3,1.781,4.957l.881,2.481.44,1.241.11.31a1.374,1.374,0,0,0,.073.152,1.213,1.213,0,0,0,.185.245,1.292,1.292,0,0,0,.5.31l1.119.314,2.533.712,5.066,1.424c3.38.943,6.732,1.969,10.1,2.949l.659.2a5.15,5.15,0,0,1,1.1.516,4.931,4.931,0,0,1,1.7,1.8,5.038,5.038,0,0,1,.027,4.807,4.917,4.917,0,0,1-.745,1.038,3.258,3.258,0,0,1-.457.432c-.14.116-.377.3-.429.332l-1.072.762-2.144,1.522L284.5,76.2c-1.423,1.023-2.87,2.013-4.311,3.01l-.136.093c-.051.035-.1.067-.073.053l.019-.014.034-.033a.191.191,0,0,0,.038-.09l.006,2.435.019,10.515-.056,5.257-.014,1.315,0,.328c0,.106,0,.191-.016.461a5.814,5.814,0,0,1-.233,1.341,5.523,5.523,0,0,1-6.509,3.715,5.617,5.617,0,0,1-1.286-.489,4.781,4.781,0,0,1-.572-.351l-.259-.183-.129-.1-2.068-1.623c-1.376-1.085-2.767-2.152-4.125-3.26l-8.19-6.6-1.024-.825-.128-.1c-.009-.007,0,0-.007-.01l-.009-.012-.023-.022a.138.138,0,0,0-.069-.022l-1.181.343-5.06,1.438c-3.376.949-6.739,1.94-10.127,2.855l-2.54.688a5.912,5.912,0,0,1-1.858.284,4.222,4.222,0,0,1-2.064-.635,4.288,4.288,0,0,1-2.033-3.522,4.444,4.444,0,0,1,.106-1.039l.151-.488c.054-.164.086-.22.131-.336l.5-1.215c1.381-3.228,2.727-6.469,4.138-9.687l2.121-4.824c.584-1.615,2-3.176.989-4.828a2.72,2.72,0,0,1,.529,2.579l-.686,2.547-1.429,5.073c-.956,3.381-1.977,6.738-2.962,10.108l-.382,1.26a2.96,2.96,0,0,0-.083.285,1.126,1.126,0,0,1-.027.145,1.306,1.306,0,0,0,.013.268,1.053,1.053,0,0,0,.6.773.781.781,0,0,0,.44.063,3.763,3.763,0,0,0,.7-.232l2.468-.914c3.29-1.22,6.6-2.364,9.9-3.55l4.956-1.764.62-.218.7-.234a5.141,5.141,0,0,1,3.741.334,5.323,5.323,0,0,1,.556.323l.39.281,1.056.784,8.442,6.272c1.414,1.036,2.795,2.115,4.191,3.174l2.09,1.6.131.1c.025.018.008,0,.013,0s-.009.009-.013-.007a.132.132,0,0,0-.061-.023.258.258,0,0,0-.123-.013c-.045,0-.118.045-.157.16-.019.018-.012.043-.02.047,0,.052.006-.082,0-.2v-.328l0-1.315-.006-5.257.117-10.515.015-1.314.007-.657,0-.329,0-.181.016-.341a5.453,5.453,0,0,1,1.739-3.595,5.175,5.175,0,0,1,.527-.43l.332-.227c1.455-.977,2.905-1.961,4.378-2.911L290.2,65.9l2.2-1.438,1.1-.719c.132-.084.059-.049.093-.066.017,0,.023-.007.025-.011.021,0,.023-.009.038-.011.055,0,.09-.141.067-.234a.284.284,0,0,0-.05-.119.356.356,0,0,0-.076-.061l-.587-.219c-3.289-1.217-6.594-2.388-9.87-3.643L278.224,57.5l-2.459-.935-.615-.234-.308-.117c-.1-.038-.3-.116-.445-.187a4.007,4.007,0,0,1-2.016-2.2,4.344,4.344,0,0,1-.146-.467l-.074-.321-.3-1.283-.592-2.565c-.392-1.711-.8-3.418-1.165-5.137C269.352,40.629,268.607,37.2,267.936,33.74Z" fill="#de9a15"/></g><g opacity="0.68"><path d="M265.486,34.659c1.066,1.1.663,1.308.609,1.729a4.61,4.61,0,0,1-.455,1.084,4.684,4.684,0,0,1-.765.9,1.783,1.783,0,0,1-.5.378,2.373,2.373,0,0,1-1.3-.109.817.817,0,0,1-.377-.228,2.376,2.376,0,0,1-.7-1.1,1.778,1.778,0,0,1,.1-.617,4.683,4.683,0,0,1,.44-1.093,4.592,4.592,0,0,1,.751-.9c.347-.243.346-.7,1.814-.261A.881.881,0,0,1,265.486,34.659Z" fill="#fff"/></g><g opacity="0.68"><path d="M238.84,84.123c1.314.736,1,.924,1.076,1.242a2.418,2.418,0,0,1-.1.844,2.478,2.478,0,0,1-.447.729c-.115.108-.16.239-.351.321a2.79,2.79,0,0,1-1.241.02,1.143,1.143,0,0,1-.417-.14,2.778,2.778,0,0,1-.975-.769,1.115,1.115,0,0,1-.085-.468,2.482,2.482,0,0,1,.087-.85,2.389,2.389,0,0,1,.43-.734c.251-.209.116-.547,1.608-.336A1.2,1.2,0,0,1,238.84,84.123Z" fill="#fff"/></g><g opacity="0.68"><path d="M230.6,52.82c.477-1.45.828-1.188,1.209-1.331a4.12,4.12,0,0,1,1.117-.091,4.287,4.287,0,0,1,1.09.271,1.659,1.659,0,0,1,.535.271,2.425,2.425,0,0,1,.466,1.207.854.854,0,0,1-.033.439,2.412,2.412,0,0,1-.638,1.125,1.644,1.644,0,0,1-.569.189,4.276,4.276,0,0,1-1.118.108,4.17,4.17,0,0,1-1.092-.254c-.355-.2-.741.01-1-1.495A.938.938,0,0,1,230.6,52.82Z" fill="#fff"/></g><path d="M82.321,33.461l11.87,16.178a2.633,2.633,0,0,0,2.2,1.075l20.056-.607a2.634,2.634,0,0,1,2.218,4.171L106.95,70.566a2.635,2.635,0,0,0-.341,2.428l6.774,18.887a2.634,2.634,0,0,1-3.281,3.4L90.99,89.168a2.635,2.635,0,0,0-2.415.426L72.706,101.873A2.634,2.634,0,0,1,68.46,99.8l-.094-20.065a2.631,2.631,0,0,0-1.151-2.164l-16.582-11.3a2.635,2.635,0,0,1,.658-4.679l19.054-6.289a2.635,2.635,0,0,0,1.7-1.764l5.62-19.262A2.635,2.635,0,0,1,82.321,33.461Z" fill="none" stroke="#b57000" stroke-miterlimit="10" stroke-width="5"/><path d="M82.321,33.461l11.87,16.178a2.633,2.633,0,0,0,2.2,1.075l20.056-.607a2.634,2.634,0,0,1,2.218,4.171L106.95,70.566a2.635,2.635,0,0,0-.341,2.428l6.774,18.887a2.634,2.634,0,0,1-3.281,3.4L90.99,89.168a2.635,2.635,0,0,0-2.415.426L72.706,101.873A2.634,2.634,0,0,1,68.46,99.8l-.094-20.065a2.631,2.631,0,0,0-1.151-2.164l-16.582-11.3a2.635,2.635,0,0,1,.658-4.679l19.054-6.289a2.635,2.635,0,0,0,1.7-1.764l5.62-19.262A2.635,2.635,0,0,1,82.321,33.461Z" fill="url(#f)"/><g clip-path="url(#g)"><path d="M79.957,32.351c-2.9,2.2-2.632,22.868-5.958,25.164-2.021,1.395-4.409,2.08-8.958,3.649-8.349,2.879-10.868,3.077-10.842,4.229.039,1.8,11.315,9.347,13.412,13.161-4.526,5-32.119-15.644-32.119-15.644L72.978,27.472S81.838,30.922,79.957,32.351Z" fill="#fedd59"/><path d="M67.963,78.357c2.559,2.015,1.428,16.389,4.278,17.623C74.7,97.046,85.547,82.161,88.2,81.706c3.776-.647,12.518,3.926,13.973,2.119s-3.029-10.434-1.822-14.083c.45-1.361,4.172-5.592,7.428-9.06,2.713-2.889,5.121-5.131,4.875-5.828-.223-.633-2.886-.338-7.275-.167-5.937.232-10.35.515-11.838-.358-2.532-1.484-8.031-13.779-10.57-18.334-2.252-4.041-3.735-4.233-3.735-4.233l7.1-12.121,31.486,25.235,11.266,3.949-7.718,57.522s-53.144,4.146-53.386,3.7S64.913,75.956,67.963,78.357Z" fill="#f5bc2c" opacity="0.51"/><path d="M67.215,77.573a126.54,126.54,0,0,1-17-8.118L49.2,68.879l-.26-.148c-.167-.113-.332-.231-.493-.354a5.416,5.416,0,0,1-.89-.876,5.738,5.738,0,0,1-1.113-4.808,6.017,6.017,0,0,1,1.08-2.341,5.881,5.881,0,0,1,2.04-1.662c.194-.091.392-.176.592-.256l.314-.121.545-.208,1.088-.416c2.905-1.1,5.836-2.117,8.778-3.1l4.433-1.418,2.231-.667,1.115-.334L69.221,52c.02,0-.089.053-.121.086a.825.825,0,0,0-.221.278.759.759,0,0,0-.056.162c0,.007-.025.1,0,.036l.095-.276c.246-.736.516-1.465.782-2.2.521-1.464,1.073-2.919,1.638-4.37,1.136-2.9,2.333-5.784,3.641-8.635l1-2.131.527-1.079a3.671,3.671,0,0,1,1-1.323,3.381,3.381,0,0,1,2.862-.713,2.752,2.752,0,0,1,1.952,1.62,2.155,2.155,0,0,0-3.32.46,1.865,1.865,0,0,0-.142.683l-.132,1.153-.3,2.336C78,41.2,77.454,44.274,76.852,47.33c-.305,1.528-.622,3.051-.97,4.566-.169.759-.333,1.519-.522,2.272l-.068.283a5.9,5.9,0,0,1-.187.586,6.051,6.051,0,0,1-2.515,3.035,6.338,6.338,0,0,1-1.181.559l-.546.2-1.095.395-2.19.792-4.406,1.5c-2.951.958-5.913,1.884-8.9,2.732l-1.122.314-.561.156-.236.067a.118.118,0,0,0,.054-.035.616.616,0,0,0,.274-.523.539.539,0,0,0-.236-.4.259.259,0,0,0-.095-.032.055.055,0,0,0-.037.008l.22.18.908.734A126.223,126.223,0,0,1,67.215,77.573Z" fill="#ffeb73"/><path d="M82.321,33.461c2.334,2.635,4.607,5.314,6.869,8,1.142,1.335,2.25,2.7,3.369,4.049l1.676,2.03.839,1.016.209.253a1.212,1.212,0,0,0,.378.285,1.276,1.276,0,0,0,.571.122l1.159-.087,2.624-.2,5.248-.395c3.5-.27,7-.452,10.5-.683l.687-.039a5.111,5.111,0,0,1,1.212.108,4.932,4.932,0,0,1,2.211,1.113,5.037,5.037,0,0,1,1.67,4.508,4.953,4.953,0,0,1-.345,1.23,3.219,3.219,0,0,1-.282.563c-.092.156-.252.409-.29.458l-.747,1.082-1.493,2.164L112.411,67.7c-.988,1.448-2.009,2.873-3.023,4.3l-.095.134c-.036.05-.067.1-.051.075l.014-.019a.193.193,0,0,0,.02-.044.187.187,0,0,0,.005-.1l.838,2.286,3.615,9.875,1.746,4.959.435,1.24.109.31c.035.1.067.179.143.439a5.842,5.842,0,0,1,.24,1.339,5.523,5.523,0,0,1-4.847,5.717,5.642,5.642,0,0,1-1.375-.019,4.581,4.581,0,0,1-.657-.135l-.306-.083-.156-.051-2.5-.817c-1.664-.55-3.336-1.076-4.991-1.653l-9.953-3.4-1.244-.425-.155-.053c-.012,0-.007,0-.011-.007l-.012-.008-.029-.013a.141.141,0,0,0-.073,0l-.992.726-4.263,3.082c-2.848,2.047-5.67,4.128-8.539,6.147l-2.152,1.515a5.9,5.9,0,0,1-1.649.9,4.211,4.211,0,0,1-2.157.109,4.289,4.289,0,0,1-3.115-2.614,4.4,4.4,0,0,1-.255-1.013l-.026-.51c0-.173.006-.236.008-.36l.059-1.315c.194-3.506.351-7.012.576-10.518l.343-5.259c0-1.716.791-3.667-.722-4.874a2.719,2.719,0,0,1,1.38,2.242l.226,2.628.392,5.256c.258,3.5.447,7.008.674,10.512l.071,1.314c.007.095.007.251.02.3a.926.926,0,0,1,.024.146,1.421,1.421,0,0,0,.1.247,1.053,1.053,0,0,0,.833.52.782.782,0,0,0,.435-.092,3.653,3.653,0,0,0,.581-.458l2.006-1.7c2.674-2.271,5.4-4.48,8.093-6.723l4.053-3.353.509-.417.581-.461a5.14,5.14,0,0,1,3.629-.965,5.466,5.466,0,0,1,.634.113l.463.131,1.259.376,10.079,3.006c1.683.49,3.35,1.032,5.024,1.55l2.509.784.157.049c.03.007.007,0,.013,0s0,.012-.015,0a.139.139,0,0,0-.065,0,.249.249,0,0,0-.12.03.207.207,0,0,0-.093.2c-.012.024,0,.044,0,.051.022.047-.023-.079-.063-.186l-.113-.308-.451-1.234-1.805-4.939-3.486-9.92-.435-1.241-.218-.62-.109-.31-.06-.171-.1-.325a5.465,5.465,0,0,1,.405-3.973,5.11,5.11,0,0,1,.348-.584l.234-.328c1.034-1.415,2.06-2.836,3.119-4.233l6.307-8.416,1.577-2.1.788-1.051c.1-.125.04-.067.066-.094.015-.007.019-.015.019-.02.02-.008.019-.016.033-.023.05-.021.036-.163-.018-.243a.263.263,0,0,0-.088-.094.358.358,0,0,0-.091-.032l-.627,0c-3.507-.019-7.013.011-10.521-.048l-5.262-.076-2.631-.039-.658-.009-.329,0c-.106,0-.326,0-.482-.023a4.018,4.018,0,0,1-2.646-1.374,4.424,4.424,0,0,1-.3-.389l-.179-.276-.717-1.1-1.434-2.209c-.954-1.474-1.92-2.938-2.851-4.429C86.008,39.451,84.134,36.478,82.321,33.461Z" fill="#de9a15"/></g><g opacity="0.68"><path d="M80.333,35.162c1.377.669,1.071,1,1.163,1.417a4.585,4.585,0,0,1-.056,1.174,4.706,4.706,0,0,1-.413,1.1,1.779,1.779,0,0,1-.339.525,2.369,2.369,0,0,1-1.26.343A.807.807,0,0,1,79,39.64a2.388,2.388,0,0,1-1.034-.8,1.8,1.8,0,0,1-.113-.615,4.667,4.667,0,0,1,.04-1.178,4.543,4.543,0,0,1,.4-1.107c.243-.347.087-.773,1.616-.865A.872.872,0,0,1,80.333,35.162Z" fill="#fff"/></g><g opacity="0.68"><path d="M72.211,90.756c1.488.243,1.259.526,1.436.8a2.432,2.432,0,0,1,.193.829,2.516,2.516,0,0,1-.171.837c-.071.14-.069.279-.22.422a2.78,2.78,0,0,1-1.159.443,1.133,1.133,0,0,1-.441.011,2.792,2.792,0,0,1-1.179-.389c-.157-.135-.161-.274-.239-.411a2.466,2.466,0,0,1-.21-.828,2.432,2.432,0,0,1,.153-.837c.165-.282-.077-.554,1.4-.866A1.21,1.21,0,0,1,72.211,90.756Z" fill="#fff"/></g><g opacity="0.68"><path d="M53.76,64.161c-.047-1.526.372-1.4.681-1.665a4.158,4.158,0,0,1,1.019-.467,4.244,4.244,0,0,1,1.117-.118,1.652,1.652,0,0,1,.595.071,2.423,2.423,0,0,1,.851.975.86.86,0,0,1,.119.424,2.42,2.42,0,0,1-.215,1.276c-.135.2-.313.249-.47.371a4.243,4.243,0,0,1-1.014.484,4.133,4.133,0,0,1-1.112.135c-.4-.064-.693.263-1.451-1.062A.924.924,0,0,1,53.76,64.161Z" fill="#fff"/></g></svg>