<svg xmlns="http://www.w3.org/2000/svg" width="760" height="460" viewBox="0 0 760 460"><g id="bd4e8588-75b8-4b8f-a7d6-2caa387548e3" data-name="Layer 5"><path d="M122.2,79.151C58.433,101.49.43,167.062,1.325,245.433c.824,72.232,51.694,133.412,109.607,157.136s120.52,10.212,181.993,6.537c70.948-4.24,102.626-2.936,150.631-3.246,80.392-.518,160.149,37.283,237.851-5.144,72.031-39.33,97.823-149.3,58.591-229.13C703.176,96.662,628.4,56.618,555.2,49.062c-43.252-4.464-86.746,4.391-129.022,14.389C377.251,75.022,327.65,80.3,277.86,75.124,225.919,69.725,173.169,61.294,122.2,79.151Z" style="fill:#e2faff"/><path d="M114.279,83.105l13.156-37.449a.445.445,0,0,1,.859.074l7.571,44.842a.445.445,0,0,1-.588.493l-20.728-7.394A.445.445,0,0,1,114.279,83.105Z" style="fill:#fbb615"/><path d="M137.871,93.707l12.291,14.206a.445.445,0,0,0,.609.06l31.446-24.422a.445.445,0,0,0-.374-.784L138.107,92.983A.445.445,0,0,0,137.871,93.707Z" style="fill:#fbb615"/><path d="M150.994,119.572,145.571,137.1a.445.445,0,0,0,.386.575l38.8,3.356a.445.445,0,0,0,.275-.821l-33.381-20.885A.445.445,0,0,0,150.994,119.572Z" style="fill:#fbb615"/><path d="M121.573,149.63c2.82-.936,13.712-4.9,16.042-5.745a.441.441,0,0,1,.575.292l11.293,37.857a.445.445,0,0,1-.764.416l-27.342-32.11A.444.444,0,0,1,121.573,149.63Z" style="fill:#fbb615"/><path d="M97.758,145.531l10.823,4.442a.444.444,0,0,1,.2.66c-2.866,4.217-24.859,36.558-24.892,36.084s7.225-38.464,8.241-43.777a.443.443,0,0,1,.66-.3L97.7,145.5A.56.56,0,0,0,97.758,145.531Z" style="fill:#fbb615"/><path d="M82.084,123.251l-31.9,22.106a.445.445,0,0,0,.316.806l40.44-5.789a.444.444,0,0,0,.331-.646L82.731,123.41A.445.445,0,0,0,82.084,123.251Z" style="fill:#fbb615"/><path d="M88.056,96.985,105.891,86.22a.445.445,0,0,0,.1-.682L77.173,54.154a.445.445,0,0,0-.758.413L87.4,96.716A.444.444,0,0,0,88.056,96.985Z" style="fill:#fbb615"/><path d="M85.743,97.766,49.477,94.915a.445.445,0,0,0-.267.823L77.4,113a.445.445,0,0,0,.62-.162L86.1,98.426A.444.444,0,0,0,85.743,97.766Z" style="fill:#fbb615"/><ellipse cx="115.91" cy="119.92" rx="40.324" ry="38.056" style="fill:#ffe54d"/><path d="M360.69,139.648c34.117-.312,50.633-8.057,58.555-16.212a17.666,17.666,0,0,0-16.189-.017,38.019,38.019,0,0,0-72.8-8.815,28.688,28.688,0,0,0-27.341,4.8C308.9,129.707,324.014,139.982,360.69,139.648Z" style="fill:#939292"/><path d="M419.245,123.242c-7.922,8.155-24.438,15.9-58.555,16.212-36.676.335-51.794-9.941-57.771-20.24a28.64,28.64,0,0,0-9.976,29.231H426.775a17.938,17.938,0,0,0-7.53-25.2Z" style="fill:#878383"/><path d="M331.523,152.387c.035-.611-12.14,13.443-4.612,16.188C342.6,173.434,331.6,150.984,331.523,152.387Z" style="fill:#53ceea"/><path d="M362.359,159.4c.034-.611-12.141,13.443-4.613,16.188C373.44,180.442,362.438,157.992,362.359,159.4Z" style="fill:#53ceea"/><path d="M387.588,152.387c.034-.611-12.141,13.443-4.613,16.188C398.669,173.434,387.667,150.984,387.588,152.387Z" style="fill:#53ceea"/><path d="M625.481,320.217c34.117-.312,50.634-8.057,58.555-16.212a17.674,17.674,0,0,0-16.189-.017,38.019,38.019,0,0,0-72.795-8.815,28.69,28.69,0,0,0-27.342,4.8C573.688,310.277,588.806,320.552,625.481,320.217Z" style="fill:#939292"/><path d="M684.036,303.811c-7.921,8.155-24.438,15.9-58.555,16.212-36.675.335-51.793-9.94-57.771-20.24a28.641,28.641,0,0,0-9.975,29.231H691.567a17.938,17.938,0,0,0-7.531-25.2Z" style="fill:#878383"/><polygon points="652.454 299.864 626.272 299.766 621.635 341.911 637 341.827 629.985 374.361 669.487 320.887 647.677 321.131 652.454 299.864" style="fill:#fcb614"/><path d="M129.128,316.143c34.117-.312,50.633-8.057,58.555-16.212a17.666,17.666,0,0,0-16.189-.017A38.019,38.019,0,0,0,98.7,291.1a28.688,28.688,0,0,0-27.341,4.8C77.334,306.2,92.453,316.478,129.128,316.143Z" style="fill:#7acfe5"/><path d="M187.683,299.737c-7.922,8.155-24.438,15.9-58.555,16.212-36.675.335-51.794-9.94-57.771-20.24a28.633,28.633,0,0,0-9.975,29.231H195.213a17.938,17.938,0,0,0-7.53-25.2Z" style="fill:#4eb4cc"/><circle cx="162.204" cy="349.241" r="6.271" style="fill:#7acfe5"/><line x1="165.805" y1="334.356" x2="158.248" y2="363.556" style="fill:none;stroke:#7acfe5;stroke-linecap:round;stroke-miterlimit:10;stroke-width:3.718487200360272px"/><line x1="154.375" y1="335.96" x2="169.679" y2="361.952" style="fill:none;stroke:#7acfe5;stroke-linecap:round;stroke-miterlimit:10;stroke-width:3.718487200360272px"/><line x1="147.427" y1="345.177" x2="176.627" y2="352.734" style="fill:none;stroke:#7acfe5;stroke-linecap:round;stroke-miterlimit:10;stroke-width:3.718487200360272px"/><line x1="149.031" y1="356.608" x2="175.023" y2="341.304" style="fill:none;stroke:#7acfe5;stroke-linecap:round;stroke-miterlimit:10;stroke-width:3.718487200360272px"/><circle cx="85.34" cy="344.139" r="4.122" style="fill:#7acfe5"/><line x1="87.708" y1="334.356" x2="82.741" y2="353.548" style="fill:none;stroke:#7acfe5;stroke-linecap:round;stroke-miterlimit:10;stroke-width:2.478991466906848px"/><line x1="80.195" y1="335.41" x2="90.253" y2="352.493" style="fill:none;stroke:#7acfe5;stroke-linecap:round;stroke-miterlimit:10;stroke-width:2.478991466906848px"/><line x1="75.628" y1="341.468" x2="94.82" y2="346.435" style="fill:none;stroke:#7acfe5;stroke-linecap:round;stroke-miterlimit:10;stroke-width:2.478991466906848px"/><line x1="76.683" y1="348.981" x2="93.766" y2="338.922" style="fill:none;stroke:#7acfe5;stroke-linecap:round;stroke-miterlimit:10;stroke-width:2.478991466906848px"/><circle cx="120.781" cy="372.062" r="5.985" style="fill:#7acfe5"/><line x1="120.561" y1="357.447" x2="120.539" y2="386.234" style="fill:none;stroke:#7acfe5;stroke-linecap:round;stroke-miterlimit:10;stroke-width:3.718487200360272px"/><line x1="110.38" y1="361.655" x2="130.72" y2="382.026" style="fill:none;stroke:#7acfe5;stroke-linecap:round;stroke-miterlimit:10;stroke-width:3.718487200360272px"/><line x1="106.156" y1="371.829" x2="134.943" y2="371.851" style="fill:none;stroke:#7acfe5;stroke-linecap:round;stroke-miterlimit:10;stroke-width:3.718487200360272px"/><line x1="110.364" y1="382.01" x2="130.735" y2="361.67" style="fill:none;stroke:#7acfe5;stroke-linecap:round;stroke-miterlimit:10;stroke-width:3.718487200360272px"/><path d="M377.556,317.656c30.172-.276,44.778-7.125,51.783-14.337a15.628,15.628,0,0,0-14.316-.015,33.622,33.622,0,0,0-64.377-7.8,25.376,25.376,0,0,0-24.179,4.249C331.753,308.865,345.123,317.952,377.556,317.656Z" style="fill:#adadad"/><path d="M429.339,303.148c-7,7.212-21.611,14.061-51.783,14.337-32.433.3-45.8-8.791-51.089-17.9a25.325,25.325,0,0,0-8.821,25.85H436a15.865,15.865,0,0,0-6.66-22.288Z" style="fill:#999898"/><path d="M308.983,325.517c3.984-5.385-1.517-7.721-4.7-7.579s-6.5,1.588-7.965,4.349c-1.759,3.306-.316,7.576,2.48,10.1s6.636,3.59,10.378,4.3c13.195,2.506,76.959-.144,76.959-.144" style="fill:none;stroke:#adadad;stroke-linecap:round;stroke-linejoin:round;stroke-width:4.957982933813696px"/><path d="M327.344,375.055a13.574,13.574,0,0,1-4.653,2.47,5.571,5.571,0,0,1-5.219-1.354,5.763,5.763,0,0,1-.83-6.393,10.106,10.106,0,0,1,4.664-4.165c6.841-3.566,61.226-2.213,61.226-2.213" style="fill:none;stroke:#adadad;stroke-linecap:round;stroke-linejoin:round;stroke-width:4.957982933813696px"/><path d="M398.628,350.174c-13.79-.973-37.025-.088-49.5-.365" style="fill:none;stroke:#adadad;stroke-linecap:round;stroke-linejoin:round;stroke-width:4.957982933813696px"/><path d="M725.29,157.573H712.419c0-40.809-33.2-77.485-74.01-77.485S564.4,116.764,564.4,157.573H551.529c0-47.907,38.974-90.356,86.88-90.356S725.29,109.666,725.29,157.573Z" style="fill:#ce323b"/><path d="M725.29,157.573H712.419c0-40.809-33.2-77.485-74.01-77.485S564.4,116.764,564.4,157.573H551.529c0-47.907,38.974-90.356,86.88-90.356S725.29,109.666,725.29,157.573Z" style="fill:#ce323b"/><path d="M712.419,157.573H699.548c0-33.712-27.427-64.614-61.139-64.614s-61.138,30.9-61.138,64.614H564.4c0-40.809,33.2-77.485,74.009-77.485S712.419,116.764,712.419,157.573Z" style="fill:#ff8c24"/><path d="M699.548,157.573H686.676c0-26.615-21.652-51.743-48.267-51.743s-48.267,25.128-48.267,51.743H577.271c0-33.712,27.427-64.614,61.138-64.614S699.548,123.861,699.548,157.573Z" style="fill:#efce45"/><path d="M686.676,157.573H673.805c0-19.518-15.878-38.872-35.4-38.872s-35.4,19.354-35.4,38.872H590.142c0-26.615,21.653-51.743,48.267-51.743S686.676,130.958,686.676,157.573Z" style="fill:#47855e"/><path d="M673.805,157.573H660.934c0-12.421-10.1-26-22.525-26s-22.524,13.579-22.524,26H603.013c0-19.518,15.879-38.872,35.4-38.872S673.805,138.055,673.805,157.573Z" style="fill:#459cc9"/><path d="M661.017,157.573H648.145c0-1.559-1.686-12.93-9.371-13.16-9.023-.27-10.087,12.368-10.087,13.16H615.816c1.052-19.421,12.066-26.065,22.958-26.031C649.04,131.573,660.718,140.912,661.017,157.573Z" style="fill:#7f5092"/><path d="M580.5,162.51c28.354-.259,42.081-6.7,48.665-13.474a14.686,14.686,0,0,0-13.455-.013,31.6,31.6,0,0,0-60.5-7.327,23.841,23.841,0,0,0-22.723,3.993C537.457,154.249,550.021,162.788,580.5,162.51Z" style="fill:#fff"/><path d="M629.167,148.875c-6.584,6.778-20.311,13.215-48.665,13.474-30.481.278-43.045-8.261-48.013-16.821a23.808,23.808,0,0,0-8.291,24.294H635.425a14.91,14.91,0,0,0-6.258-20.947Z" style="fill:#aee6ed"/><path d="M694.223,165c24-.219,35.612-5.667,41.183-11.4a12.424,12.424,0,0,0-11.386-.012,26.739,26.739,0,0,0-51.2-6.2,20.176,20.176,0,0,0-19.23,3.379C657.8,158,668.428,165.23,694.223,165Z" style="fill:#fff"/><path d="M735.406,153.456c-5.571,5.736-17.187,11.184-41.183,11.4-25.795.235-36.428-6.992-40.632-14.236a20.146,20.146,0,0,0-7.016,20.559H740.7a12.616,12.616,0,0,0-5.3-17.726Z" style="fill:#aee6ed"/><path d="M629.139,149.092a15.2,15.2,0,0,0-6.7-1.369,14.516,14.516,0,0,0-6.484,1.785l-.65.358-.135-.764a31.365,31.365,0,0,0-9.363-17.378,30.13,30.13,0,0,0-17.685-8.333,33.2,33.2,0,0,0-9.883.408,30.087,30.087,0,0,0-9.263,3.495,32.475,32.475,0,0,0-13.07,14.688l-.291.667-.649-.24a24,24,0,0,0-11.55-1.173,23.735,23.735,0,0,0-5.7,1.57,25.775,25.775,0,0,0-5.194,2.931l-.078-.1a23.913,23.913,0,0,1,16.89-5.246,24.239,24.239,0,0,1,5.9,1.219l-.108.049a32.209,32.209,0,0,1,13.277-15.338,31.629,31.629,0,0,1,19.859-4.129,31.269,31.269,0,0,1,18.276,8.775,31.979,31.979,0,0,1,9.244,18.04l-.11-.056a14.76,14.76,0,0,1,13.516.026Z" style="fill:#77b7bc"/><path d="M735.75,153.587a12.425,12.425,0,0,0-5.7-1.195,12.282,12.282,0,0,0-5.519,1.547l-.551.307-.115-.651a27.02,27.02,0,0,0-7.943-14.874,25.548,25.548,0,0,0-15.063-7.174,27.979,27.979,0,0,0-8.434.347,25.463,25.463,0,0,0-7.9,3.006,27.774,27.774,0,0,0-11.109,12.587l-.249.573-.556-.207a20.425,20.425,0,0,0-9.836-1.012,20.072,20.072,0,0,0-9.264,3.869l-.067-.082a20.235,20.235,0,0,1,19.4-3.453l-.093.042a27.553,27.553,0,0,1,11.283-13.142,26.776,26.776,0,0,1,32.514,4.006,27.506,27.506,0,0,1,7.834,15.437l-.094-.048a12.481,12.481,0,0,1,11.506.022Z" style="fill:#77b7bc"/></g></svg>