<svg xmlns="http://www.w3.org/2000/svg" xmlns:xlink="http://www.w3.org/1999/xlink" width="380" height="285" viewBox="0 0 380 285"><defs><clipPath id="a"><path d="M84.194,14.423C60.724,20.07,39.74,29.377,25.012,50.277,13.09,67.194,6.693,87.761,3.49,108.487-2.4,146.6-.03,196.4,20.993,229.364c14.446,22.655,38.573,42.412,65.213,44.48,36.56,2.838,73.147,5.356,109.718,8.034,25.011,1.831,50.094,3.663,75.181,2.78,23.21-.817,50.138-1.628,67.986-19.368,20.737-20.612,29.4-55.649,33.963-84.525,5.464-34.625,6.133-78.685-9.3-110.836-10.821-22.549-32.144-38.262-55-47.144C271.593,8.342,231.726,7.535,192.623,5.622a425.013,425.013,0,0,0-97.36,6.47C91.549,12.774,87.853,13.543,84.194,14.423Z" fill="none"/></clipPath></defs><g clip-path="url(#a)"><rect x="-10.126" y="-36.447" width="416.469" height="344.833" transform="translate(0.789 -1.143) rotate(0.331)" fill="#c6ebf7"/><path d="M105.558,75.626a21.435,21.435,0,0,0-13.408,4.7A22.907,22.907,0,0,0,49.591,87.9c-2.927-2.02-6.739-3.936-10.752-3.936a17.375,17.375,0,0,0,0,34.75s54.905,1.39,66.719,0a21.545,21.545,0,0,0,0-43.09Z" fill="#fff" stroke="#fff" stroke-linejoin="round" stroke-width="1.026"/><path d="M118.9,211.6a14.374,14.374,0,0,1,8.733,2.925,15.049,15.049,0,0,1,12.995-7.252,14.744,14.744,0,0,1,14.725,11.971,13.169,13.169,0,0,1,7-2.451,10.829,10.829,0,1,1,0,21.636s-35.76.866-43.455,0c-7.75,0-14.033-6.006-14.033-13.414S111.146,211.6,118.9,211.6Z" fill="#fff" stroke="#fff" stroke-linejoin="round" stroke-width="1.026"/><path d="M358.536,159.9c0-13.865-12.97-25.1-28.968-25.1a32.186,32.186,0,0,0-15.183,3.725,27.645,27.645,0,0,0-48.294-22.381,36.69,36.69,0,0,0-62.452-10.743A27.638,27.638,0,0,0,161.557,129c0,.25.03.492.037.74a30.158,30.158,0,0,0-9.05-1.384c-16.353,0-29.611,12.97-29.611,28.968A28.979,28.979,0,0,0,141.246,184.1c2.793,2.352,9.267,3.558,26.748,4.763,37.336,2.575,145.481,1.288,165.436-2.575a26.3,26.3,0,0,0,12.1-5.442C353.363,176.354,358.536,168.651,358.536,159.9Z" fill="#fff" stroke="#fff" stroke-linejoin="round" stroke-width="1.026"/><path d="M176.346,145.5c.413-10.041,11.341-17.6,21.007-15.47a17.873,17.873,0,0,1,11.436,8.808,17.671,17.671,0,0,1,1.64,14.359l-1.381-.752a15.089,15.089,0,0,1,18.823-3.482c5.956,3.444,8.663,11.663,5.641,17.821l-.19-.076c2.954-9.6-4.891-20.114-15.189-17.886a13.134,13.134,0,0,0-7.835,4.616.8.8,0,0,1-1.382-.752,16.514,16.514,0,0,0-1.552-13.046c-8.041-14.43-27.373-8.971-30.815,5.883l-.2-.023Z" fill="#cee0df"/><path d="M64.8,104.353c-.921-2.618.186-5.512,1.805-7.627,4.447-6.137,13.53-5.471,17.564.741a6.985,6.985,0,0,1,1.126,3.838.105.105,0,0,1-.108.1c-1.251-2.159-2.554-4.275-4.691-5.643-5.3-3.722-12.391-.937-14.5,5A19.089,19.089,0,0,0,65,104.337a.106.106,0,0,1-.2.016Z" fill="#cee0df"/><path d="M126.006,233.861c-1.585-3.769,1.385-8.216,5.184-9.264a8.261,8.261,0,0,1,9.773,5.244l-1.579.161a9.157,9.157,0,0,1,7.779-7.588,6.265,6.265,0,0,1,3.665.646.105.105,0,0,1-.059.2c-4.34-.433-9.253,2.441-9.77,6.939a.815.815,0,0,1-1.579.161c-1.76-4.935-8.882-6.093-11.684-1.389a9.3,9.3,0,0,0-1.53,4.854.105.105,0,0,1-.2.04Z" fill="#cee0df"/></g></svg>