<svg xmlns="http://www.w3.org/2000/svg" xmlns:xlink="http://www.w3.org/1999/xlink" width="380" height="285" viewBox="0 0 380 285"><defs><clipPath id="a"><path d="M84.194,14.425C60.724,20.073,39.74,29.383,25.012,50.288,13.09,67.209,6.693,87.781,3.49,108.512c-5.889,38.118-3.52,87.93,17.5,120.907,14.446,22.661,38.573,42.423,65.213,44.491,36.56,2.839,73.147,5.358,109.718,8.036,25.011,1.832,50.094,3.664,75.181,2.781,23.21-.817,50.138-1.628,67.986-19.373,20.737-20.617,29.4-55.662,33.963-84.546,5.464-34.633,6.133-78.7-9.3-110.863-10.821-22.555-32.144-38.271-55-47.155C271.593,8.343,231.726,7.536,192.623,5.622a424.846,424.846,0,0,0-97.36,6.472C91.549,12.776,87.853,13.545,84.194,14.425Z" fill="none"/></clipPath></defs><g clip-path="url(#a)"><rect x="-10.129" y="-35.298" width="814.004" height="344.833" transform="translate(0.799 -2.291) rotate(0.331)" fill="#c6ebf7"/><path d="M251.137,55.525c0-7.438-6.957-13.468-15.539-13.468a17.275,17.275,0,0,0-8.145,2A14.83,14.83,0,0,0,201.546,32.05a19.681,19.681,0,0,0-33.5-5.763A14.826,14.826,0,0,0,145.47,38.949c0,.134.016.264.02.4a16.2,16.2,0,0,0-4.855-.742,15.714,15.714,0,0,0-15.884,15.539,15.546,15.546,0,0,0,9.823,14.366c1.5,1.262,4.971,1.908,14.349,2.555,20.028,1.381,78.042.691,88.747-1.381a14.1,14.1,0,0,0,6.488-2.92A13.1,13.1,0,0,0,251.137,55.525Z" fill="#688989"/><path d="M153.4,47.8c.207-5.358,6.091-9.451,11.268-8.3a9.591,9.591,0,0,1,6.135,4.725,9.479,9.479,0,0,1,.88,7.7l-.741-.4a8.094,8.094,0,0,1,10.1-1.868,7.614,7.614,0,0,1,3.026,9.56.055.055,0,0,1-.1-.041,7.817,7.817,0,0,0-3.308-8.859,7.3,7.3,0,0,0-9.043,1.74.43.43,0,0,1-.742-.4,8.86,8.86,0,0,0-.832-7C165.48,36.717,155.488,40.1,153.4,47.8Z" fill="#aabcbb"/><path d="M266.936,207.782c31.529-13.126,40.725-28.877,60.43-22.314s48.606,24.939,53.861,24.939,73.778-15.033,73.778-15.033,48.395,68.849,41.827,68.849-106.409,15.751-106.409,15.751-72.253-15.751-76.194-15.751H232.78l35.47-53.816-11.823,1.313" fill="#aadae2"/><path d="M150.36,213.052c-33.388-13.125-43.127-28.876-63.994-22.313s-51.474,24.939-57.038,24.939S-48.8,200.645-48.8,200.645s-51.249,68.848-44.293,68.848S19.59,285.244,19.59,285.244s76.514-15.751,80.688-15.751H186.53l-37.561-53.815,12.52,1.312" fill="#aadae2"/><path d="M79.762,279.321s86.5-162.6,109.483-166.092c16.94-2.571,118.577,168.814,118.577,168.814s-230.8,6-231.859,4.285S79.762,279.321,79.762,279.321Z" fill="#b7b7b7"/><path d="M86.681,254.037c2.378-4.755,86.792-126.026,86.792-126.026s15.456,19.023,8.323,24.967-29.724,47.558-29.724,47.558,24.968,17.833,33.29,26.156,111.34,25.6,111.34,25.6L87.87,273.06Z" fill="#a5a29f"/><path d="M147.426,161.717s16.94-12,24.351-12S193.056,158.739,199.3,160c4.235.857,9.529-16.281,14.822-17.138,4.405-.713,10.058,7.485,10.058,7.485s-20.645-33.193-33.349-36.621c-7.265-1.96-18.682,12.89-28.119,26.608C155.648,150.61,149.693,160.249,147.426,161.717Z" fill="#fff"/><path d="M153.526,153.955s22.22-38.987,31.487-38.113-3.812,12.763-1.434,15.141,8.323,22.59,8.323,23.779-15.456-5.945-19.023-4.756-21.312,14.14-23.69,12.951S153.526,153.955,153.526,153.955Z" fill="#d9dee2"/><path d="M-63.562,239.13c48.842-1.189,201.8,3.566,246.783,7.133S262.192,234.982,354.756,232c110.571-3.567,366.19,208.062,476.76,181.906,150.1-35.508-11.889,47.557-11.889,47.557s-887.045-2.378-898.613-8.322S-63.562,239.13-63.562,239.13Z" fill="#b0db72"/></g><circle cx="135.895" cy="85.075" r="3.857" fill="#fff" stroke="#fff" stroke-linejoin="round" stroke-width="0.738"/><circle cx="143.61" cy="134.939" r="3.857" fill="#fff" stroke="#fff" stroke-linejoin="round" stroke-width="0.738"/><circle cx="132.038" cy="118.647" r="3.857" fill="#fff" stroke="#fff" stroke-linejoin="round" stroke-width="0.738"/><circle cx="169.575" cy="85.075" r="3.857" fill="#fff" stroke="#fff" stroke-linejoin="round" stroke-width="0.738"/><circle cx="173.432" cy="109.572" r="3.857" fill="#fff" stroke="#fff" stroke-linejoin="round" stroke-width="0.738"/><circle cx="235.272" cy="84.004" r="3.857" fill="#fff" stroke="#fff" stroke-linejoin="round" stroke-width="0.738"/><circle cx="229.324" cy="134.939" r="3.857" fill="#fff" stroke="#fff" stroke-linejoin="round" stroke-width="0.738"/><circle cx="201.984" cy="95.386" r="3.857" fill="#fff" stroke="#fff" stroke-linejoin="round" stroke-width="0.738"/><circle cx="169.575" cy="142.5" r="3.857" fill="#fff" stroke="#fff" stroke-linejoin="round" stroke-width="0.738"/><path d="M185.708,78.422a23.95,23.95,0,0,0,2.616,1.677c1.024.589,2.064,1.154,3.058,1.793a9.216,9.216,0,0,1,2.644,2.327,3.26,3.26,0,0,1,.228,3.366,6.009,6.009,0,0,1-2.335,2.6c-1.96,1.325-4.23,2.126-6.132,3.546a4.938,4.938,0,0,0-2,2.829,4.016,4.016,0,0,0,.787,3.329,8.725,8.725,0,0,0,2.743,2.2c1.029.582,2.1,1.082,3.139,1.647a11.11,11.11,0,0,1,2.863,2.061,4.043,4.043,0,0,1,1.175,3.219,4.326,4.326,0,0,1-1.97,2.825,22.278,22.278,0,0,1-3.058,1.786c-1.049.542-2.111,1.066-3.1,1.711a5.443,5.443,0,0,0-2.342,2.571,8.27,8.27,0,0,0-.16,2.348v2.366" fill="none" stroke="#2e344d" stroke-linecap="round" stroke-miterlimit="10" stroke-width="3.811"/><polyline points="189.811 123.473 183.865 133.034 177.92 123.207" fill="none" stroke="#2e344d" stroke-linecap="round" stroke-linejoin="round" stroke-width="3.811"/><path d="M185.052,116.364a4.667,4.667,0,0,0-.787.988,3.572,3.572,0,0,0-.255.6,3,3,0,0,0-.145,1.065v12.967" fill="none" stroke="#2e344d" stroke-miterlimit="10" stroke-width="3.811"/><path d="M153.194,68.858a24.1,24.1,0,0,0,2.616,1.677c1.025.589,2.064,1.154,3.059,1.793a9.21,9.21,0,0,1,2.643,2.327,3.26,3.26,0,0,1,.228,3.366,6.018,6.018,0,0,1-2.334,2.595c-1.961,1.325-4.231,2.126-6.132,3.545a4.937,4.937,0,0,0-2,2.83,4.017,4.017,0,0,0,.787,3.329,8.725,8.725,0,0,0,2.743,2.2c1.029.582,2.1,1.081,3.139,1.647a11.087,11.087,0,0,1,2.863,2.061,4.041,4.041,0,0,1,1.175,3.218,4.321,4.321,0,0,1-1.97,2.825,22.436,22.436,0,0,1-3.057,1.787c-1.05.541-2.112,1.066-3.1,1.71a5.447,5.447,0,0,0-2.342,2.571,8.272,8.272,0,0,0-.16,2.348v2.367" fill="none" stroke="#2e344d" stroke-linecap="round" stroke-miterlimit="10" stroke-width="3.811"/><polyline points="157.297 113.909 151.351 123.47 145.406 113.642" fill="none" stroke="#2e344d" stroke-linecap="round" stroke-linejoin="round" stroke-width="3.811"/><path d="M152.539,106.8a4.641,4.641,0,0,0-.788.988,3.5,3.5,0,0,0-.255.6,2.972,2.972,0,0,0-.144,1.064v12.968" fill="none" stroke="#2e344d" stroke-miterlimit="10" stroke-width="3.811"/><path d="M214.287,67.786a24.109,24.109,0,0,0,2.616,1.678c1.024.589,2.063,1.154,3.058,1.792a9.2,9.2,0,0,1,2.643,2.328,3.258,3.258,0,0,1,.229,3.366,6.012,6.012,0,0,1-2.335,2.594c-1.961,1.325-4.23,2.126-6.132,3.546a4.932,4.932,0,0,0-2,2.83,4.017,4.017,0,0,0,.786,3.328,8.74,8.74,0,0,0,2.744,2.2c1.028.582,2.1,1.082,3.139,1.647a11.11,11.11,0,0,1,2.863,2.061,4.048,4.048,0,0,1,1.175,3.219,4.323,4.323,0,0,1-1.97,2.825,22.338,22.338,0,0,1-3.058,1.786,35.287,35.287,0,0,0-3.1,1.711,5.44,5.44,0,0,0-2.343,2.571,8.309,8.309,0,0,0-.159,2.348v2.366" fill="none" stroke="#2e344d" stroke-linecap="round" stroke-miterlimit="10" stroke-width="3.811"/><polyline points="218.389 112.838 212.444 122.398 206.498 112.571" fill="none" stroke="#2e344d" stroke-linecap="round" stroke-linejoin="round" stroke-width="3.811"/><path d="M213.631,105.728a4.667,4.667,0,0,0-.787.988,3.47,3.47,0,0,0-.255.6,2.972,2.972,0,0,0-.145,1.064V121.35" fill="none" stroke="#2e344d" stroke-miterlimit="10" stroke-width="3.811"/></svg>