<svg xmlns="http://www.w3.org/2000/svg" xmlns:xlink="http://www.w3.org/1999/xlink" width="380" height="285" viewBox="0 0 380 285"><defs><clipPath id="a"><path d="M84.194,14.427C60.724,20.076,39.74,29.387,25.012,50.3,13.09,67.219,6.693,87.8,3.49,108.528c-5.889,38.124-3.52,87.944,17.5,120.926,14.446,22.665,38.573,42.43,65.213,44.5,36.56,2.839,73.147,5.358,109.718,8.037,25.011,1.832,50.094,3.664,75.181,2.781,23.21-.817,50.138-1.628,67.986-19.376,20.737-20.62,29.4-55.671,33.963-84.559,5.464-34.639,6.133-78.717-9.3-110.881-10.821-22.558-32.144-38.277-55-47.163C271.593,8.343,231.726,7.536,192.623,5.622A424.846,424.846,0,0,0,95.263,12.1C91.549,12.777,87.853,13.546,84.194,14.427Z" fill="none"/></clipPath></defs><g clip-path="url(#a)"><rect x="-690.124" y="-14.114" width="1097.424" height="316.417" transform="translate(0.83 0.82) rotate(0.331)" fill="#c6ebf7"/><rect x="-248.871" y="145.189" width="753.635" height="230.539" fill="#3ac4d6"/><path d="M157.339,253.067c-5.374.657-11.245-2.816-12.651-8.264l1.33.163c-3.2,5.827-13.649,10.349-19.778,7.076-2.353-1.113-4.53-3.358-4.453-6.165l1.339.4c-1.964,2.659-4.906,3.7-7.7,5.019-1.011.428-3.055,1.332-4.051,1.8-1.188.485-3.445,1.2-4.552.726,2.919-.583,5.357-2.453,8.059-3.7,2.418-1.247,5.451-2.4,7.011-4.609a.73.73,0,0,1,1.336.405c-.031,2.058,1.678,3.829,3.67,4.735,5.479,2.744,14.935-1.287,17.845-6.339a.717.717,0,0,1,1.33.164c1.258,4.9,6.429,7.737,11.26,8.394a.1.1,0,0,1,0,.2Z" fill="#1d92a3"/><path d="M285.339,199.283c-.8,5.632-6.97,8.947-12.274,9.075-5.527.057-11.41-3.288-12.819-8.929l1.424.175a9.876,9.876,0,0,1-3.175,3.272,24.455,24.455,0,0,1-12.177,4.1.1.1,0,0,1-.033-.195,67.988,67.988,0,0,0,7.819-3.037c2.321-1.129,4.964-2.571,6.207-4.841a.765.765,0,0,1,1.424.175c1.271,4.768,6.545,7.737,11.317,7.721a13.684,13.684,0,0,0,12.1-7.568.1.1,0,0,1,.191.053Z" fill="#1d92a3"/><path d="M143.374,168.459c-1.176,5.44-6.918,8.912-12.275,8.976-5.492.041-11.328-3.246-12.8-8.834l1.4.172c-3.23,5.843-13.658,10.316-19.815,7.07-2.361-1.111-4.547-3.359-4.475-6.176l1.389.415c-2.683,3.529-7.074,4.487-10.731,6.508-7.728,4.564-14.033-.738-15.6-8.63a.1.1,0,0,1,.187-.065c1.1,2.489,2.193,5.056,4.146,6.787,3,2.856,7.255,2.824,10.605.68,2.428-1.292,4.976-2.252,7.3-3.654a8.615,8.615,0,0,0,2.823-2.424.757.757,0,0,1,1.385.422c-.038,2.042,1.659,3.814,3.647,4.724,4.219,2.055,9.091.352,12.955-1.765a12.532,12.532,0,0,0,4.853-4.58.749.749,0,0,1,1.4.172c1.2,4.822,6.529,7.848,11.333,7.816,4.959-.048,10.216-2.9,12.1-7.667.032-.111.22-.06.191.053Z" fill="#1d92a3"/><path d="M269.741,238.354c4.941.26,9.944-3.6,10.286-8.549a.715.715,0,0,1,1.321-.326,12.372,12.372,0,0,0,21.991-1.462.727.727,0,0,1,1.117-.3,29.812,29.812,0,0,0,3.759,2.5,40.5,40.5,0,0,0,12.9,4.329.1.1,0,0,1-.011.2c-6.3.373-12.552-2.1-17.53-5.876l1.116-.3a13.632,13.632,0,0,1-24.564,1.638l1.329-.311a10,10,0,0,1-7.733,8.8,7.882,7.882,0,0,1-4.012-.145.1.1,0,0,1,.036-.195Z" fill="#1d92a3"/><path d="M137.156,153.643a6.7,6.7,0,0,1-1.948-2.966,6.17,6.17,0,0,1,.614-5.141,6.78,6.78,0,0,1,1.835-1.92l2.3-1.365a22.983,22.983,0,0,0,4.318-3.135A7.786,7.786,0,0,0,145.883,137a4.546,4.546,0,0,0,.529-2.581,5.479,5.479,0,0,0-.265-1.306,8.293,8.293,0,0,0-.57-1.205,9.859,9.859,0,0,0-1.847-1.921c-1.383-1.13-2.916-2.053-4.386-3.059a13.65,13.65,0,0,1-3.92-3.585,4.513,4.513,0,0,1-.739-2.529,5.782,5.782,0,0,1,.7-2.555,9.835,9.835,0,0,1,3.8-3.662,49.954,49.954,0,0,0,4.483-2.911,6.469,6.469,0,0,0,2.687-4.444,6.049,6.049,0,0,0-1.906-4.806c-2.551-2.515-6.314-3.462-8.53-6.361a7.081,7.081,0,0,1-.688-1.142l-.218-.632-.151-.651a4.519,4.519,0,0,1,.26-2.623,9.066,9.066,0,0,1,3.727-3.721h0c1.575-1.009,3.246-1.872,4.733-3.014a7.971,7.971,0,0,0,1.927-2.019,4.6,4.6,0,0,0,.671-2.679V74.123" fill="none" stroke="#2e344d" stroke-linecap="round" stroke-miterlimit="10" stroke-width="4.402"/><polyline points="139.313 73.291 146.183 62.094 153.052 73.292" fill="none" stroke="#2e344d" stroke-linecap="round" stroke-linejoin="round" stroke-width="4.402"/><path d="M145.292,82.59a4.56,4.56,0,0,0,.891-3V63.305" fill="none" stroke="#2e344d" stroke-miterlimit="10" stroke-width="4.402"/><path d="M192.424,173.522a6.7,6.7,0,0,1-1.949-2.966,6.179,6.179,0,0,1,.614-5.142,6.78,6.78,0,0,1,1.836-1.919l2.3-1.366A22.934,22.934,0,0,0,199.543,159a7.8,7.8,0,0,0,1.608-2.119,4.556,4.556,0,0,0,.528-2.581,5.419,5.419,0,0,0-.264-1.306,8.249,8.249,0,0,0-.571-1.205A9.836,9.836,0,0,0,199,149.862c-1.383-1.129-2.915-2.052-4.386-3.059a13.636,13.636,0,0,1-3.92-3.585,4.506,4.506,0,0,1-.738-2.528,5.761,5.761,0,0,1,.7-2.555,9.835,9.835,0,0,1,3.8-3.662,49.954,49.954,0,0,0,4.483-2.911,6.472,6.472,0,0,0,2.688-4.444,6.054,6.054,0,0,0-1.907-4.806c-2.55-2.515-6.314-3.462-8.53-6.362a7.072,7.072,0,0,1-.688-1.141l-.218-.632-.151-.652a4.524,4.524,0,0,1,.26-2.622,9.066,9.066,0,0,1,3.727-3.721h0c1.574-1.009,3.245-1.873,4.732-3.015a7.9,7.9,0,0,0,1.927-2.019,4.6,4.6,0,0,0,.671-2.679V94" fill="none" stroke="#2e344d" stroke-linecap="round" stroke-miterlimit="10" stroke-width="4.402"/><polyline points="194.581 93.17 201.451 81.972 208.32 93.171" fill="none" stroke="#2e344d" stroke-linecap="round" stroke-linejoin="round" stroke-width="4.402"/><path d="M200.559,102.469a4.561,4.561,0,0,0,.891-3V83.184" fill="none" stroke="#2e344d" stroke-miterlimit="10" stroke-width="4.402"/><path d="M255.854,148.678a6.7,6.7,0,0,1-1.948-2.966,6.171,6.171,0,0,1,.614-5.142,6.777,6.777,0,0,1,1.835-1.919l2.3-1.366a22.973,22.973,0,0,0,4.319-3.134,7.8,7.8,0,0,0,1.607-2.119,4.548,4.548,0,0,0,.529-2.581,5.421,5.421,0,0,0-.265-1.306,8.244,8.244,0,0,0-.57-1.205,9.836,9.836,0,0,0-1.847-1.922c-1.383-1.129-2.916-2.052-4.386-3.059a13.622,13.622,0,0,1-3.92-3.585,4.515,4.515,0,0,1-.739-2.528,5.775,5.775,0,0,1,.7-2.555,9.835,9.835,0,0,1,3.8-3.662,49.954,49.954,0,0,0,4.483-2.911,6.476,6.476,0,0,0,2.688-4.444,6.054,6.054,0,0,0-1.907-4.806c-2.551-2.515-6.314-3.462-8.53-6.361a7.081,7.081,0,0,1-.688-1.142l-.218-.632-.151-.652a4.516,4.516,0,0,1,.26-2.622,9.066,9.066,0,0,1,3.727-3.721h0c1.575-1.009,3.246-1.873,4.733-3.014a7.942,7.942,0,0,0,1.927-2.02,4.6,4.6,0,0,0,.671-2.679V69.158" fill="none" stroke="#2e344d" stroke-linecap="round" stroke-miterlimit="10" stroke-width="4.402"/><polyline points="258.012 68.326 264.881 57.129 271.75 68.327" fill="none" stroke="#2e344d" stroke-linecap="round" stroke-linejoin="round" stroke-width="4.402"/><path d="M263.99,77.625a4.561,4.561,0,0,0,.891-3V58.34" fill="none" stroke="#2e344d" stroke-miterlimit="10" stroke-width="4.402"/><path d="M108.219,29.141a20.252,20.252,0,0,0-12.666,4.438,21.64,21.64,0,0,0-40.2,7.159c-2.765-1.909-6.366-3.719-10.157-3.719a16.414,16.414,0,0,0,0,32.827s51.866,1.313,63.027,0a20.353,20.353,0,1,0,0-40.705Z" fill="#fff" stroke="#fff" stroke-linejoin="round" stroke-width="0.97"/><path d="M300.238,96.962a13.568,13.568,0,0,1,8.249,2.764,14.217,14.217,0,0,1,12.276-6.851,13.927,13.927,0,0,1,13.91,11.308,12.444,12.444,0,0,1,6.615-2.315,10.23,10.23,0,1,1,0,20.439s-33.781.818-41.05,0c-7.321,0-13.256-5.673-13.256-12.672S292.917,96.962,300.238,96.962Z" fill="#fff" stroke="#fff" stroke-linejoin="round" stroke-width="0.97"/><path d="M69.714,56.278c-.871-2.473.175-5.207,1.7-7.2,4.2-5.8,12.781-5.168,16.592.7A6.6,6.6,0,0,1,89.074,53.4a.1.1,0,0,1-.1.1,14.484,14.484,0,0,0-4.431-5.33c-5.011-3.517-11.706-.886-13.7,4.72a18.005,18.005,0,0,0-.937,3.378.1.1,0,0,1-.192.015Z" fill="#cee0df"/><path d="M306.954,117.993c-1.5-3.561,1.308-7.762,4.9-8.752a7.805,7.805,0,0,1,9.233,4.954l-1.492.152a8.649,8.649,0,0,1,7.349-7.167,5.859,5.859,0,0,1,3.462.61.1.1,0,0,1,.038.134,10.243,10.243,0,0,0-6.136,1.616,7.161,7.161,0,0,0-3.187,4.99.767.767,0,0,1-1.49.159,6.262,6.262,0,0,0-2.957-3.369c-4.771-2.706-9.5,1.644-9.527,6.635a.1.1,0,0,1-.19.038Z" fill="#cee0df"/></g></svg>