<?xml version="1.0" encoding="UTF-8"?><svg xmlns="http://www.w3.org/2000/svg" width="514" height="326" xmlns:xlink="http://www.w3.org/1999/xlink" viewBox="0 0 514 326"><defs><clipPath id="uuid-3aba6d1b-22d1-44e9-a9af-945551f2bcc0"><rect x="-510.592" y="-358.749" width="1504.388" height="1070.965" style="fill:none;"/></clipPath></defs><g id="uuid-585b005f-9f29-4432-8cdb-7706c946727e"><g style="clip-path:url(#uuid-3aba6d1b-22d1-44e9-a9af-945551f2bcc0);"><g><rect x="-797.312" y="-722.152" width="2110.404" height="1536.952" transform="translate(6.522 -27.616) rotate(6.208)" style="fill:#edfdff; stroke:#2d80b4; stroke-linecap:round; stroke-linejoin:round;"/><g><path d="M2325.446-1049.72c-24.325-13.499-37.009,18.142-59.188,12.9-14.784,4.53,1.234,34.565,7.057,42.575,15.719,29.347-32.68,44.133,13.236,51.351,5.788,18.549-29.477,26.972-45.007,43.777-16.168,11.344-9.904-10.438-10.353-24.213,14.397-22.982-11.402-48.603,25.929-53.332,22.737-16.929-18.025-56.244-4.639-88.481-18.138-93.903-43.722-11.93-43.031-70.191-1.969-17.687-6.079-3.784-19.246-2.097-10.115,13.944-11.838,57.37-19.783,80.205,4.117,44.572,20.061,78.748-6.062,121.631-12.232,32.129,88.638,58.026,33.982,63.61-9.19,.863-6.277,9.913-15.52,23.258-30.689,25.979-12.47-50.606-52.87-33.195-25.263-.259-48.133,132.779-76.614,59.666-65.873,35.596-45.878-11.007-103.313,30.563-92.927,11.756-41.804,9.71-52.568-41.907-28.974-10.899-66.244,24.093-96.539,21.938-16.68-1.805-1.462-16.373-9.401-20.979-7.872-5.224-13.617-12.089-20.686-24.713-5.436-18.167-51.735-7.485-44.834-35.448-3.028-59.868-6.77-39.168-55.117-6.612-47.742,1.656,52.96-81.808,1.938-101.484-7.544-25.458,57.493-56.024,18.039-82.283-25.197-10.774-5.519,40.42-14.773,46.429-39.363,12.272-83.906-17.343-90.761,52.536-14.075,27.784-13.622-.244-30.353-19.533-28.488-35.255-97.296,19.972-117.445,5.328,14.09-32.949,56.35-12.635,77.69-57.701,22.806-24.33,41.354,22.011,80.441,.629,24.965-9.748,37.965-51.867,44.194-71.916-3.35-14.903,73.09-42.042,24.571-52.862-19.998-7.168,12.652-14.85,6.492-29.87-6.222-14.402-43.355,4.645-49.417-17.229-6.635-22.559,22.192,4.908,45.561,4.956-127.056-139.045-395.918,111.283-458.157,242.776-51.109,55.977-86.818,136.687-104.453,208.289-16.809,36.687,8.59,78.322-36.963,100.79-22.667,38.032-88.555,68.744-30.013,7.331,15.532-11.402,11.31-14.356,5.992-31.156-6.219-24.662,26.363-36.205,24.8-60.946,21.049-8.564,14.94-98.987,25.624-110.144,5.864-19.296-25.045-11.626-21.126-26.63,39.339-.324,31.624-5.776,46.87-42.955,2.774-33.511,17.26-56.467,20.982-91.299,35.637-126.527,149.524-129.451,139.25-175.77-8.546-17.161-7.771-18.325,1.127-40.443,4.7-23.091-33.002-47.785,5.197-65.567,20.902-97.002,11.125-15.333,54.12-55.879,13.889-20.335,8.997-17.123,36.819-22.207,86.45-16.036,140.148-88.26,228.646-90.566,68.498-38.111,132.852-69.069,213.708-78.44,55.621-32.911,175.266-84.154,173.166-153.367-3.002-20.305,3.384-13.371,12.493-25.482,10.193-10.684-.998-55.747,28.164-49.964,14.472-14.543-40.321-34.192,5.474-56.188-3.85-65.822-40.666-15.988,50.552-76.866,26.873-14.926,18.405-86.452,80.118-68.012,20.963-2.605,20.796-82.941,35.729-89.719,23.43-15.1,1.929-29.533,25.688-45.25,12.561-7.993,2.561-11.577-9.268-22.22-11.757-11.263,7.118-11.707,12.75-21.701,9.194-25.452-46.884,1.786-46.751-23.803-1.668-14.531,24.475-4.2,31.592-15.904-24.021-46.802-134.559,71.565-46.659-42.523,3.663-15.813-14.354,6.561-23.604,8.051-37.472-.239-13.32-11.563,6.999-28.556,13.744-26.179-42.318,7.816-48.155-10.862-10.351-12.356,14.409-7.169,27.98-12.555,3.078-14.783-15.526-66.69-47.643-39.496-14.55-31.497-29.886-43.143-65.514-6.498-30.055,7.026,21.43-36.834-16.273-35.466-67.403,18.481-23.816,62.476-44.397,91.875-15.213,14.03-.325-33.532-29.755-6.971-17.236,6.653,12.76-40.962,21.406-47.59,4.042-27.373-59.15-24.333-71.016-51.42-8.959-2.883-30.229,26.747-47.373,23.553-27.443,17.803-55.866,63.749-3.375,18.981,53.485-4.96-61.189,51.965-58.574,79.106,3.767,22.635,3.013,30.913-18.572,51.016,.941,42.962-58.688,44.5-38.928,95.602-.879,19.869-22.261,7.559-22.747-11.835-1.314-29.76-54.703-8.965-78.152-21.608-18.202-15.557,71.39,11.246,70.929-13.487,.284-25.998-5.93-40.103,30.731-49.695,30.677-29.288,57.427-94.991-8.33-42.702-14.182-7.169,138.022-88.407,96.856-108.65-10.248-31.566,102.718-45.267,41.206-80.368-15.269-20.007-53.064,40.15-55.717-1.073-7.927-32.401-48.535-20.155-26.127,13.38,.172,28.712-37.797,6.66-54.328,15.928-11.511,4.364-19.709,14.079-33.606-7.399-29.356-43.475-54.1-19.73-41.618,18.559-21.941,48.6-39.161-1.438-5.177-29.883,2.9-39.436-32.289,49.189-43.757,20.19-48.071-102.345-36.195,117.933-78.766,37.611,14.819-48.39,3.315-68.672-24.827-100.043-17.6-11.271-15.312,21.423-32.61,13.304-26.234-24.273-42.419,18.545-59.443-14.573-32.162-62.874-59.748,27.767-75.794-7.616,21.171-49.59-6.099-7.175-31.046-18.98-12.326-11.952,23.358-23.671,18.283-36.702-8.621-11.591-59.527,41.572-77.336-5.309,2.773-25.961,52.085,29.127,42.429-25.943-.554-18.777,16.683,1.816,32.054,9.73,32.163,7.152-6.542-42.955-9.13-53.401-1.36-49.588-91.395,8.088-70.629-48.862-11.192-26.517-69.924,56.527-67.883,3.218,87.726-63.727,36.759-21.507,7.288-79.06-15.429-8.387-14.614,34.977-39.102,31.294-13.679,.391-3.592-14.734,11.999-26.767,16.303-12.579-4.902-8.644-14.535-21.547-24.394-16.901-35.227,32.96-55.448,50.117-28.359,2.036,53.762-75.451,12.567-97.833-43.688-15.537-49.008,115.388-61.875,43.813,3.402-13.361,.672-6.171-7.394,2.311-34.966-7.207,52.418-42.771,23.482-66.697-37.211-22.624-29.875,11.419-44.967-46.085-12.124-11.174-29.104,46.806-52.557,35.463-14.999-10.689,43.229-26,20.787-53.881-5.95-16.876-22.454-2.447-21.362,11.398-15.03,33.43-26.656,2.114-19.618-16.486-58.981,19.084,28.95-23.02-18.544-32.589-6.005-2.819-40.371,42.216-14.829-.993,.361-38.664-33.373,26.705-33.273-34.192-16.245-5.403-54.598,36.413-21.568-16.697,3.666-15.819-17.23-8.735-26.205,2.144-23.635,14.475,17.106-71.196-30.063-21.982-13.847,7.847-6.77-9.476,7.5-27.267,22.654-27.848-62.81-33.313-36.666,2.875,17.448,26.367-15.876,81.976,35.951,81.273,13.584,6.476,1.88,24.544-22.783,12.502-24.725-11.423-5.161,5.678-12.852,16.697-14.597,31.206,14.342,23.929,44.059,36.608,36.163,31.817-75.812-24.094-22.282,31.893,22.157,26.258-47.768,48.793,14.851,36.565,30.917,12.917-49.089,10.805,.281,51.183,10.429,17.364-13.898,2.239-17.027,13.129-.056,2.874,47.301,83.008,1.816,30.778-73.467-63.982-5.069,60.346-79.765,94.881-9.35,10.944,11.058,70.161-24.636,53.486-12.812,1.226,21.878-63.847-11.042-41.76-6.718,8.003-12.86,16.694-21.478,6.397-15.117-37.589-14.163-2.4-46.214-16.878-30.876-18.037-16.009-54.009-55.034-37.184-30.518,11.007-60.515,.399-54.901,45.193,9.913,42.698-82.851,55.751-52.592,11.743,11.758-12.446,8.79-9.024-1.859-24.534-3.158-63.912,54.063,57.427,43.908-15.811,3.617-15.207-1.078-13.848-15.404-25.389-14.327-11.54-2.577-12.134,9.74-23.898,16.862-28.262-29.696-8.414-43.468-12.207-31.222-21.834,33.331-64.021-12.77-85.62-35.192-13.652-11.559-46.359-48.898-57.736-20.463-13.527,6.673-30.111-13.652-47.655-16.967-28.11,43.755-74.707-16.426-99.742-19.649-10.254-7.41,8.547-3.887,23.906,7.725,19.86-26.065,63.632-29.499,20.502-.687-17.546-3.83-18.513-19.065-27.656-75.334,60.356-17.625-22.334-111.693,24.041-30.365,3.13,4.125-46.387-46.752-23.796-18.889-6.004,58.317-52.516-2.264-50.791-20.21-5.612-15.604,61.044-45.237,21.904-11.732-17.498,19.881-9.691,10.209-28.213-24.778-34.689-48.352-11.266-52.189,14.292-29.446-4.503,21.505-97.441-46.254-64.297-49.351,4.764-42.688-43.788-82.99-30.88-15.671,.792-9.042,11.498-14.438,25.263-23.231,43.044-56.06,13.392-24.623,65.325-18.937,4.695-76.457-71.764-88.179,4.776-13.127,41.574-25.155-27.632-31.789-24.063-52.662,1.563-148.946-26.545-177.738,34.318-18.279,23.214,19.597,86.052,24.349,104.364,8.358,15.761,45.195,6.648,31.674,37.134,20.653,64.367,45.302-3.809-6.945,111.557-34.796,23.189-48.69,56.228-2.533,23.438,20.972-41.827,65.158,8.878,54.726,34.027-7.016,16.704,6.96,7.617,17.061,16.203,16.122,10.828-11.658,56.27,28.13,39.869,19.138,20.64-16.469,33.6,35.15,64.958,5.983,43.05-35.759-41.435-45.894,10.001-6.444,17.389,25.343,29.581,8.062,45.173-25.215,18.994-2.814,75.184-36.877,88.33-31.536,89.752,46.847,70.291,88.033,121.875,64.43,25.758,130.093,63.384,155.327,141.708,15.6,29.759,16.069,25.444,29.391,46.234,19.378,25.437-9.019,51.537,13.163,70.067,9.14-12.761,28.256-14.221,31.5,14.656,14.615,17.812,74.079,9.086,21.484,47.273-44.271,36.246-52.631-108.024-48.589-19.021-4.925,132.953-128.383,271.153-238.589,325.315-12.797,20.003,16.74,31.289,34.576,46.206,19.367,23.99,13.958,43.699,46.094,59.895,16.604,46.888,32.428,89.103,48.953,140.734,5.89,33.521,41.272,15.299,20.84,59.051-3.757,22.669,10.926,13.036,26.297,20.949,13.946,22.492,5.795,30.33,33.686,48.576-4.469,28.434-36.639,81.364-31.052,118.296,3.245,17.829,19.375,.866,31.172,17.747,10.727,17.186,27.866,68.311-3.034,45.855-11.099-28.384-23.507-10.85-41.033-40.665-11.529-19.35-15.369-7.91-29.275,.557-14.592,20.606-16.55,42.226-2.078,72.769,10.891,57.899-55.783-47.929-128.513,29.73-19.275-16.788,71.764-35.666,23.93-71.039-25.48-23.351-14.824-50.091-58.863-55.696-50.745-51.941-161,3.037-96.481-44.184,47.906-6.2-45.838-71.554-63.339-86.148-40.408-24.369-20.073-42.94-14.605-74.584-35.337-35.219-16.449-55.995-24.753-100.659-11.891-28.111-47.134-56.278-35.131-83.05,2.021-43.794,33.537-96.482-24.911-123.126-59.771-55.27-77.379,30.419-127.053-13.813-38.075-24.702-48.693,42.786-96.196,18.843-49.746-17.069-36.242,33.297-53.844,65.28-10.487,18.825-23.408-5.666-11.509-37.44,11.898-31.774,14.672-21.492-13.127-34.496-38.552-48.787-131.932-69.53-191.165-75.062-38.192-12.907-27.055-19.806-55.037-49.056-27.276-29.796-24.614,5.435-83.483-50.262-59.443-56.38-48.659-42.104-96.342-45.419-48.328-3.383-31.139-.265-73.342-36.055-42.846-35.857-92.495-3.199-120.298-16.205-27.801-13.008-31.872,6.515-61.64,29.483-48.336,47.266-99.742,19.048-53.447-45.745-26.341-68.744-69.317-162.459-70.069-239.109-25.006-30.757-17.323,26.669-70.392,2.318-126.804,33.084-61.404-147.889-85.011-185.2-23.769-2.57,4.687-19.441,9.669-41.358-6.685-29.85,8.678-59.341,14.475-85.155-4.863-21.118-2.335-26.457,11.967-50.484,14.938-23.955,23.628-56.08,24.903-67.797-2.4-12.517,52.599-8.222,16.623-27.516-22.676-35.436,132.587-59.969,49.823-81.935-21.177-2.3-4.208-21.044-3.403-28.446,17.384-33.141,106.323-13.904,49.461-60.752-1.701-23.882,32.402,1.856,9.546-40.145,18.391-9.459,43.714,37.101,69.646,4.446,28.335-18.524-126.06-34.721-31.267-52.694,45.844,7.302,57.394,33.049,86.13-9.975,33.342-16.837,31.638-26.286,28.141-61.825,.381-22.368-38.107-52.979-62.253-42.33-22.092,5.347-25.169-26.974-44.731-18.587-8.353,4.561-38.277,53.002-34.88,4.309,9.324-25.166-42.536-24.237-64.918-23.908-30.432,6.245-27.71-23.333-35.581-36.937-13.962-9.002-11.566-13.107-15.024-29.084,18.379-15.816,66.231,64.736,106.65,52.147,44.279-1.573,55.601,40.453,89.131,22.181,11.679,6.931,64.938,54.126,50.36,8.602-6.632-32.322,91.192,37.256,48.065-54.053,18.918-10.944,39.574-5.148,5.017-28.152,2.415-28.034,40.922-11.34,29.314,16.922,5.964,5.012,12.304-5.526,15.676-12.649,19.311,6.284,31.406,29.41,9.31-13.966-3.525-15.353,5.123-11.292,20.705,6.624,39.894,36.681,59.485-20.267,95.881-33.86-15.827-83.413,8.584-55.567,53.026-135.255,32.03-102.523-157.549,3.438-186.19-78.911-26.878-89.911-176.977-1.736-155.724-66.826,33.901-7.321,102.102,27.176,116.339-12.933,38.301,17.683,81.159,65.264,132.792,92.414,65.663,35.564,68.241-32.604,116.992-60.882,15.231-18.677-22.294-48.681,16.269-60.004,88.356-59.446-98.376-29.199-33.067-84.089,125.54-40.364,50.243,30.683,115.347,31.901,22.22-.982,24.864,2.335,31.422,21.508,16.077,19.847,33.958,18.004,41.573,47.571,9.097,18.337,35.049-12.544,42.796,18.387,20.13,13.78,67.036-12.77,7.723-17.255-21.535-4.93-17.317-30.242-36.643-45.167-13.346-14.56-7.321,1.696-32.279-1.644-13.391,1.453-60.981-90.15-16.549-44.852,73.679,42.085,79.38,11.921,11.586-34.929-18.972-21.674,1.415-29.167-32.818-38.505-20.273-30.86-25.306-7.361-46.076-18.109-14.883-24.166,47.482-31.247,57.234-6.892,15.123,35.311,12.383,29.67,31.583,2.187,13.028,17.506-16.042,47.905,36.553,81.961,28.276,22.452,28.263-40.268,60.316-53.319,47.644-22.074,28.774-72.003,75.617-80.378,15.877-6.118-22.169-64.513-3.73-79.022,4.117-34.208-104.481-73.492-68.912-106.701,10.579-23.967-3.78-37.151-17.958-1.95-8.712,7.513-20.566-17.484-16.616-32.386-1.419-19.542-29.093-9.79-19.27-37.662,5.387-15.676,42.624,13.316,56.011-7.643,47.886-41.55,27.592-63.96-31.693-60.831-18.817-14.187,55.074-19.674,31.835-53.948-11.589-48.345-61.172,23.953-61.764-11.077-2.105-15.547-15.237-27.492-35.136-23.166-14.558-3.461-27.458-4.241-26.653-11.641,2.422-11.928,58.018,13.738,23.762-15.512-23.596-11.899,68.886-8.862,7.482-21.025-45.972,10.977-90.744,.185-130.526-11.701-29.94-4.387-35.673,41.311-54.665,7.157-16.394-16.821-10.497,24.496-4.945,27.54,7.601,7.275-12.639,60.009,6.198,62.439,6.744-2.381,5.201,11.804,7.099,18.249,14.76,6.576,19.939,9.032,18.415,27.597,11.444,6.972,31.72-27.676,36.249,7.053,.985,8.842-11.95,2.441-11.739,12.446,.141,10.623-4.015,7.051-9.754,12.043-13.035,6.56,60.197,34.921,5.658,25.574-86.195-4.813-2.616,75.729-58.225,188.956-25.825,37.934-12.842-44.932-11.607-66.147-11.063-51.168-54.555-35.819-40.047,9.995,5.508,26.404-25.974,19.196,11.627,54.294,36.984,7.988,59.681,96.412,9.789,59.106-14.963-11.625-8.095,2.851-4.84,20.675,3.255,17.824-3.334,12.741-16.062,16.346-3.325,28.919-19.4,60.991-21.529-11.078-9.051-43.189-54.359-33.559-69.799-74.362-19.599-48.028-25.23-137.821,12.985-36.013,38.265,.029-5.12-78.749,.232-115.399-20.251-80.561-30.562-26.187-62.108-91.613-32.341-58.729-88.301,39.632-55.384,79.44,10.989,24.292-7.62,22.268-18.684,40.408-5.775,34.895-18.284,91.567-30.525,17.89-18.416-32.102-13.151-40.477-10.058-80.335-12.441-36.879-21.882-54.83-53.657-61.985-7.7-21.756,49.335-10.75,52.262-44.862,12.501-35.85-66.262,29.366-40.251-23.713-11.376-34.527-41.017,43.571-67.905,9.452-33.721-13.436-100.444-11.263-29.107-48.715,34.701-26.293,44.018-39.5-7.416-51.328-17.327-13.75,10.52-25.071,25.692-15.31,124.968,59.718-79.334-96.904-50.86-147.163,13.726-59.19-48.619-87.81-48.225-135.653-17.577-20.359-64.856,49.615-74.025-11.81-13.291-15.157,27.344-.753,26.655-18.3-.689-17.545-15.333-2.293-28.951-14.38-14.193-12.774,33.196-.757,52.003-.583,18.743,.791-.622-18.163,5.509-38.708,34.737-35.636,16.232-79.411-18.15-101.806,27.239-30.488,141.05,61.587,146.315-43.997,12.924-51.074,26.648-102.31,70.759-137.041,14.137-44.531-82.016-58.128-113.716-34.823-21.655,2.003-9.241-16.611-24.487-37.612-20.654-22.465-55.385,5.579-78.436,10.809-21.245-1.685-26.043-5.327-45.753,8.75-40.484,21.246,64.85,65.56-1.746,57.844-80.791-38.619-11.244,138.278-29.982,173.917,19.857,45.396,42.736,84.459,20.378,135.131,36.298,88.729-105.554,53.586-8.448,119.496,25.747,47.792-46.663-4.627-55.61,3.933-16.847,5.659-12.454,12.999-12.532,43.564-1.067,46.809-31.056,50.612,3.715,85.259,30.319,7.847,66.131,34.58,8.581,16.548-23.611,2.964-25.281,94.95-1.623,116.477,1.339,27.083,47.492,22.195,55.474,50.97,28.922,19.407,39.862-14.081,64.048,31.936,25.384,19.603,36.265-5.837,62.9,18.681,14.635,14.694-12.644,26.704-28.847,32.427-23.524,10.117,10.075-71.482-29.74-25.076-12.312,11.768-4.44,16.99,4.791,33.592,3.536,17.557-45.602,56.912-8.242,75.845,12.089,8.184,20.822-6.467,21.915-34.425,13.275-72.568,35.529,62.824,20.895,76.522-88.363,27.117-23.82,99.833-105.945,72.717-29.227-7.493-18.548,41.66-30.539,59.678,14.292,54.986,48.47,81.419,32.275,145.155-4.269,23.229-63.181,9.671-62.08-14.236-14.752-28.811,67.413,47.522,43.877-33.3-7.943-16.457-10.224,4.51-19.181-2.704,3.633-46.17,7.987-29.977-26.677-5.388-26.784-2.449,39.917-47.732-17.431-36.843-29.708-2.234,20.26-28.782,10.81-45.62-1.594-15.15,8.767-20.886,9.764-41.992,.423-21.794,2.051-12.879,14.399-30.879,17.714-44.486-50.487-32.991-36.204,16.653-4.798,20.065-23.319-.667-23.874-19.445-.488-19.394,25.113-15.986,15.882-32.589-9.232-16.602-28.081,19.406-26.846,2.071,5.606-21.28-27.754-35.09-42.103-30.78-28.201-26.285-30.738-12.504-32.624,19.54-17.623,7.487-42.206-57.818-43.818,2.711,16.958,32.477,22.425,74.78,76.106,64.435,66.609,27.021-5.212,112.643-30.685,25.359-12.321-19.783-24.182-58.8-56.039-39.781-24.173,6.465,32.239,72.641-35.891,37.269-50.251-8.658-74.501-70.351-109.694-.062-53.715,21.214-153.496-21.995-162.742-85.709-9.432-33.609-46.592,18.406-76.376,9.762-33.744-9.661,29.555-62.777-39.517-48.578-18.438-84.768-101.586,10.777-97.403-65.5,3.171-29.823,67.011,13.636,80.582-.594,24.792-67.837-64.963-99.008-122.745-41.428-54.065,8.369-97.16,17.222-126.296,56.763-11.019,23.752,16.148,6.74,25.142,19.576,9.058,12.213,8.32,18.998,24.056,17.59,33.884-6.443-7.951-75.691,52.093-19.288,18.148,18.192,21.145,8.534,37.103-12.814,15.956-21.35,43.852,26.608,20.52,32.183-42.916,24.381-38.128,16.871-94.128,29.686-41.66,4.012-55.141,52.529-8.301,58.374,22.746,16.084-18.923,63.304,32.351,102.713-.172,60.123-55.424-51.864-45.442,65.581-17.495,49.964-48.404-56.492-48.4-74.525,2.622-24.048,28.029-6.935,44.226-24.514,15.62-18.267-15.849-15.453-27.783-31.101-11.866-16.266,3.421-31.448-13.567-36.417-50.972,29.726-30.798-13.449-27.983-41.105-8.667-15.915-24.622,5.435-39.565-12.412-15.511-18.536,3.564-20.827-18.575-50.064-143.88,24.133-219.495,46.408-360.27-72.278-8.54-48.393,46.861,3.209,57.362-49.895-3.265-35.527,108.73,79.78,42.71-16.574-7.02-48.812,6.493-58.574-46.777-89.302-15.78-27.934-7.439-27.027-45.64-39.918-38.269-12.271-14.97,30.193-43.29,4.027-28.317-26.166-38.814-19.195-76.528-54.496-45.917-75.463-37.058-51.481-111.948-105.13-10.784-49.831-100.921-216.967-146.505-109.533-26.733,47.699-56.657,33.815-96.051,5.765-15.879-25.5,80.343-24.829,22.896-49.295-24.016-11.969-6.892-8.235,1.098-27.958,32.709-38.201,61.327-24.997,10.668-74.332-8.613-22.154-36.553,7.877-16.68,28.132,19.872,20.256-17.009,13.125-30.887,15.358-13.946,2.851,6.53,17.557,12.017,38.743,5.485,21.186-12.29,5.528-26.145-10.329-13.927-15.244,2.258,38.928-17.089,43.688-19.28,4.142-21.53,18.87-36.154,16.034-13.916-3.385-11.501-25.585-11.145-46.761,1.064-21.722-29.095-25.002-25.732-43.978,19.776-41.092,40.471-267.711-38.434-160.178-9.043,18.81,79.434,86.912-10.425,48.175-23.462-5.053-19.058,14.144-28.77,31.805-42.003,41.997-95.836,.985-21.753-26.687-19.433-1.435-133.039-8.544-146.639,28.964-11.985,20.531-40.966,12.388-44.729-6.742,19.623-46.54-34.079-24.216-49.405-5.368-21.697,16.416-45.908-4.097-69.157,3.075-16.207,5.73,4.47,18.586,13.806,40.191,9.977,21.672-16.943,12.505-30.839-8.971-13.895-21.478-30.286,9.81-47.178-2.012-16.25-11.75,4.647-18.836,18.65-34.161,23.653-18.248,50.504-29.549,78.526-17.667,35.864-16.357,76.391-37.947,118.708,1.078,16.144,6.732,17.659-1.214,40.51-14.327,36.822-22.717,127.081,22.422,98.425-57.304-6.907-31.947-31.488,20.908-49.32,17.72-20.822-11.514-6.963-50.439-41.384-7.614-10.955,11.281-26.078,18.993-24.44-2.039-3.445-34.804-102.656,11.512-125.975-11.856-22.046-6.119-9.035,11.518-23.378,18.068-31.696,19.324-126.216,6.059-36.212-25.145-16.037-20.622,12.491-46.549-25.549-57.691-21.854-7.993-2.817,25.897-10.066,38.835-7.252,12.94-13.647-5.852-29.832-18.22-30.185-12.916-23.743,70.409-51.952,6.203-25.334,47.172-7.799,7.687-44.451,2.647-19.213,3.533,11.531,19.356,13.097,40.741,.93,21.316-12.162-7.564-29.964-16.986-31.7,2.297,49.786,51.933,17.705,81.778-27.068,20.152-15.133-65.548-52.767-81.84-48.084-44.108-60.727-70.484-75.824-132.43-36.519-40.952,40.534-37.505,5.38-67.418-18.927-17.031-34.751,3.085-46.393-33.122-11.644-36.206-28.863-33.088-46.598-43.128-.222-.124-.413-.33-.632-.463l-1017.917,1288.032c2.401,7.749,10.655,27.365,25.96,35.894,12.297,6.329,17.198,14.972,22.102,23.619,4.395,7.34,8.149,14.611,18.993,16.414,8.915,1.595,18.875-.439,28.192-2.545,4.626-.745,9.32-2.108,13.238-2.305,14.45-1.55,25.158,1.488,27.063,19.793,1.971,17.684-8.019,25.954-18.717,34.775-7.795,6.014-14.95,12.101-14.674,21.49,1.129,19.464,6.722,45.653,11.194,64.234,1.76,7.679,3.081,13.439,3.828,18.511,.308,3.151,2.912,9.053,5.383,16.184,7.039,18.858,17.187,44.922,9.574,67.179-2.021,6.642-4.753,13.833-7.482,21.022-7.145,17.943-13.515,34.72-9.225,37.06,3.717,1.65,12.394-.525,21.07-2.701,15.935-3.258,33.223-6.993,48.527,1.536,6.791,3.233,13.275,3.315,20.025,.93,10.097-3.27,19.444-11.612,26.022-18.384,7.425-8.549,19.27-15.997,33.723-17.544,11.177-1.281,23.878,1.349,37.255,9.667,8.515,5.294,18.514,8.878,27.228,12.321,22.428,8.679,41.784,15.775,41.162,39.419-.261,14.324-9.611,22.664-18.382,31.694-9.416,8.958-18.761,17.3-8.114,32.808,6.121,9.4,12.438,16.953,18.253,23.2,16.798,18.674,25.99,29.658,8.281,55.183-8.401,11.565-12.308,23.618-14.799,34.578-1.984,12.263-1.707,21.654,.726,23.167,5.371,4.327,12.035,20.65,14.247,42.103,1.665,14.533,1.647,32.626-1.582,50.368-5.519,26.854-4.381,58.174-2.773,85.18,.516,13.158,.458,25.63,.669,35.635-.363,9.319,1.127,19.466,1.98,29.541,3.666,25.981,6.759,51.275-12.31,65.424-8.505,6.56-6.849,9.237-4.043,13.285,3.312,5.353,6.493,11.937,6.768,21.328,.586,12.54-9.403,20.815-17.401,28.679-2.834,2.188-5.737,4.994-7.222,6.704-.777,1.164-.844,1.777-.268,2.465l3.007,2.198c4.224,2.956,5.44,3.711,7.164,5.77,.506,1.306,1.082,1.991,1.589,3.293,1.658,2.677,4.26,8.576,17.85,26.901,12.371,17.567,17.006,28.678,21.133,38.484,4.638,11.114,8.188,20.234,26.603,35.964l2.366,2.129c13.111,10.787,17.841,15.045,20.647,19.092,1.591,3.293,1.323,5.76,1.628,8.913-.335,3.083-.805,7.4,3.12,19.06,9.681,30.376,5.293,34.89-8.438,47.748-2.97,3.42-6.583,6.769-11.036,11.901-2.97,3.42-6.005,7.46-9.615,10.807-12.588,14.231-20.008,22.783-21.953,40.664-1.744,16.034-3.229,17.744-5.623,21.851-1.485,1.712-3.035,4.036-5.901,12.462l.643,.07c-3.154,10.197-8.766,18.126-14.464,24.081,5.179,1.134,10.84,2.234,17.411,2.948,30.158,3.28-24.431,21.679-49.121,15.871-25.331-5.873-17.346,16.21-14.128,28.411,15.343,45.017-18.134,6.065-23.529-4.436-10.478,.737-1.853,22.89,2.008,35.165,4.649,32.064-21.89,23.961-16.38-22.373-1.843-23.698-42.057,32.975-23.939,34.828,22.634,11.357-17.151,26.532,8.086,45.183,9.052,12.219,17.511-11.819,31.35-19.674,13.906-8.469,11.156,16.814-2.348,21.584-13.571,5.388-5.565,9.377,.995,20.698,6.545,41.493-19.791,14.337-20.018-12.79-15.189-12.752-13.55,27.809-17.918,39.234-5.259,12.533-5.747-6.861-17.133-15.585-11.389-8.729-4.395-7.345,5.959-24.937,11.061-18.138-2.337-8.363-20.476-14.706-44.131-28.563-59.731,54.617-20.484,15.25-3.547,19.663,59.085,43.055,22.812,64.867-15.049,6.84,5.998-46.601-23.394-23.755-7.592,4.162,4.207,21.044-3.322,24.593-11.811-8.602-10.411-43.277-23.806-1.961-9.259,14.79,27.671,44.911,18.514,74.389,24.962,74.673,42.047-29.977,14.511-55.82,3.523-27.776,37.99,8.058,22.751,35.533,15.412,106.645,13.384-8.908,52,29.377,11.798-31.49,20.284-10.24,37.825-1.496,50.798-9.093-42.768-68.532,25.056-45.334,12.738,8.255,14.214-5.313,27.989-12.549,44.211,3.736-37.06,41.439-33.433,50.639-14.707,25.373,102.136,53.193,38.409,52.859-9.973-9.829-12.703-2.636-28.369-1.844-14.41,4.921-6.488-63.167-31.525-14.662,11.368,21.392,15.288,78.404-1.881,17.271-4.61-28.551-65.243-24.542-16.458,8.184,12.648,21.349-17.624,36.888-27.115-7.318-13.967-9.001-6.697,1.772-21.11,8.94-31.049,19.433,47.438,11.61,12.208,25.039-22.894-3.745,.347,33.515-20.915,37.03-9.006,5.259,1.645-21.034-12.881-30.725-17.409-11.962-10.438,61.213,1.6,68.804,15.551,11.041,20.752-42.77,40.324-54.252,45.786-27.67-63.337,93.206,1.532,69.412,9.939-18.837,29.911-82.668,53.753-88.375,2.456,30.047-37.69,40.312,13.443,67.601,11.449,19.973-16.81,23.136-33.934,19.404-16.483-3.666,12.815-22.317-5.66-25.573-17.458,2.449-39.864,64.945-15.087,66.988,19.261-8.133,23.678-32.304,30.231,2.674,10.613,9.882,8.719,3.437-3.668,15.816-17.411,20.616,42.952-.475,51.273,18.057,10.856,13.656-14.168,10.934-33.087,5.758-23.133-7.909-39.093,35.46-48.048,6.006,6.001-23.089-16.013-36.179-12.904-.78,2.954,14.671-.667,6.166-7.99,7.864-27.474,10.678,2.07,67.811,12.174,19.419,14.555-25.207,3.818,8.938,33.013-5.147,44.35,15.778-3.456,19.158-19.735,20.3-54.999,102.341,5.536,33.608,47.597,63.827,12.676,20.742-19.319-1.458-36.168,4.197-17.487,5.583-16.03,10.112-30.827,2.884-32.987-.003,13.551,28.731,30.725,33.903,11.396,27.445-40.321-6.511-52.854-9.483-41.636,14.527,100.519,57.628,56.581,76.661-17.221,7.781-45.521-66.428-46.546-13.793,5.582,26.214,72.006,56.848,95.258,43.44,12.055-9.307,21.83,14.217,12.49,34.415-9.405,20.815-11.855-4.409-28.003-11.157-16.788-6.819-13.8,13.472-2.482,22.816,44.151,8.741,82.644,12.608,17.013,40.542,5.696,20.761,41.509,4.87,49.215,30.936,8.756-2.8,15.663-24.512,25.836-16.54,10.236,7.353-19.673,19.698-9.333,32.053,9.768,11.67,9.283-7.726,21.951,1.139,12.671,8.866,8.589,16.535,16.828,12.438,8.235-4.097,21.426-23.873,36.124-9.798,15.299,17.155-60.73,14.298-18.427,44.168,8.648,15.913,28.041-13.174,41.249-9.24,13.273,3.315-5.096,5.062-20.658,10.857-18.512,7.086,23.529,52.098-26.315,38.94-16.038-1.744-7.928,7.249-.926,20.49,7,13.24,6.426,12.555-6.81,14.858-26.712,12.542,11.711,63.654,20.253,88.306,24.717,31.836-1.127-55.893-.856-63.727,3.339-12.747,17.368,7.497,24.264,15.737,13.88,12.676,30.716-65.006,55.062-22.702,7.505,14.53-18.776,5.432-25.852,22.757-4.162,23.816,62.861,48.4,.376,56.196-27.298,9.052,24.36-69.65-25.653-32.737-22.047,20.172,34.815,54.228,44.019,72.797,29.063-8.526,57.797-54.996,25.82,25.27-3.153,28.982-16.971,18.743-19.892,39.638-3.564,20.827,11.281,3.724,25.569,9.646,6.218,2.548,9.528,7.899,12.134,13.801,127.076,49.385,1097.47,415.745,1785.556,512.43,690.077,96.278,1293.551,123.237,1368.588,125.783l3.603-57.008,.433-9.937,10.065,2.966,44.486,14.823s23.552,16.289,19.019,51.983c-.671,6.166-1.848,11.029-2.318,15.348-3.094,16.508-3.765,22.674,5.561,32.422,6.319,7.554,9.597,7.285,14.794,7.228,4.56-.129,11.11-.665,19.96,1.546,14.556,3.457,17.497,6.269,20.945,10.389,1.723,2.059,4.73,4.259,12.669,8.866,9.29,4.13,13.849,4.003,19.116,3.328,6.553-.535,12.461-1.141,22.259,4.293,5.507,3.096,13.877-2.235,20.964-7.704,6.312-4.302,11.912-8.061,18.602-9.83,14.651-3.397,29.515,3.211,40.662,8.168,2.431,1.513,4.289,2.338,5.572,2.477,1.86,.825,5.001,1.792,8.783,2.825,13.916,3.387,33.473,8.634,45.846,26.201,4.46,6.727,7.774,12.078,9.94,16.056,4.902,8.644,7.642,13.312,12.773,13.87,1.992-.409,4.187-2.666,6.38-4.924,8.706-8.412,18.121-17.37,38.155-4.583,12.806,7.63,16.759,13.053,20.14,17.791,2.233,3.36,4.532,6.105,16.319,11.132,11.788,5.025,19.863,8.4,26.279,9.098,4.49,.488,7.835-.396,11.512-4.362,2.836-2.188,4.453-5.132,6.78-8.624,7.894-12.866,15.653-24.503,39.804-13.763,11.788,5.025,17.67,10.656,22.4,14.915,2.94,2.816,5.306,4.945,11.281,3.724,5.336-1.293,8.307-4.715,11.207-7.517,7.93-7.25,15.154-13.952,36.633-8.494,15.773,4.212,18.713,7.027,21.653,9.841,1.082,1.991,2.87,3.434,17.363,7.505,17.63,5.037,36.947,6.513,50.624,6.132,16.398-19.431,33.755-65.588,40.803-76.673,7.826-12.253,3.833-23.294,27.508-20.096,23.608,3.816-4.571,30.076,7.594,37.637,11.586,6.879,15.926-15.112,19.566-24.698,3.641-9.588-5.353-22.42-.602-36.255,5.327-13.145,10.518-25.061,18.687-28.541,8.1-2.859,16.719,7.435,19.497,17.721,3.417,10.354-9.347,8.34-18.225,12.368-8.88,4.025-12.301,35.475-3.481,43.92,9.461,8.517,13.427-16.009,13.15-25.396,.433-9.937,13.199-7.925,24.339-14.824,11.138-6.901,5.931-18.698,23.964-17.362,18.033,1.338,26.739-7.073,26.221-20.231,.127-13.09-15.505-6.678-32.992-1.094-18.13,5.518-21.502,12.636-32.007,7.751-10.574-4.268,3.354-30.834,26.587-29.555,22.659,.596,37.349,2.819,56.063,9.843,19.354,7.098,33.004,12.949,48.444,20.245,16.079,7.363,17.957-9.902,37.408-9.658,19.516-.374,18.308,10.727,31.202-.351,12.248-11.144,30.156,3.28,38.211,24.746,8.054,21.468,33.614,61.063,40.376,70.532,6.692,10.087,15.11,22.233,45.411,36.136,30.232,14.521,74.845-25.552,91.06-19.42,16.923,5.584,5.42,21.804-.673,47.97-6.666,25.48,11.501,25.585,26.735,34.73,15.88,9.213,29.631,20.068,30.254,38.23,.622,18.163-12.077,15.533-16.83,29.366-4.682,13.218,6.599,16.941,21.33,24.783,14.797,7.226,17.383-10.59,29.612-3.641,12.23,6.944-3.641,9.586-12.213,16.764-8.572,7.178,1.427,10.763,13.254,21.408,11.894,10.028-17.145,14.356-16.427,25.665,.786,10.693,11.963,9.416,25.773,7.797,13.879-2.235,15.354-15.799,33.894-13.16,18.542,2.64,6.026,16.254,14.478,34.02,0,0-.095,6.854,1.802,13.298,1.962,5.83-.537,4.933,9.327,9.75,9.798,5.434,9.502,14.137,24.123,16.976,14.05,2.151-2.815-15.907,7.886-24.727,10.055-8.888,24.544-4.816,44.77-5.735,20.938-1.465,33.397-2.607,49.977-5.796,16.576-3.186,27.963,5.538,47.213,7.632,19.25,2.094,17.855-14.902,34.095-15.009,16.245-.104,27.498,9.854,47.416,5.783,20.497-3.387,27.986-12.556,37.82-1.502,10.479,11.122-3.354,30.832-5.644,39.942-2.864,8.424-10.333-.501-21.855-7.991-10.811-8.041-9.28,7.724-20.552,15.857-11.207,7.515-4.194-9.192-17.64-16.892-14.02-8.39-26.455,28.319-34.461,24.328-8.006-3.993-13.684-11.473-22.736-11.832-9.759,.187-20.658,10.857-30.149,8.576-9.423-2.899-19.384-.86-36.068-2.675-16.041-1.745-21.44,.162-31.812-5.957-10.439-5.506-16.677,10.039-15.891,20.734,.787,10.691,33.876,4.931,43.059,4.059,9.826-.803,23.101,2.513,40.464,10.016,17.362,7.505,28.292-9.401,38.728-3.898,11.082,5.573,26.312,2.862,52.147,10.04,25.909,6.561,28.472,6.84,41.719,16.394,12.535,10.097,22.583-10.645,31.757-23.376,9.246-13.346,6.468-23.631-3.607-38.451-10.65-15.511-1.004-32.554,25.946-29.623,27.591,3.001,57.405-2.492,76.589,.22,19.826,2.78,17.268,14.355,31.63,31.515,15.007,17.231,8.35,12.766,23.79,20.057,15.435,7.297,14.947,29.705,32.846,32.275,17.258,2.502,12.749-21.697,22.995-2.49,10.888,19.279,2.968,38.384,14.457,52.112,11.494,13.729,29.213,.056,45.742,21.197,16.46,21.757-11.168,13.135-31.845,.281-20.609-13.474-18.861,24.152-.786,31.111,18.07,6.957,21.057,27.248,14.113,43.339-7.013,16.707-27.084-1.698-47.484-5.165-20.466-2.849-15.428,4.559-28.981-8.143-14.258-12.16-10.715-14.892-21.526-22.933-11.522-7.493-8.736,14.648-18.62,27.923-9.817,12.661-6.558-11.318-7.479-20.78-.345-8.771-8.177-8.375-16.541,8.81-7.786,17.871-14.622-2.839-4.231-14.81,11.101-12.522,10.689-20.675-.699-29.401-12.028-8.796-11.274,8.133-30.695,1.65-18.847-5.793-2.242-15.215-9.653-36.612-6.768-21.326-7.804-5.842-19.009,1.675-11.138,6.899-22.669-12.448-36.173-7.677-13.571,5.388,2.346,20.221,17.277,26.211,14.353,5.306,33.929,34.264,43.295,49.633,9.299,15.987,7.42,33.254-15.183,61.992-23.313,29.284,1.747,79.43-5.266,96.137-7.009,16.707,2.586,23.992,11.589,48.679,9.71,24.144,16.872,29.914-4.783,61.875-21.722,32.579-61.452,57.582-63.971,74.778-3.162,17.126,2.556,30.226-2.128,43.444-5.394,13.763-15.556,17.651-11.459,33.693,4.099,16.046,26.55,6.633,31.796,24.05,4.675,16.732-19.844,15.313-44.363,13.894-25.224-.875-18.329,7.363-26.355,21.465-8.602,13.414-7.242,24.795-.349,33.03,6.962,7.62,25.333,5.875,43.021-1.557,17.624-6.821,21.549,4.838,31.778,.335,9.588-4.573,1.302-17.951,11.591-34.929,10.286-16.974,12.553-7.991,38.788-16.37,25.657-9.063,21.644-2.011,24.671-17.906,3.736-16.44,24.348-44.772,34.097-56.815,9.749-12.039,15.22-14.564,38.992-18.217,23.06-3.108,25.082-9.753,58.689-2.352,33.672,6.782,71.894,1.579,86.145,1.883,14.961-.246-8.388-18.382-25.035-14.579-16.712,4.424-18.847-5.793-16.155-18.604,3.4-13.357,18.87-12.297,55.635-22.023,37.477-10.276,71.401-29.671,81.667-28.555,10.268,1.117,35.775-3.887,43.844-17.147,6.711-11.027,7.38-19.222,3.775-24.574-2.443-3.627-6.354-9.142-14.998-14.124-8.644-4.982-8.019-14.099-19.37-21.213-12.422-7.785-50.301,23.736-73.162,24.994-22.287,1.944-13.166-40.116,.527-58.593,14.272-17.789,20.718-23.329,30.766-44.073,10.113-21.361,25.074-21.605,55.357-31.414,30.283-9.81,117.619-42.735,123.548-61.435,6.641-19.244,71.262-26.513,87.534-32.851,16.271-6.345,8.695,21.535-9.541,22.044-18.234,.513-61.647,15.707-51.57,30.528,10.65,15.508,13.467-10.389,27.345-12.624,13.809-1.618,9.03,18.454,27.906,18.011,18.875-.443,27.986-12.556,23.925-22.98-4.057-10.426-14.862-6.605-3.829-18.509,10.393-11.973-3.227-24.062,14.024-33.414,17.18-8.739,49.82-12.855,59.61-32.465,9.805-19.639,52.906-58.87,56.323-48.516,2.836-2.188,5.031-4.446,7.156-6.086,4.388-4.514,5.059-10.68,6.368-16.777,1.378-6.712,10.612-20.283,15.402-28.498,6.541-12.39,18.859,1.93,25.813-2.305,3.476-2.116,3.364-7.764,6.262-10.566,2.97-3.422,12.818-6.683,16.697-12.499,7.624-10.403,18.56-32.018,27.639-37.893,5.605-3.758,55.437-26.37,133.491-51.571,106.921-33.918,233.321-73.828,241.935-75.386,1.279,.139,.671-6.166-.958-15.079-1.256-6.376-3.019-14.053-3.363-22.829-.523-25.012,17.27-27.447,34.423-29.947,3.916-.197,7.194-.466,9.893-1.42,7.395-2.315,12.526-1.757,15.736-1.408l.842-1.78c2.253-14.728,5.729-16.846,14.003-15.323l3.206,.349-.067,.618,5.778,.629c.067-.618-.509-1.304-1.015-2.607-1.016-2.605-3.248-5.97-7.471-8.923-11.519-7.492-11.357-14.964-6.058-21.874,1.617-2.944,4.45-5.13,7.219-6.702l3.544-2.734c.844-1.782,2.528-5.339,4.281-9.516,3.44-7.739,7.721-17.255,13.994-27.18,4.654-6.979,3.437-7.737,1.006-9.25-1.858-.825-3.648-2.268-6.014-4.399-10.812-8.038-7.948-16.461-5.018-25.501,1.753-4.177,2.864-8.424,2.052-12.881-.814-4.457-2.404-7.747-3.995-11.042-3.685-7.886-6.798-15.089-4.612-29.202,.738-6.782,2.558-11.577,4.311-15.755,2.153-7.876,4.041-13.285-1.476-28.237-7.412-21.396,7.609-75.915,16.702-111.739,3.974-12.669,6.463-23.631,7.576-27.878l.134-1.234c.537-4.933,1.006-9.25,2.116-13.495,4.207-20.757,11.551-40.547,33.811-36.255,13.34,2.699,17.164,9.352,21.556,16.695,3.248,5.97,7.136,12.007,19.768,15.252,11.991,3.178,23.293-11.193,33.11-23.85,8.33-10.95,15.891-20.734,26.492-22.701,19.921-4.072,38.5,4.188,59.512,13.961l4.358,1.722-.643-.07c12.366,5.713,21.251,13.542,27.371,22.941,6.759,9.471,10.888,19.281,14.88,30.323,2.538,6.513,8.253,19.616,15.052,34.703,13.666,29.566,31.086,66.4,31.974,82.097,.717,11.308,4.337,19.813,8.024,27.701,3.178,6.585,5.783,12.482,6.262,20.024,1.122,7.607,4.261,8.572,14.261,12.156,2.498,.897,4.931,2.41,8.07,3.374,6.86,2.62,13.342,2.7,19.252,2.094,9.759-.187,18.234-.513,26.854,9.783,6.32,7.55,6.865,14.476,8.054,21.465,.613,6.306,1.226,12.614,7.478,20.78,6.319,7.552,21.586,10.461,35.129,11.309-.442-1.919-.174-4.385,.738-6.782,4.508-17.604,21.336-5.167,34.609-1.849,13.275,3.313,15.25-20.804,28.727-19.338,13.474,1.466,13.809-1.618,31.498-9.052,18.264-6.749-4.948-26.121-2.735-46.469,20.224-36.935,33.752,56.818,61.609-11.4,29.278-40.396,57.379-82.414,81.575-117.155,1.718-17.755-30.336-76.225,10.866-28.148,115.325-34.914-60.671,68.437,2.698,94.518,13.573,6.463,15.079-13.339,26.82-25.789,24.1-23.366,38.007-9.958,68.19-30.025,20.766-5.845,18.466-8.592,40.707-28.01,48.663-26.501,16.097,32.929-9.738,35.742-27.344,9.362-17.12,33.741-24.938,50.336-71.37,43.236-9.432-119.2-90.58,38.809-47.471,54.846-46.996,43.83-48.016,113.33-16.511,56.958-22.913-89.642-60.328,58.954-.692,26.157,58.367-66.461,30.08,33.839,.419,35.434,20.524,37.162,33.038,72.237,15.662,17.291,6.49-11.781,25.902-17.16,41.297-11.493,35.222,64.215,71.835,14.052,15.621-23.919-27.432-49.008,31.248-48.378,13.965-9.096-3.842-18.518,6.887-33.575,11.438-15.602,21.598-19.49,14.494-37.733-6.532-17.555,.661-18.021,15.745-31.355,36.758-27.953-38.708-30.19-.953-56.881,27.932-11.559-1.541-43.419,34.176-45.575,19.036-4.238,31.432,72.316,36.778,2.126,3.331-12.739,27.605-15.088,30.825-44.688,3.152-28.98,7.83-12.25,37.94-26.444,51.929-27.06,36.236-55.577,74.531-82.367,20.018-10.923,17.655-13.053,23.009-32.437,1.752-23.315,91.378-48.033,61.913-73.754-23.332-8.738-63.936,60.407-37.726-5.353-22.665-29.907,43.199-30.296,37.329-62.699,14.772-13.581,30.082,36.081,42.546-9.106,22.277-12.036,26.052-55.274,32.617-73.193,16.493-14.125,8.593-61.64-20.79-53.419ZM-3749.953-3697.195c-21.415,12.735-196.251,46.478-90.451-4.251,25.466-24.978,147.778-32.468,98.768-84.06-10.284-12.98-24.355,2.959-47.581,13.536-22.583,10.647-6.414-.698-36.066-2.675-39.183-1.381-28.599,104.016-90.167,46.958-26.82-16.008-37.327-20.896-58.749-38.822-24.087-39.199,75.598,11.613,51.206-53.081-2.501-24.605,10.168-15.74,25.194-16.602,14.386-.932,32.927,1.71,49.496-13.334,28.333-20.129-68.824-38.999-6.793-56.895,31.036-1.121,46.254,55.543,84.093,56.56,51.518-.028-7.8-50.978-24.701-71.314-60.817-13.659-46.194-52.076-94.221-5.252-11.212-18.824-42.685-21.779-60.587-34.035-25.167-22.848-48.346,2.34-75.104-13.798-7.106-103.214,198.583,26.147,264.182-17.443,41.519-12.18,228.579,2.304,183.393,51.137-18.897,13.508-45.284-14.291-73.918,5.095-86.283,26.286,53.404,86.805,93.964,85.063,30.763,5.533,33.447-69.018,73.231-34.442-30.544,55.966-13.561,7.214,.828,58.11-9.671,35.407-80.357,14.541-67.538,65.66,2.479,18.983,2.652,23.37-13.42,27.863-73.198,39.554-23.763-70.577-120.972-51.837-86.873,20.956,98.167,68.577-64.088,87.858Zm378.675,792.413c-96.946-27.768-63.655-2.26-111.421,51.541-43.387-7.204-80.485-17.389-130.369-7.338-40.752,7.138-84.765-6.766-90.23-47.878-8.967-19.067-20.958-22.242-47.64-27.641-42.896-12.832-9.554-51.123,21.688-26.329,93.911-47.149,19.194,105.938,132.166-51.155,13.333-21.006,54.923,8.475,74.48,13.722,20.131,5.935,.576-41.116-1.797-55.103-15.889-13.429-33.843-37.312-6.139-56.817,2.877-14.667-12.522-16.342-28.563-18.087-23.03-1.67-48.003-80.654-8.705-75.194,20.267,4.7,12.711,14.483,21.607,34.17,16.14,23.14,35.273,26.172,41.268,56.28,78.036,16.084,18.601,26.806,72.49,67.788,49.652,134.9,196.878-51.576,286.719-15.617,80.622-6.97,7.411-47.263-58.687-9.483-49.678-3.343,29.174-45.361,54.231-39.035,36.604-4.741,195.553,45.704,112.25,78.33-16.616,9.431-9.538-7.892-19.343-25.182-13.362-18.018-41.665-37.473-51.635-8.737,27.81,30.347,22.97,43.869-25.931,23.385-13.907-3.383-7.818,12.253-5.748,23.085-1.907,22.674-37.583-16.391-50.087-11.062-31.79,7.288-68.657,78.613-99.887,94.577-42.417,7.223-42.244,14.976-80.716,31.779Zm484.622,498.83c-29.733-3.533-92.708-15.925-122.405-32.649-44.88,18.566-86.953,11.439-141.184,2.729-154.547-16.006-103.921,69.297-160.803,51.782-55.295,28.714-31.091,9.604-54.362-31.513,14.039-12.565,44.512,4.201,56.127-32.586,22.114-19.572,104.965-39.976,118.993-61.306,14.343-23.296,43.919-9.833,60.011,3.436,16.956-.668,12.302,6.313,4.44,12.944-7.224,6.704,2.949,14.673,16.863,18.058,48.146-11.291,99.639,11.269,141.189,39.064,13.642,12.126,85.56,3.404,81.132,30.043Zm133.773,1008.487c-7.248,9.861-44.316,4.827-39.889-9.329,5.298-19.436,83.523-22.472,39.889,9.329Zm269.248-714.448c3.934,31.36-104.486,52.79-58.787,74.715,28.995,14.767-23.758,27.972,2.554,48.321,11.688,11.88-9.62,10.811-21.297,22.644-10.851,36.806-48.44,69.307-87.942,80.282-71.333,29.538-38.802-20.54-26.344-62.146,23.272-23.972,8.646,48.075,31.251,28.981,74.226-36.516,14.504-48.726,39.189-91.823,10.369-17.588-13.296-8.932-30.763-21.437-19.509-17.958,34.412-25.504,29.83-53.538,21.87-25.24,59.246-40.027,62.772-75.524,5.39-13.77,15.128,4.138,25.473,16.494,14.312,11.405-37.169,49.866,16.199,24.224,4.305-6.488,25.336-9.425,17.867,8.806Zm295.44,578.706c22.875-20.653,55.082-32.113,88.819-34.641,12.716-1.735,49.329-33.283,50.281-2.635-7.587,7.665-32.687,14.859-45.005,13.818-12.043,3.792-18.73,24.062-36.664,14.723-9.595,8.029-63.681,39.866-57.431,8.735Zm158.498,703.572c-35.386-60.151-17.632-3.672-25.308,17.838-47.476,50.799-54.079-101.469-14.544-116.997,52.148-43.79,8.142-28.555-15.433-7.297-40.385-12.122,22.939-39.54,19.641-55.272-6.061-52.919-27.448-25.014-44.367,2.041-41.06,15.272-8.163-52.597-6.835-62.525,2.487-19.756-14.901-54.664-32.679-27.884-9.971,15.477-16.19-59.455-26.131-28.426-4.443,16.988,8.888,49.633-8.476,42.13-16.72-7.431-22.014-.521-22.502-19.917-.556-18.776,3.555-32.681-18.043-54.997-25.07-26.558-81.536-93.405-41.158-111.171,16.525-2.57,27.826-16.939,11.343-20.603-88.732,17.014-39.92-48.121-96.104,.152-41.374-54.892-24.058,23.909-111.948-57.113-79.173-34.262,.904-40.305,28.36-51.793,11.945-10.258-36.282-61.44-10.119-62.262,58.207,8.127,11.125-4.893,18.746-29.158,20.703-34,31.119-3.239,48.775,5.314,9.933,4.191-14.817,10.859-23.857,22.353-17.998,36.552,10.172,32.956,29.281,11.292,51.486-20.447-.394,47.231-16.346,36.906-12.035-5.301-26.095,13.787-36.361,17.879-.772,14.932,40.729,11.613,27.685,37.964-23.571,52.522,19.686,10.993,44.394,21.668,26.1-9.185,9.12,25.305,28.283,20.553,19.938-2.313,5.029-25.375,13.446-34.105,35.011-64.822-7.853-100.232,102.426-58.105,33.592,4.15-23.701-44.619-.225-63.67,7.341-18.308,25.425-59.3,38.167-34.542,1.881,25.252-60.787,55.892-14.532,73.922,19.003,8.228-4.19,35.314,12.837,55.049,38.662,48.634,40.106,103.482,49.834,156.426,15.912,21.063,19.483,12.092,21.188,32.244,8.995,27.179,3.115,49.513,12.742,73.766,25.377,25.542,24.411,45.38,18.089,72.473-.407,25.401,36.763,22.653,35.398,50.647,27.633,42.24,2.836,47.941,.316,80.52-.726,10.541,24.262,78.741,4.017,64.7Z" style="fill:#fadd69; fill-rule:evenodd;"/><path d="M-1216.083-406.7c16.398-19.431,33.755-65.588,40.803-76.673,7.826-12.253,3.833-23.294,27.508-20.096,23.608,3.816-4.571,30.076,7.594,37.637,11.586,6.879,15.926-15.112,19.566-24.698,3.641-9.588-5.353-22.42-.602-36.255,5.327-13.145,10.518-25.061,18.687-28.541,8.1-2.859,16.719,7.435,19.497,17.721,3.417,10.354-9.347,8.34-18.225,12.368-8.88,4.025-12.301,35.475-3.481,43.92,9.461,8.517,13.427-16.009,13.15-25.396,.433-9.937,13.199-7.925,24.339-14.824,11.138-6.901,5.931-18.698,23.964-17.362,18.033,1.338,26.739-7.073,26.221-20.231,.127-13.09-15.505-6.678-32.992-1.094-18.13,5.518-21.502,12.636-32.007,7.751-10.574-4.268,3.354-30.834,26.587-29.555,22.659,.596,37.349,2.819,56.063,9.843,19.354,7.098,33.004,12.949,48.444,20.245,16.079,7.363,17.957-9.902,37.408-9.658,19.516-.374,18.308,10.727,31.202-.351,12.248-11.144,30.156,3.28,38.211,24.746,8.054,21.468,33.614,61.063,40.376,70.532,6.692,10.087,15.11,22.233,45.411,36.136,30.232,14.521,74.845-25.552,91.06-19.42,16.923,5.584,5.42,21.804-.673,47.97-6.666,25.48,11.501,25.585,26.735,34.73,15.88,9.213,29.631,20.068,30.254,38.23,.622,18.163-12.077,15.533-16.83,29.366-4.682,13.218,6.599,16.941,21.33,24.783,14.797,7.226,17.383-10.59,29.612-3.641,12.23,6.944-3.641,9.586-12.213,16.764-8.572,7.178,1.427,10.763,13.254,21.408,11.894,10.028-17.145,14.356-16.427,25.665,.786,10.693,11.963,9.416,25.773,7.797,13.879-2.235,15.354-15.799,33.894-13.16,18.542,2.64,6.026,16.254,14.478,34.02,0,0-.095,6.854,1.802,13.298,1.962,5.83-.537,4.933,9.327,9.75,9.798,5.434,9.502,14.137,24.123,16.976,14.05,2.151-2.815-15.907,7.886-24.727,10.055-8.888,24.544-4.816,44.77-5.735,20.938-1.465,33.397-2.607,49.977-5.796,16.576-3.186,27.963,5.538,47.213,7.632,19.25,2.094,17.855-14.902,34.095-15.009,16.245-.104,27.498,9.854,47.416,5.783,20.497-3.387,27.986-12.556,37.82-1.502,10.479,11.122-3.354,30.832-5.644,39.942-2.864,8.424-10.333-.501-21.855-7.991-10.811-8.041-9.28,7.724-20.552,15.857-11.207,7.515-4.194-9.192-17.64-16.892-14.02-8.39-26.455,28.319-34.461,24.328-8.006-3.993-13.684-11.473-22.736-11.832-9.759,.187-20.658,10.857-30.149,8.576-9.423-2.899-19.384-.86-36.068-2.675-16.041-1.745-21.44,.162-31.812-5.957-10.439-5.506-16.677,10.039-15.891,20.734,.787,10.691,33.876,4.931,43.059,4.059,9.826-.803,23.101,2.513,40.464,10.016,17.362,7.505,28.292-9.401,38.728-3.898,11.082,5.573,26.312,2.862,52.147,10.04,25.909,6.561,28.472,6.84,41.719,16.394,12.535,10.097,22.583-10.645,31.757-23.376,9.246-13.346,6.468-23.631-3.607-38.451-10.65-15.511-1.004-32.554,25.946-29.623,27.591,3.001,57.405-2.492,76.589,.22,19.826,2.78,17.268,14.355,31.63,31.515,15.007,17.231,8.35,12.766,23.79,20.057,15.435,7.297,14.947,29.705,32.846,32.275,17.258,2.502,12.749-21.697,22.995-2.49,10.888,19.279,2.968,38.384,14.457,52.112,11.494,13.729,29.213,.056,45.742,21.197,16.46,21.757-11.168,13.135-31.845,.281-20.609-13.474-18.861,24.152-.786,31.111,18.07,6.957,21.057,27.248,14.113,43.339-7.013,16.707-27.084-1.698-47.484-5.165-20.466-2.849-15.428,4.559-28.981-8.143-14.258-12.16-10.715-14.892-21.526-22.933-11.522-7.493-8.736,14.648-18.62,27.923-9.817,12.661-6.558-11.318-7.479-20.78-.345-8.771-8.177-8.375-16.541,8.81-7.786,17.871-14.622-2.839-4.231-14.81,11.101-12.522,10.689-20.675-.699-29.401-12.028-8.796-11.274,8.133-30.695,1.65-18.847-5.793-2.242-15.215-9.653-36.612-6.768-21.326-7.804-5.842-19.009,1.675-11.138,6.899-22.669-12.448-36.173-7.677-13.571,5.388,2.346,20.221,17.277,26.211,14.353,5.306,33.929,34.264,43.295,49.633,9.299,15.987,7.42,33.254-15.183,61.992-23.313,29.284,1.747,79.43-5.266,96.137-7.009,16.707,2.586,23.992,11.589,48.679,9.71,24.144,16.872,29.914-4.783,61.875-21.722,32.579-61.452,57.582-63.971,74.778-3.162,17.126,2.556,30.226-2.128,43.444-5.394,13.763-15.556,17.651-11.459,33.693,4.099,16.046,26.55,6.633,31.796,24.05,4.675,16.732-19.844,15.313-44.363,13.894-25.224-.875-18.329,7.363-26.355,21.465-8.602,13.414-7.242,24.795-.349,33.03,6.962,7.62,25.333,5.875,43.021-1.557,17.624-6.821,21.549,4.838,31.778,.335,9.588-4.573,1.302-17.951,11.591-34.929,10.286-16.974,12.553-7.991,38.788-16.37,25.657-9.063,21.644-2.011,24.671-17.906,3.736-16.44,24.348-44.772,34.097-56.815,9.749-12.039,15.22-14.564,38.992-18.217,23.06-3.108,25.082-9.753,58.689-2.352,33.672,6.782,71.894,1.579,86.145,1.883,14.961-.246-8.388-18.382-25.035-14.579-16.712,4.424-18.847-5.793-16.155-18.604,3.4-13.357,18.87-12.297,55.635-22.023,37.477-10.276,71.401-29.671,81.667-28.555,10.268,1.117,34.52-2.362,44.642-21.102,2.329-4.312,7.808-7.601,2.575-20.295-4.336-10.519-18.934-12.522-22.599-21.932-2.147-3.908-5.991-9.102-12.211-12.718-12.674-7.368-49.457,22.725-72.317,23.984-22.287,1.944-13.166-40.116,.527-58.593,14.272-17.789,20.718-23.329,30.766-44.073,10.113-21.361,25.074-21.605,55.357-31.414,30.283-9.81,117.619-42.735,123.548-61.435,6.641-19.244,71.262-26.513,87.534-32.851,16.271-6.345,8.695,21.535-9.541,22.044-18.234,.513-61.647,15.707-51.57,30.528,10.65,15.508,13.467-10.389,27.345-12.624,13.809-1.618,9.03,18.454,27.906,18.011,18.875-.443,27.986-12.556,23.925-22.98-4.057-10.426-14.862-6.605-3.829-18.509,10.393-11.973-3.227-24.062,14.024-33.414,17.18-8.739,43.028-12.806,59.529-27.233,0,0,15.67-35.745,33.497-44.542,17.828-8.797,17.803-7.656,22.906-9.207s6.521-7.531,11.382-16.971c4.861-9.44,12.612-31.347,17.544-34.39,4.932-3.042,11.775-4.854,11.775-4.854M-5292.686-2486.534c5.179,1.134,10.84,2.234,17.411,2.948,30.158,3.28-24.431,21.679-49.121,15.871-25.331-5.873-17.346,16.21-14.128,28.411,15.343,45.017-18.134,6.065-23.529-4.436-10.478,.737-1.853,22.89,2.008,35.165,4.649,32.064-21.89,23.961-16.38-22.373-1.843-23.698-42.057,32.975-23.939,34.828,22.634,11.357-17.151,26.532,8.086,45.183,9.052,12.219,17.511-11.819,31.35-19.674,13.906-8.469,11.156,16.814-2.348,21.584-13.571,5.388-5.565,9.377,.995,20.698,6.545,41.493-19.791,14.337-20.018-12.79-15.189-12.752-13.55,27.809-17.918,39.234-5.259,12.533-5.747-6.861-17.133-15.585-11.389-8.729-4.395-7.345,5.959-24.937,11.061-18.138-2.337-8.363-20.476-14.706-44.131-28.563-59.731,54.617-20.484,15.25-3.547,19.663,59.085,43.055,22.812,64.867-15.049,6.84,5.998-46.601-23.394-23.755-7.592,4.162,4.207,21.044-3.322,24.593-11.811-8.602-10.411-43.277-23.806-1.961-9.259,14.79,27.671,44.911,18.514,74.389,24.962,74.673,42.047-29.977,14.511-55.82,3.523-27.776,37.99,8.058,22.751,35.533,15.412,106.645,13.384-8.908,52,29.377,11.798-31.49,20.284-10.24,37.825-1.496,50.798-9.093-42.768-68.532,25.056-45.334,12.738,8.255,14.214-5.313,27.989-12.549,44.211,3.736-37.06,41.439-33.433,50.639-14.707,25.373,102.136,53.193,38.409,52.859-9.973-9.829-12.703-2.636-28.369-1.844-14.41,4.921-6.488-63.167-31.525-14.662,11.368,21.392,15.288,78.404-1.881,17.271-4.61-28.551-65.243-24.542-16.458,8.184,12.648,21.349-17.624,36.888-27.115-7.318-13.967-9.001-6.697,1.772-21.11,8.94-31.049,19.433,47.438,11.61,12.208,25.039-22.894-3.745,.347,33.515-20.915,37.03-9.006,5.259,1.645-21.034-12.881-30.725-17.409-11.962-10.438,61.213,1.6,68.804,15.551,11.041,20.752-42.77,40.324-54.252,45.786-27.67-63.337,93.206,1.532,69.412,9.939-18.837,29.911-82.668,53.753-88.375,2.456,30.047-37.69,40.312,13.443,67.601,11.449,19.973-16.81,23.136-33.934,19.404-16.483-3.666,12.815-22.317-5.66-25.573-17.458,2.449-39.864,64.945-15.087,66.988,19.261-8.133,23.678-32.304,30.231,2.674,10.613,9.882,8.719,3.437-3.668,15.816-17.411,20.616,42.952-.475,51.273,18.057,10.856,13.656-14.168,10.934-33.087,5.758-23.133-7.909-39.093,35.46-48.048,6.006,6.001-23.089-16.013-36.179-12.904-.78,2.954,14.671-.667,6.166-7.99,7.864-27.474,10.678,2.07,67.811,12.174,19.419,14.555-25.207,3.818,8.938,33.013-5.147,44.35,15.778-3.456,19.158-19.735,20.3-54.999,102.341,5.536,33.608,47.597,63.827,12.676,20.742-19.319-1.458-36.168,4.197-17.487,5.583-16.03,10.112-30.827,2.884-32.987-.003,13.551,28.731,30.725,33.903,11.396,27.445-40.321-6.511-52.854-9.483-41.636,14.527,100.519,57.628,56.581,76.661-17.221,7.781-45.521-66.428-46.546-13.793,5.582,26.214,72.006,56.848,95.258,43.44,12.055-9.307,21.83,14.217,12.49,34.415-9.405,20.815-11.855-4.409-28.003-11.157-16.788-6.819-13.8,13.472-2.482,22.816,44.151,8.741,82.644,12.608,17.013,40.542,5.696,20.761,41.509,4.87,49.215,30.936,8.756-2.8,15.663-24.512,25.836-16.54,10.236,7.353-19.673,19.698-9.333,32.053,9.768,11.67,9.283-7.726,21.951,1.139,12.671,8.866,8.589,16.535,16.828,12.438,8.235-4.097,21.426-23.873,36.124-9.798,15.299,17.155-60.73,14.298-18.427,44.168,8.648,15.913,28.041-13.174,41.249-9.24,13.273,3.315-5.096,5.062-20.658,10.857-18.512,7.086,23.529,52.098-26.315,38.94-16.038-1.744-7.928,7.249-.926,20.49,7,13.24,6.426,12.555-6.81,14.858-26.712,12.542,11.711,63.654,20.253,88.306,24.717,31.836-1.127-55.893-.856-63.727,3.339-12.747,17.368,7.497,24.264,15.737,13.88,12.676,30.716-65.006,55.062-22.702,7.505,14.53-18.776,5.432-25.852,22.757-4.162,23.816,62.861,48.4,.376,56.196-27.298,9.052,24.36-69.65-25.653-32.737-22.047,20.172,34.815,54.228,44.019,72.797,29.063-8.526,57.797-54.996,25.82,25.27-3.153,28.982-16.971,18.743-19.892,39.638-3.564,20.827,11.281,3.724,25.569,9.646,6.218,2.548,9.528,7.899,12.134,13.801M1627.669-514.159c13.275,3.313,15.25-20.804,28.727-19.338,13.474,1.466,13.809-1.618,31.498-9.052,18.264-6.749-4.948-26.121-2.735-46.469,20.359-36.547,33.655,56.539,61.609-11.399,29.218-40.568,57.421-82.291,81.574-117.157,1.627-18.015-30.27-76.037,10.866-28.148,91.201-25.568-4.862,28.099-6.037,67.358-15.713,37.654,25.04,33.337,35.547,1.367,36.466-28.275,73.197-16.497,108.901-58.036,22.952-19.961,32.929,1.715,20.41,15.329-15.698,18.055-35.509,16.884-47.99,35.335-8.792,24.475,3.731,47.754-36.276,40.974-30.055-103.427-52.391,59.35-101.495,79.427-27.001,28.316,10.474,28.63-7.942,67.152-16.18,60.011-21.926-91.753-60.303,58.96-5.99,19.309,13.204-7.928,29.208-11.802,16.002-3.876,5.485,21.186,.877,45.642,.604,35.977,20.382,36.769,33.033,72.238,15.661,17.29,6.489-11.783,25.901-17.161,19.416-5.373,34.488,11.241,41.22,26.947,17.734,19.586,43.756-24.974,28.723-49.28,17.548-26.648,40.994,12.722,40.013-45.575,32.964-24.802-5.478-48.284,30.25-69.081,36.67-28.212-38.64-30.001-.95-56.88,13.869-14.089,16.376-1.34,13.457-22.247,19.471-79.943,55.128,65.379,57.486-21.198,32.369-21.791,18.749-63.699,68.769-71.138,51.703-27.721,36.409-55.097,74.537-82.366,20.019-10.921,17.655-13.052,23.01-32.435,2.273-21.825,91.003-49.108,61.915-73.75-24.218-7.636-62.301,59.941-37.728-5.355-7.068-12.622-11.627-12.495-1.195-18.845,15.4-14.977,38.933-20.32,38.53-43.852,15.238-12.238,29.738,35.109,42.542-9.106,24.083-22.559,46.937-84.39,34.972-118.481-6.441-24.412-10.609,1.965-23.146-8.134-12.47-10.715-35.081,6.168-42.101,11.019-15.673,3.212-27.845-2.119-20.782,23.95,38.9,53.819-27.024,61.186,23.985,71.861,5.89,18.829-29.546,26.763-45.005,43.774-16.169,11.343-9.905-10.438-10.353-24.214,14.363-23.077-11.378-48.535,25.929-53.332,22.628-17.24-17.946-56.019-4.639-88.481-8.854-17.807-7.687-63.768-34.593-46.192-18.701,6.925,6.348-50.973-27.68-26.087-10.254,13.549-11.744,57.641-19.787,80.197,4.113,44.56,20.065,78.759-6.061,121.632-1.607,36.086,33.926,30.339,50.314,56.641,3.668,18.784-27.079-5.581-31.837,30.237-30.704,25.967-12.485-50.617-52.885-33.207-25.329-.446-48.086,132.915-76.614,59.666-27.159,2.71-36.311,30.734-65.914,9.042-211.277,94.816,34.78-80.852-186.498,1.573-39.791-85.077-71.984-41.446-74.94-81.157-2.865-59.439-6.868-39.486-55.105-6.616-39.717,8.616,17.26-56.847,16.72-76.178-31.806-56.816-5.901-28.791,14.068-81.461,5.897-30.783-30.409-38.082-25.878-.937,1.934,12.062,11.049,11.808,.287,21.24-23.711,15.547-36.722-9.486-69.626,7.411-59.978,127.66-10.896-27.558-130.574,24.478-100.768,27.973,21.694-20.455,39.35-51.242,36.894-26.248,84.854,62.717,124.612-71.323-3.351-14.92,73.109-42.002,24.582-52.846-19.998-7.168,12.652-14.849,6.492-29.87-6.222-14.402-43.355,4.645-49.417-17.229-6.635-22.559,22.192,4.908,45.561,4.956-12.81-62.7-205.108-39.768-260.732,21.556-121.886,100.422-161.008,172.135-246.672,280.159-60.287,91.139-35.248,241.903-141.223,295.341-28.26-8.223,49.339-45.389,25.03-69.021,5.207-49.031,46.111-56.707,41.653-120.265,2.586-57.804,19.439-49.78-12.364-77.454,3.387-7.129,9.91-1.428,22.743-.032,17.336-4.292,28.94-52.352,27.747-69.976,7.988-45.734,43.22-117.29,70.856-162.009,16.277-32.928,100.806-33.787,85.752-78.024-15.337-29.043,15.73-44.707-10.578-76.018-2.557-31.955,33.041-27.797,24.768-66.571,12.462-37.858,23.495,18.366,46.261-19.302,38.915-35.354,105.033-39.397,150.484-70.374,32.198-15.795,73.706-48.007,114.996-42.376,31.14-10.705,92.019-58.355,126.163-55.514,60.411-23.035,143.882-31.136,192.232-90.183,30.059-25.987,81.544-42.107,68.451-86.141,1.255-30.965,22.05-20.03,19.403-59.034,7.418-31.193,47.489-3.884,9.7-41.377-15.75-24.262,46.724-29.843,8.494-60.211-5.429-22.488,41.125-30.049,59.091-47.873,26.919-14.928,18.415-86.443,80.137-67.998,26.806-30.913,30.059-105.251,61.427-134.963,12.55-7.999,2.551-11.583-9.279-22.227-11.757-11.263,7.118-11.707,12.75-21.701,9.197-25.443-46.886,1.779-46.751-23.803-1.668-14.531,24.475-4.2,31.592-15.904,7.182-12.323-8.857-14.067-27.494-9.853-99.218,39.344-44,15.211-19.174-32.664,3.671-15.819-14.345,6.555-23.596,8.045-37.472-.239-13.32-11.563,6.999-28.556,13.744-26.179-42.318,7.816-48.155-10.862-10.351-12.356,14.409-7.169,27.98-12.555,3.078-14.783-15.526-66.69-47.643-39.496-14.55-31.497-29.886-43.143-65.514-6.498-30.055,7.026,21.43-36.834-16.273-35.466-67.403,18.481-23.816,62.476-44.397,91.875-15.213,14.03-.325-33.532-29.755-6.971-17.236,6.653,12.76-40.962,21.406-47.59,3.896-27.793-59.044-24.03-71.016-51.421-8.959-2.882-30.228,26.748-47.373,23.554-27.443,17.803-55.866,63.749-3.375,18.981,11.992-8.674,22.297-1.939,13.895,9.628-63.462,27.951-60.023,71.568-91.021,120.51,.92,42.946-58.709,44.484-38.949,95.586-.879,19.869-22.261,7.559-22.747-11.835-1.314-29.76-54.703-8.965-78.152-21.608-18.202-15.557,71.39,11.246,70.929-13.487,.284-25.998-5.93-40.103,30.731-49.695,30.863-28.754,57.293-95.376-8.329-42.7-15.039,.847,19.928-22.178,43.087-32.14,29.606-15.264,28.519-48.212,60.179-57.71,11.968-8.688,.858-8.023-6.407-18.798-10.251-31.568,102.715-45.27,41.203-80.371-15.269-20.007-53.064,40.15-55.717-1.073-7.927-32.401-48.535-20.155-26.127,13.38,.172,28.712-37.797,6.66-54.328,15.928-11.511,4.364-19.709,14.079-33.606-7.399-29.356-43.475-54.1-19.73-41.618,18.559-21.941,48.6-39.161-1.438-5.177-29.883,2.9-39.436-32.289,49.189-43.757,20.19-48.071-102.345-36.195,117.933-78.766,37.611,14.841-48.326,3.299-68.718-24.827-100.043-17.6-11.271-15.312,21.423-32.61,13.304-26.195-24.16-42.448,18.464-59.443-14.573-32.162-62.874-59.748,27.767-75.794-7.616,21.171-49.59-6.099-7.175-31.046-18.98-12.326-11.952,23.358-23.671,18.283-36.702-8.621-11.591-59.527,41.572-77.336-5.309,2.773-25.961,52.085,29.127,42.429-25.943-.554-18.777,16.683,1.816,32.054,9.73,32.163,7.152-6.542-42.955-9.13-53.401-1.308-49.439-91.432,7.981-70.629-48.861-11.192-26.517-69.924,56.526-67.883,3.218,13.207-15.515,91.76-46.967,18.275-54.802-23.998-55.199-12.317-1.212-50.086,7.048-13.682,.379-3.595-14.745,11.995-26.778,16.303-12.579-4.902-8.644-14.535-21.547-24.401-16.922-35.222,32.975-55.448,50.117-28.62,1.288,53.951-74.912,12.567-97.834-43.688-15.535-49.007,115.389-61.875,43.814,3.402-13.361,.672-6.171-7.394,2.311-34.966-7.207,52.418-42.771,23.482-66.697-37.211-22.624-29.875,11.419-44.967-46.085-12.124-11.174-29.104,46.806-52.557,35.463-14.999-10.689,43.229-26,20.787-53.881-14.365-36.6-45.086,77-40.992-5.098-58.969,19.094,28.961-23.009-18.532-32.579-6.005-2.819-40.371,42.216-14.829-.993-.378-39.371-32.932,27.503-33.273-34.192-16.244-5.402-54.597,36.413-21.567-16.696,3.666-15.819-17.23-8.735-26.205,2.144-23.635,14.475,17.106-71.196-30.063-21.982-13.847,7.847-6.77-9.476,7.5-27.267,22.654-27.848-62.81-33.313-36.666,2.875,17.448,26.367-15.876,81.976,35.951,81.273,13.584,6.476,1.88,24.544-22.783,12.502-24.725-11.423-5.161,5.678-12.852,16.697-14.597,31.206,14.342,23.929,44.059,36.608,36.163,31.817-75.812-24.094-22.282,31.893,22.157,26.258-47.768,48.793,14.851,36.565,30.917,12.917-49.089,10.805,.281,51.183,10.429,17.364-13.898,2.239-17.027,13.129-.056,2.874,47.301,83.008,1.816,30.778-73.467-63.982-5.069,60.346-79.765,94.881-9.35,10.944,11.058,70.161-24.636,53.486-12.812,1.226,21.878-63.847-11.042-41.76-6.718,8.003-12.86,16.694-21.478,6.397-15.117-37.589-14.163-2.4-46.214-16.878-30.876-18.037-16.009-54.009-55.034-37.184-30.518,11.007-60.515,.399-54.901,45.193,9.913,42.698-82.851,55.751-52.592,11.743,11.758-12.446,8.79-9.024-1.859-24.534-3.158-63.912,54.063,57.427,43.908-15.811,3.617-15.207-1.078-13.848-15.404-25.389-14.327-11.54-2.577-12.134,9.74-23.898,16.862-28.262-29.696-8.414-43.468-12.207-31.222-21.834,33.331-64.021-12.77-85.62-35.192-13.652-11.559-46.359-48.898-57.736-20.463-13.527,6.673-30.111-13.652-47.655-16.967-28.11,43.755-74.707-16.426-99.742-19.649-10.254-7.41,8.547-3.887,23.906,7.725,19.86-26.065,63.632-29.499,20.502-.687-17.546-3.83-18.513-19.065-27.656-75.334,60.356-17.625-22.334-111.693,24.041-30.365,3.13,4.125-46.387-46.752-23.796-18.889-6.004,58.317-52.516-2.264-50.791-20.21-5.612-15.604,61.044-45.237,21.904-11.732-17.498,19.881-9.691,10.209-28.213-24.778-34.689-48.352-11.266-52.189,14.292-29.446-4.503,21.505-97.441-46.254-64.297-49.351,4.764-42.688-43.788-82.99-30.88-15.671,.792-9.042,11.498-14.438,25.263-23.231,43.044-56.06,13.392-24.623,65.325-18.937,4.695-76.457-71.764-88.179,4.776-13.127,41.574-25.155-27.632-31.789-24.063-52.662,1.563-148.946-26.545-177.738,34.318-18.279,23.214,19.597,86.052,24.349,104.364,8.358,15.761,45.195,6.648,31.674,37.134,20.653,64.367,45.302-3.809-6.945,111.557-34.796,23.189-48.69,56.228-2.533,23.438,20.972-41.827,65.158,8.878,54.726,34.027-7.016,16.704,6.96,7.617,17.061,16.203,16.122,10.828-11.658,56.27,28.13,39.869,19.138,20.64-16.469,33.6,35.15,64.958,5.983,43.05-35.759-41.435-45.894,10.001-6.444,17.389,25.343,29.581,8.062,45.173-25.215,18.994-2.814,75.184-36.877,88.33-31.536,89.752,46.847,70.291,88.033,121.875,64.43,25.758,130.093,63.384,155.327,141.708,15.6,29.759,16.069,25.444,29.391,46.234,19.378,25.437-9.019,51.537,13.163,70.067,9.14-12.761,28.256-14.221,31.5,14.656,14.615,17.812,74.079,9.086,21.484,47.273-44.271,36.246-52.631-108.024-48.589-19.021-4.925,132.953-128.383,271.153-238.589,325.315-12.797,20.003,16.74,31.289,34.576,46.206,19.367,23.99,13.958,43.699,46.094,59.895,16.604,46.888,32.428,89.103,48.953,140.734,5.89,33.521,41.272,15.299,20.84,59.051-3.757,22.669,10.926,13.036,26.297,20.949,13.946,22.492,5.795,30.33,33.686,48.576-4.469,28.434-36.639,81.364-31.052,118.296,3.245,17.829,19.375,.866,31.172,17.747,10.727,17.186,27.866,68.311-3.034,45.855-11.099-28.384-23.507-10.85-41.033-40.665-11.529-19.35-15.369-7.91-29.275,.557-14.592,20.606-16.55,42.226-2.078,72.769,10.891,57.899-55.783-47.929-128.513,29.73-19.275-16.788,71.764-35.666,23.93-71.039-25.48-23.351-14.824-50.091-58.863-55.696-50.745-51.941-161,3.037-96.481-44.184,47.906-6.2-45.838-71.554-63.339-86.148-40.408-24.369-20.073-42.94-14.605-74.584-35.337-35.219-16.449-55.995-24.753-100.659-11.891-28.111-47.134-56.278-35.131-83.05,2.021-43.794,33.537-96.482-24.911-123.126-59.771-55.27-77.379,30.419-127.053-13.813-38.075-24.702-48.693,42.786-96.196,18.843-49.746-17.069-36.242,33.297-53.844,65.28-10.487,18.825-23.408-5.666-11.509-37.44,11.898-31.774,14.672-21.492-13.127-34.496-38.552-48.787-131.932-69.53-191.165-75.062-38.192-12.907-27.055-19.806-55.037-49.056-27.276-29.796-24.614,5.435-83.483-50.262-59.443-56.38-48.659-42.104-96.342-45.419-48.328-3.383-31.139-.265-73.342-36.055-42.846-35.857-92.495-3.199-120.298-16.205-27.801-13.008-31.872,6.515-61.64,29.483-48.336,47.266-99.742,19.048-53.447-45.745-26.341-68.744-69.317-162.459-70.069-239.109-25.006-30.757-17.323,26.669-70.392,2.318-126.804,33.084-61.404-147.889-85.011-185.2-23.769-2.57,4.687-19.441,9.669-41.358-6.685-29.85,8.678-59.341,14.475-85.155-4.863-21.118-2.335-26.457,11.967-50.484,14.938-23.955,23.628-56.08,24.903-67.797-2.4-12.517,52.599-8.222,16.623-27.516-22.676-35.436,132.587-59.969,49.823-81.935-21.177-2.3-4.208-21.044-3.403-28.446,17.384-33.141,106.323-13.904,49.461-60.752-1.701-23.882,32.402,1.856,9.546-40.145,18.391-9.459,43.714,37.101,69.646,4.446,28.335-18.524-126.06-34.721-31.267-52.694,45.844,7.302,57.394,33.049,86.13-9.975,33.342-16.837,31.638-26.286,28.141-61.825,.381-22.368-38.107-52.979-62.253-42.33-22.092,5.347-25.169-26.974-44.731-18.587-8.353,4.561-38.277,53.002-34.88,4.309,9.324-25.166-42.536-24.237-64.918-23.908-30.432,6.245-27.71-23.333-35.581-36.937-13.962-9.002-11.566-13.107-15.024-29.084,18.379-15.816,66.231,64.736,106.65,52.147,44.279-1.573,55.601,40.453,89.131,22.181,11.679,6.931,64.938,54.126,50.36,8.602-6.632-32.322,91.192,37.256,48.065-54.053,18.918-10.944,39.574-5.148,5.017-28.152,2.415-28.034,40.922-11.34,29.314,16.922,5.964,5.012,12.304-5.526,15.676-12.649,19.311,6.284,31.406,29.41,9.31-13.966-3.525-15.353,5.123-11.292,20.705,6.624,39.894,36.681,59.485-20.267,95.881-33.86-15.827-83.413,8.584-55.567,53.026-135.255,32.03-102.523-157.549,3.438-186.19-78.911-26.878-89.911-176.977-1.736-155.724-66.826,33.901-7.321,102.102,27.176,116.339-12.933,38.301,17.683,81.159,65.264,132.792,92.414,65.663,35.564,68.241-32.604,116.992-60.882,15.231-18.677-22.294-48.681,16.269-60.004,88.356-59.446-98.376-29.199-33.067-84.089,125.54-40.364,50.243,30.683,115.347,31.901,22.22-.982,24.864,2.335,31.422,21.508,16.077,19.847,33.958,18.004,41.573,47.571,9.097,18.337,35.049-12.544,42.796,18.387,20.13,13.78,67.036-12.77,7.723-17.255-21.535-4.93-17.317-30.242-36.643-45.167-13.346-14.56-7.321,1.696-32.279-1.644-13.391,1.453-60.981-90.15-16.549-44.852,73.679,42.085,79.38,11.921,11.586-34.929-18.972-21.674,1.415-29.167-32.818-38.505-20.273-30.86-25.306-7.361-46.076-18.109-14.883-24.166,47.482-31.247,57.234-6.892,15.123,35.311,12.383,29.67,31.583,2.187,13.028,17.506-16.042,47.905,36.553,81.961,28.276,22.452,28.263-40.268,60.316-53.319,47.644-22.074,28.774-72.003,75.617-80.378,15.877-6.118-22.169-64.513-3.73-79.022,4.117-34.208-104.481-73.492-68.912-106.701,10.579-23.967-3.78-37.151-17.958-1.95-8.712,7.513-20.566-17.484-16.616-32.386-1.419-19.542-29.093-9.79-19.27-37.662,5.387-15.676,42.624,13.316,56.011-7.643,47.886-41.55,27.592-63.96-31.693-60.831-18.817-14.187,55.074-19.674,31.835-53.948-11.589-48.345-61.172,23.953-61.764-11.077-2.105-15.547-15.237-27.492-35.136-23.166-14.558-3.461-27.458-4.241-26.653-11.641,2.422-11.928,58.018,13.738,23.762-15.512-23.596-11.899,68.886-8.862,7.482-21.025-45.972,10.977-90.744,.185-130.526-11.701-29.94-4.387-35.673,41.311-54.665,7.157-16.394-16.821-10.497,24.496-4.945,27.54,7.601,7.275-12.639,60.009,6.198,62.439,6.744-2.381,5.201,11.804,7.099,18.249,14.76,6.576,19.939,9.032,18.415,27.597,11.444,6.972,31.72-27.676,36.249,7.053,.985,8.842-11.95,2.441-11.739,12.446,.141,10.623-4.015,7.051-9.754,12.043-13.035,6.56,60.197,34.921,5.658,25.574-86.195-4.813-2.616,75.729-58.225,188.956-25.825,37.934-12.842-44.932-11.607-66.147-11.063-51.168-54.555-35.819-40.047,9.995,5.508,26.404-25.974,19.196,11.627,54.294,36.984,7.988,59.681,96.412,9.789,59.106-14.963-11.625-8.095,2.851-4.84,20.675,3.255,17.824-3.334,12.741-16.062,16.346-3.325,28.919-19.4,60.991-21.529-11.078-9.051-43.189-54.359-33.559-69.799-74.362-19.599-48.028-25.23-137.821,12.985-36.013,38.265,.029-5.12-78.749,.232-115.399-20.251-80.561-30.562-26.187-62.108-91.613-32.341-58.729-88.301,39.632-55.384,79.44,10.989,24.292-7.62,22.268-18.684,40.408-5.775,34.895-18.284,91.567-30.525,17.89-18.416-32.102-13.151-40.477-10.058-80.335-12.441-36.879-21.882-54.83-53.657-61.985-7.7-21.756,49.335-10.75,52.262-44.862,12.501-35.85-66.262,29.366-40.251-23.713-11.376-34.527-41.017,43.571-67.905,9.452-33.721-13.436-100.444-11.263-29.107-48.715,34.701-26.293,44.018-39.5-7.416-51.328-17.327-13.75,10.52-25.071,25.692-15.31,124.968,59.718-79.334-96.904-50.86-147.163,13.726-59.19-48.619-87.81-48.225-135.653-17.577-20.359-64.856,49.615-74.025-11.81-13.291-15.157,27.344-.753,26.655-18.3-.689-17.545-15.333-2.293-28.951-14.38-14.193-12.774,33.196-.757,52.003-.583,18.743,.791-.622-18.163,5.509-38.708,34.737-35.636,16.232-79.411-18.15-101.806,27.239-30.488,141.05,61.587,146.315-43.997,12.924-51.074,26.648-102.31,70.759-137.041,14.137-44.531-82.016-58.128-113.716-34.823-21.655,2.003-9.241-16.611-24.487-37.612-20.654-22.465-55.385,5.579-78.436,10.809-21.245-1.685-26.043-5.327-45.753,8.75-40.484,21.246,64.85,65.56-1.746,57.844-80.791-38.619-11.244,138.278-29.982,173.917,19.857,45.396,42.736,84.459,20.378,135.131,36.298,88.729-105.554,53.586-8.448,119.496,25.747,47.792-46.663-4.627-55.61,3.933-16.847,5.659-12.454,12.999-12.532,43.564-1.067,46.809-31.056,50.612,3.715,85.259,30.319,7.847,66.131,34.58,8.581,16.548-23.611,2.964-25.281,94.95-1.623,116.477,1.339,27.083,47.492,22.195,55.474,50.97,28.922,19.407,39.862-14.081,64.048,31.936,25.384,19.603,36.265-5.837,62.9,18.681,14.635,14.694-12.644,26.704-28.847,32.427-23.524,10.117,10.075-71.482-29.74-25.076-12.312,11.768-4.44,16.99,4.791,33.592,3.536,17.557-45.602,56.912-8.242,75.845,12.089,8.184,20.822-6.467,21.915-34.425,13.275-72.568,35.529,62.824,20.895,76.522-88.363,27.117-23.82,99.833-105.945,72.717-29.227-7.493-18.548,41.66-30.539,59.678,14.292,54.986,48.47,81.419,32.275,145.155-4.269,23.229-63.181,9.671-62.08-14.236-14.752-28.811,67.413,47.522,43.877-33.3-7.943-16.457-10.224,4.51-19.181-2.704,3.633-46.17,7.987-29.977-26.677-5.388-26.784-2.449,39.917-47.732-17.431-36.843-29.708-2.234,20.26-28.782,10.81-45.62-1.594-15.15,8.767-20.886,9.764-41.992,.423-21.794,2.051-12.879,14.399-30.879,17.714-44.486-50.487-32.991-36.204,16.653-4.798,20.065-23.319-.667-23.874-19.445-.488-19.394,25.113-15.986,15.882-32.589-9.232-16.602-28.081,19.406-26.846,2.071,5.606-21.28-27.754-35.09-42.103-30.78-28.201-26.285-30.738-12.504-32.624,19.54-17.623,7.487-42.206-57.818-43.818,2.711,16.958,32.477,22.425,74.78,76.106,64.435,66.609,27.021-5.212,112.643-30.685,25.359-12.321-19.783-24.182-58.8-56.039-39.781-24.173,6.465,32.239,72.641-35.891,37.269-50.251-8.658-74.501-70.351-109.694-.062-53.715,21.214-153.496-21.995-162.742-85.709-9.432-33.609-46.592,18.406-76.376,9.762-33.744-9.661,29.555-62.777-39.517-48.578-18.438-84.768-101.586,10.777-97.403-65.5,3.171-29.823,67.011,13.636,80.582-.594,24.792-67.837-64.963-99.008-122.745-41.428-54.065,8.369-97.16,17.222-126.296,56.763-11.019,23.752,16.148,6.74,25.142,19.576,9.058,12.213,8.32,18.998,24.056,17.59,33.884-6.443-7.951-75.691,52.093-19.288,18.148,18.192,21.145,8.534,37.103-12.814,15.956-21.35,43.852,26.608,20.52,32.183-42.916,24.381-38.128,16.871-94.128,29.686-41.66,4.012-55.141,52.529-8.301,58.374,22.746,16.084-18.923,63.304,32.351,102.713-.172,60.123-55.424-51.864-45.442,65.581-17.495,49.964-48.404-56.492-48.4-74.525,2.622-24.048,28.029-6.935,44.226-24.514,15.62-18.267-15.849-15.453-27.783-31.101-11.866-16.266,3.421-31.448-13.567-36.417-50.972,29.726-30.798-13.449-27.983-41.105-8.667-15.915-24.622,5.435-39.565-12.412-15.511-18.536,3.564-20.827-18.575-50.064-143.88,24.133-219.495,46.408-360.27-72.278-8.54-48.393,46.861,3.209,57.362-49.895-3.265-35.527,108.73,79.78,42.71-16.574-7.02-48.812,6.493-58.574-46.777-89.302-15.78-27.934-7.439-27.027-45.64-39.918-38.269-12.271-14.97,30.193-43.29,4.027-28.317-26.166-38.814-19.195-76.528-54.496-45.917-75.463-37.058-51.481-111.948-105.13-10.784-49.831-100.921-216.967-146.505-109.533-26.733,47.699-56.657,33.815-96.051,5.765-15.879-25.5,80.343-24.829,22.896-49.295-24.016-11.969-6.892-8.235,1.098-27.958,32.709-38.201,61.327-24.997,10.668-74.332-8.613-22.154-36.553,7.877-16.68,28.132,19.872,20.256-17.009,13.125-30.887,15.358-13.946,2.851,6.53,17.557,12.017,38.743,5.485,21.186-12.29,5.528-26.145-10.329-13.927-15.244,2.258,38.928-17.089,43.688-19.28,4.142-21.53,18.87-36.154,16.034-13.916-3.385-11.501-25.585-11.145-46.761,1.064-21.722-29.095-25.002-25.732-43.978,19.776-41.092,40.471-267.711-38.434-160.178-9.043,18.81,79.434,86.912-10.425,48.175-23.462-5.053-19.058,14.144-28.77,31.805-42.003,41.997-95.836,.985-21.753-26.687-19.433-1.435-133.039-8.544-146.639,28.964-11.985,20.531-40.966,12.388-44.729-6.742,19.623-46.54-34.079-24.216-49.405-5.368-21.697,16.416-45.908-4.097-69.157,3.075-16.207,5.73,4.47,18.586,13.806,40.191,9.977,21.672-16.943,12.505-30.839-8.971-13.895-21.478-30.286,9.81-47.178-2.012-16.25-11.75,4.647-18.836,18.65-34.161,23.653-18.248,50.504-29.549,78.526-17.667,35.864-16.357,76.391-37.947,118.708,1.078,16.144,6.732,17.659-1.214,40.51-14.327,36.822-22.717,127.081,22.422,98.425-57.304-6.907-31.947-31.488,20.908-49.32,17.72-20.822-11.514-6.963-50.439-41.384-7.614-10.955,11.281-26.078,18.993-24.44-2.039-3.445-34.804-102.656,11.512-125.975-11.856-22.046-6.119-9.035,11.518-23.378,18.068-31.696,19.324-126.216,6.059-36.212-25.145-16.037-20.622,12.491-46.549-25.549-57.691-21.854-7.993-2.817,25.897-10.066,38.835-7.252,12.94-13.647-5.852-29.832-18.22-30.185-12.916-23.743,70.409-51.952,6.203-25.334,47.172-7.799,7.687-44.451,2.647-19.213,3.533,11.531,19.356,13.097,40.741,.93,21.316-12.162-7.564-29.964-16.986-31.7,2.297,49.786,51.933,17.705,81.778-27.068,20.152-15.133-65.548-52.767-81.84-48.084-44.108-60.727-70.484-75.824-132.43-36.519-40.952,40.534-37.505,5.38-67.418-18.927-17.031-34.751,3.085-46.393-33.122-11.644-36.206-28.863-33.088-46.598-43.128-.222-.124-.413-.33-.632-.463m888.009,1386.668c-21.415,12.735-196.251,46.478-90.451-4.251,25.466-24.978,147.778-32.468,98.768-84.06-10.284-12.98-24.355,2.959-47.581,13.536-22.583,10.647-6.414-.698-36.066-2.675-39.183-1.381-28.599,104.016-90.167,46.958-26.82-16.008-37.327-20.896-58.749-38.822-24.087-39.199,75.598,11.613,51.206-53.081-2.501-24.605,10.168-15.74,25.194-16.602,14.386-.932,32.927,1.71,49.496-13.334,28.333-20.129-68.824-38.999-6.793-56.895,31.036-1.121,46.254,55.543,84.093,56.56,51.518-.028-7.8-50.978-24.701-71.314-60.817-13.659-46.194-52.076-94.221-5.252-11.212-18.824-42.685-21.779-60.587-34.035-25.167-22.848-48.346,2.34-75.104-13.798-7.106-103.214,198.583,26.147,264.182-17.443,41.519-12.18,228.579,2.304,183.393,51.137-18.897,13.508-45.284-14.291-73.918,5.095-86.283,26.286,53.404,86.805,93.964,85.063,30.763,5.533,33.447-69.018,73.231-34.442-30.544,55.966-13.561,7.214,.828,58.11-9.671,35.407-80.357,14.541-67.538,65.66,2.479,18.983,2.652,23.37-13.42,27.863-73.198,39.554-23.763-70.577-120.972-51.837-86.873,20.956,98.167,68.577-64.088,87.858Zm378.675,792.413c-96.946-27.768-63.655-2.26-111.421,51.541-43.387-7.204-80.485-17.389-130.369-7.338-40.752,7.138-84.765-6.766-90.23-47.878-8.967-19.067-20.958-22.242-47.64-27.641-42.896-12.832-9.554-51.123,21.688-26.329,93.911-47.149,19.194,105.938,132.166-51.155,13.333-21.006,54.923,8.475,74.48,13.722,20.131,5.935,.576-41.116-1.797-55.103-15.889-13.429-33.843-37.312-6.139-56.817,2.877-14.667-12.522-16.342-28.563-18.087-23.03-1.67-48.003-80.654-8.705-75.194,20.267,4.7,12.711,14.483,21.607,34.17,16.14,23.14,35.273,26.172,41.268,56.28,78.036,16.084,18.601,26.806,72.49,67.788,49.652,134.9,196.878-51.576,286.719-15.617,80.622-6.97,7.411-47.263-58.687-9.483-49.678-3.343,29.174-45.361,54.231-39.035,36.604-4.741,195.553,45.704,112.25,78.33-16.616,9.431-9.538-7.892-19.343-25.182-13.362-18.018-41.665-37.473-51.635-8.737,27.81,30.347,22.97,43.869-25.931,23.385-13.907-3.383-7.818,12.253-5.748,23.085-1.907,22.674-37.583-16.391-50.087-11.062-31.79,7.288-68.657,78.613-99.887,94.577-42.417,7.223-42.244,14.976-80.716,31.779Zm484.622,498.83c-29.733-3.533-92.708-15.925-122.405-32.649-44.88,18.566-86.953,11.439-141.184,2.729-154.547-16.006-103.921,69.297-160.803,51.782-55.295,28.714-31.091,9.604-54.362-31.513,14.039-12.565,44.512,4.201,56.127-32.586,22.114-19.572,104.965-39.976,118.993-61.306,14.343-23.296,43.919-9.833,60.011,3.436,16.956-.668,12.302,6.313,4.44,12.944-7.224,6.704,2.949,14.673,16.863,18.058,48.146-11.291,99.639,11.269,141.189,39.064,13.642,12.126,85.56,3.404,81.132,30.043Zm133.773,1008.487c-7.248,9.861-44.316,4.827-39.889-9.329,5.298-19.436,83.523-22.472,39.889,9.329Zm269.248-714.448c3.934,31.36-104.486,52.79-58.787,74.715,28.995,14.767-23.758,27.972,2.554,48.321,11.688,11.88-9.62,10.811-21.297,22.644-10.851,36.806-48.44,69.307-87.942,80.282-71.333,29.538-38.802-20.54-26.344-62.146,23.272-23.972,8.646,48.075,31.251,28.981,74.226-36.516,14.504-48.726,39.189-91.823,10.369-17.588-13.296-8.932-30.763-21.437-19.509-17.958,34.412-25.504,29.83-53.538,21.87-25.24,59.246-40.027,62.772-75.524,5.39-13.77,15.128,4.138,25.473,16.494,14.312,11.405-37.169,49.866,16.199,24.224,4.305-6.488,25.336-9.425,17.867,8.806Zm295.44,578.706c22.875-20.653,55.082-32.113,88.819-34.641,12.716-1.735,49.329-33.283,50.281-2.635-7.587,7.665-32.687,14.859-45.005,13.818-12.043,3.792-18.73,24.062-36.664,14.723-9.595,8.029-63.681,39.866-57.431,8.735Zm158.498,703.572c-35.386-60.151-17.632-3.672-25.308,17.838-47.476,50.799-54.079-101.469-14.544-116.997,52.148-43.79,8.142-28.555-15.433-7.297-40.385-12.122,22.939-39.54,19.641-55.272-6.061-52.919-27.448-25.014-44.367,2.041-41.06,15.272-8.163-52.597-6.835-62.525,2.487-19.756-14.901-54.664-32.679-27.884-9.971,15.477-16.19-59.455-26.131-28.426-4.443,16.988,8.888,49.633-8.476,42.13-16.72-7.431-22.014-.521-22.502-19.917-.556-18.776,3.555-32.681-18.043-54.997-25.07-26.558-81.536-93.405-41.158-111.171,16.525-2.57,27.826-16.939,11.343-20.603-88.732,17.014-39.92-48.121-96.104,.152-41.374-54.892-24.058,23.909-111.948-57.113-79.173-34.262,.904-40.305,28.36-51.793,11.945-10.258-36.282-61.44-10.119-62.262,58.207,8.127,11.125-4.893,18.746-29.158,20.703-34,31.119-3.239,48.775,5.314,9.933,4.191-14.817,10.859-23.857,22.353-17.998,36.552,10.172,32.956,29.281,11.292,51.486-20.447-.394,47.231-16.346,36.906-12.035-5.301-26.095,13.787-36.361,17.879-.772,14.932,40.729,11.613,27.685,37.964-23.571,52.522,19.686,10.993,44.394,21.668,26.1-9.185,9.12,25.305,28.283,20.553,19.938-2.313,5.029-25.375,13.446-34.105,35.011-64.822-7.853-100.232,102.426-58.105,33.592,4.15-23.701-44.619-.225-63.67,7.341-18.308,25.425-59.3,38.167-34.542,1.881,25.252-60.787,55.892-14.532,73.922,19.003,8.228-4.19,35.314,12.837,55.049,38.662,48.634,40.106,103.482,49.834,156.426,15.912,21.063,19.483,12.092,21.188,32.244,8.995,27.179,3.115,49.513,12.742,73.766,25.377,25.542,24.411,45.38,18.089,72.473-.407,25.401,36.763,22.653,35.398,50.647,27.633,42.24,2.836,47.941,.316,80.52-.726,10.541,24.262,78.741,4.017,64.7Z" style="fill:none; fill-rule:evenodd; stroke:#2d80b4; stroke-miterlimit:10;"/></g><path d="M650.725,1054.997L-5834.934,172.539c-6.877-26.328,3.967-24.526-10.981-54.229-14.95-29.701-29.21-41.862-14.64-68.354,13.925-26.562,43.357-46.447,43.357-46.447,0,0,29.041-46.133,58.903-75.952,29.864-29.819,32.43-29.54,30.489-53.463-1.236-24.466-15.656-29.155,.74-48.586,15.822-20.119,15.285-15.184,11.554-40.549-3.16-24.674-8.36-24.616-1.388-46.946,6.333-22.397-9.801-59.091,20.94-85.075,31.454-26.527,36.299-5.408,47.391-29.784,11.091-24.374,13.964-20.942,28.208-32.496,14.239-11.553,1.034-15.486,11.494-28.075,11.167-13.133,62.668-140.43,105.185-185.097,43.225-45.215,37.878-13.977,64.316-66.004,25.729-51.486,44.463-62.552,51.225-94.882,7.402-32.265-15.635-89.053,17.376-64.25,33.584,25.493,12.995-6.072,.622-23.641-11.663-18.115-11.959-51.215,2.292-50.911,14.961-.244-2.049,12.879,7.384,27.632,9.366,15.367,16.675-10.042,20.353-14.01,3.678-3.968-31.468-38.987-19.084-51.367,12.451-12.993,38.211,24.746,42.177,.22,3.326-24.595-9.673-18.524-20.043-24.641-10.372-6.119-9.463-8.515-5.084-24.887,4.443-16.986,16.707-58.081,15.261-92.553-6.411-201.315,26.972-106.727,133.603-28.519,37.734,17.206,46.734,.09,50.873,21.755,4.71,22.35,10.192-10.124,19.058,15.8,9.576,25.376-12.75,21.699,.907,39.408,13.59,18.323,8.848,44.012-.682,36.111-9.595-7.283-15.354,15.802-11.896,31.776,3.456,15.976-5.547,33.09-15.851,26.35-10.305-6.733-6.494-11.932-15.686-22.916-8.552-10.912-24.068-29.449-30.676-16.441-6.542,12.392,17.603,11.274,18.896,23.27,1.291,11.996-19.625-4.631-24.404,15.44-4.781,20.069,11.633,24.351,22.77,17.452,11.142-6.901,5.672-4.376,20.909,4.769,15.237,9.145,8.408,.289,27.755-4.469,19.344-4.758,33.674,6.783,30.38-16.662-3.294-23.444-19.604-22.722-6.484-41.884,13.125-19.164,35.687-11.716,30.681-25.365-4.369-13.579-10.726-26.749,1.994-42.212,13.293-14.775,18.132-47.317,4.589-48.167-13.608-.232-21.606,7.632-18.016,22.372,3.659,14.127,6.271,31.881-2.003,30.356-8.85-2.209-6.685,1.769-8.927-13.447-2.88-15.291-16.518-9.287-14.64-26.552,1.878-17.265,5.528-14.995,20.649-22.711,15.699-7.028,8.265-10.331,24.202-13.591,15.296-3.325,35.791-6.712,27.068-22.011-8.792-14.683-22.055-6.144-18.692-25.119,2.385-15.964,7.173-24.179,7.002-28.564,163.353,62.067,1105.374,414.736,1778.834,508.581,738,103.362,1376.219,127.238,1378.213,126.83l7.767,.222,.805-7.4,2.694-54.615,31.345,10.276c3.005,2.196,14.767,13.458,11.642,36.206-.604,5.551-1.781,10.411-2.251,14.73-3.698,22.058-5.276,30.623,9.288,45.932,11.626,12.497,18.109,12.577,27.936,11.775,3.852,.419,8.475-.326,15.401,1.675,9.558,1.663,10.707,3.036,12.433,5.097,2.938,2.814,6.385,6.932,17.467,12.505,12.937,6.398,20.772,6.004,27.965,5.539,3.916-.197,7.899-1.012,12.764,2.014,15.371,7.909,27.353-.77,38.558-8.287,4.897-3.21,9.789-6.421,13.131-7.305,9.32-2.108,21.11,2.919,29.758,6.98,1.858,.825,3.715,1.652,6.215,2.547,3.072,1.582,6.856,2.619,11.283,3.724,11.413,2.49,27.186,6.702,36.18,19.534,3.886,6.039,6.625,10.703,9.366,15.369,7.64,13.31,12.035,20.652,26.287,20.954,8.341,.907,13.437-4.155,18.53-9.217,4.321-3.896,8.709-8.412,17.797-2.43,9.731,6.05,13.176,10.167,15.408,13.532,3.956,5.421,7.335,10.157,22.842,16.833,13.647,5.855,23.004,9.367,31.345,10.274,9.625,1.047,17.018-1.269,24.241-7.968,4.319-3.898,6.713-8.008,9.817-12.661,3.946-6.431,7.89-12.869,19.039-7.911,9.289,4.132,13.955,9.006,17.534,11.889,7.605,7.692,11.695,11.882,27.059,7.934,9.317-2.104,13.701-6.62,18.731-11.062,4.388-4.516,8.637-7.796,20.631-4.623,11.413,2.49,12.563,3.863,13.714,5.237,2.938,2.816,5.811,6.246,24.658,12.041,12.634,3.246,25.4,5.26,37.017,5.898-9.214,7.111-13.092,12.926-32.372,17.07-25.898,5.294-79.903,36.23-101.904,59.419-22.64,23.118-26.483,34.555-44.509,45.073-18.667,10.45-40.935,36.105-58.251,46.075-17.383,10.59-51.441,31.217-45.283,46.237,6.091,15.636,6.969,19.478,37.322,9.053,30.283-9.808,67.846-38.792,80.85-33.011,13.007,5.783,6.62-1.149,19.041-7.911,13.062-6.69,22.21-13.182,24.651,.187,3.086,13.435,6.808,26.944,13.081,17.019,6.275-9.923-1.532-15.763,3.527-26.443,5.767-11.228,21.012-32.033,24.607-17.29,3.655,14.122-15.958,21.348-17.433,34.914-1.543,14.184,1.742,25.772-12.002,26.771-13.742,1.002-41.631,6.702-24.404,15.443,16.518,9.282,15.096-1.48,33.636,1.16,19.115,3.328,18.722,18.883,35.09,5.69,15.727-13.265,14.952-12.101,27.2-23.247,12.25-11.148,15.833-8.262,33.387-14.463,17.621-6.819,11.677-11.834,33.76-11.926,22.726-.022,33.732-5.692,43.147-14.65,9.414-8.96,38.388-54.475,60.703-62.653,22.317-8.182,30.553-12.275,37.736-24.597,7.826-12.253,9.167-24.583,25.477-25.306,16.31-.722,19.414-5.376,33.26-1.375,14.492,4.073,27.408,28.566,6.435,24.411-21.038-3.537-32.791-2.942-34.132,9.391-1.341,12.331-3.056,22.128-13.793,25.328-10.668,2.582-6.867,27.33-17.95,21.756-10.437-5.503-27.57-21.094-23.578-10.052,3.993,11.042,17.066,16.209,16.195,24.222-.872,8.018-11.742,12.452-5.385,25.622,6.359,13.168,15.035,10.994,27.179-5.156,12.146-16.148,11.295-26.223,29.501-20.498,18.915,5.175,18.369-1.747,37.119,10.898,18.044,13.195,17.133,15.593,29.574,32.542,13.083,17.024,15.35,26.004,37.262,21.525,21.979-5.097,28.726-19.336,40.792-4.924,12.065,14.416,15.859,27.31,31.755,18.429,15.257-8.946,54.662-60.813,77.963-60.152,22.659,.593,8.813-3.409,40.588-3.073,31.777,.339,39.515,6.795,50.988-3.19,11.542-10.598,20.438-32.716,33.283-19.463,12.269,12.565-18.881,42.244-4.658,48.785,13.581,6.466,43.528-.258,61.226,4.163,17.698,4.422,11.714-6.213,29.24-6.178,16.819,.581,26.041,5.329,22.641,18.684-3.335,12.741-9.78,18.277,2.651,23.374,12.497,4.481,36.008,15.149,29.335,28.773-6.613,13.008-49.87,10.799-70.069,5.48-20.131-5.932-24.346,2.968-20.621,16.475,3.724,13.509,3.838,30.368-9.405,20.815-12.537-10.097-16.502-27.373-31.632-31.518-15.13-4.142-33.913-10.551-47.081-8.866-13.236,2.305-16.941,12.509-29.365,19.271-13.064,6.687-13.668,12.238-32.918,10.144-19.891-2.164-44.37,2.038-49.79,22.038-5.424,19.999-19.846,15.311-27.098,28.249-7.319,13.556,11.004,36.138-3.793,28.913-14.73-7.842,5.72-28.703-7.833-41.408-12.842-13.253-11.35-3.108-25.083,9.75-13.025,12.312-16.012-7.979-26.844,2.071-10.124,9.506,3.55,9.124-9.437,27.053-13.56,17.243-14.834,28.96-27.956,48.122-13.122,19.162-8.967,22.731-13.679,42.185-4.712,19.454,5.218,23.656-10.481,30.682-15.123,7.714-27.045,3.923-30.1,26.051-3.631,21.443-23.843,46.075-13.27,50.345,10.573,4.27,27.123,7.318,34.872-16.173,7.684-22.873,8.757-32.741,24.72-42.235,15.391-10.181,19.014-1.675,23.15-21.816,3.497-20.209,1.401-24.807,11.898-31.774,9.856-7.041,9.981-20.129,22.067-23.805,12.729-3.609,26.911-2.689,19.662,10.249-7.319,13.556-16.092,22.584-22.902,37.441-6.81,14.858-44.185,71.939-37.106,96.418,6.433,24.409,13.358,26.41,7.456,38.87-5.258,12.532,6.225,14.404-5.315,25.004-10.832,10.052-18.466,8.599-17.776,26.143,.688,17.544,3.098,78.954-5.292,102.373-8.459,24.039-3.153,28.982,1.145,43.179,4.231,14.808,1.321,5.758,7.249,28.863,5.926,23.107,5.677,49.286,5.073,54.836-.671,6.166-3.081,40.22,3.73,67.165,7.381,27.636,10.582,16.126,23.3,42.467,12.718,26.343,9.919,34.149,31.197,41.455,21.924,7.376,15.794,27.924,44.995,16.125,28.49-11.249,33.311-25.702,52.984-45.399,18.963-19.152,44.851-36.302,48.406-68.983,3.555-32.681,9.685-53.229,1.584-92.169-7.456-38.87-21.438-41.639-24.099-76.87-3.303-35.299-15.926-26.69-25.301-53.915-8.732-27.155-13.328-32.649-7.236-58.814,6.023-25.55-14.739-19.696-8.714-45.248,6.027-25.548,21.607-7.632,26.446-40.176,5.482-32.472-4.786-33.589-1.969-59.488,2.817-25.899,21.088-20.79,20.573-33.95,.125-13.088,24.537-16.672,32.258-33.927,7.721-17.255,9.044-53.299,20.401-38.336,11.291,15.578,4.95,26.119,3.176,48.389-1.131,22.338-4.284,51.322,8.198,32.088,12.479-19.232,19.336-16.615,13.677-42.19-5.725-24.955-16.412-46.083-1.048-50.029,14.785-4.629,25.96-5.91,35.99-8.564,9.453-3.337,14.815-10.867,5.248-24.386-9.567-13.519-17.848-26.899-9.211-34.695,8.708-8.41,3.257-23.978,12.616-20.465,8.716,3.445,9.386-2.722,22.083-.092,12.634,3.246,8.658,15.917,26.053,17.184,16.749,1.199,46.591-10.53,74.163,10.564,27.573,21.094,24.792,10.807,48.536,13.39,23.742,2.583,34.01,3.699,42.501,27.086,8.496,23.385,34.563,22.478,20.388,33.414-14.172,10.935-32.476,12.064-21.359,23.257,10.476,11.122,21.482,5.456,21.262,25.399-.222,19.942-10.383,23.828-3.518,38.302,6.798,15.089,26.93,21.022,10.254,31.064-15.965,9.496-22.659-.593-25.955,17.766-2.653,18.429,10.018,27.295-5.644,39.944-16.233,11.961-32.034,13.985-37.257,32.135-5.22,18.152-2.232,38.444,17.994,37.522,20.869-.85,34.882-4.316,48.309-20.328,12.787-16.079,22.497-33.74,27.755-46.272,5.97-13.075,19.425-35.323,33.85-30.632,13.714,5.234,23.749,14.439,28.222,33.018,3.829,18.509,19.766,15.252,26.229,33.427,6.463,18.173,.63,30.017,6.549,41.268,5.917,11.251,19.785,38.963,24.467,67.549,4.679,28.59,6.854,44.423-.465,57.979-7.249,12.936-19.374,10.992-26.864,20.162-8.133,9.097,6.128,21.256-.615,35.498-6.743,14.242-9.645,17.046-19.356,34.707-9.782,18.277-10.922,28.76-16.275,48.144-5.29,18.766-33.512,27.551-26.848,43.877,6.665,16.321,19.997,7.166,42.187,12.074,22.83,4.98,22.523,1.827,33.307,16.104,11.425,14.344,21.195-15.789,36.807-4.109,15.678,11.067,10.591,27.983,30.274,20.14,19.68-7.841,37.093-24.665,47.962-29.101,10.871-4.432,15.773,4.212,34.544-1.231,18.773-5.446,61.489-51.962,88.048-75.278,26.628-23.932,25.555-14.067,58.836-33.533,32.638-19.536,28.579-29.961,62.195-52.51,33.616-22.549,51.755-16.208,69.973-40.43,17.577-24.296,40.641-69.205,56.062-85.62,15.419-16.42,10.64-38.15-4.022-46.612-14.728-7.839-27.408-28.562-18.23-41.29,9.241-13.347,7.996-7.864,24.803-19.14,16.809-11.273,83.66-28.959,115.542-23.619,32.525,5.409,20.647,19.092,52.818,3.874,32.744-14.533,16.194-17.582,50.299-20.734,34.681-2.469,39.605-11.915,48.168-30.95,9.202-18.965,9-17.116,30.271-21.662,20.566-4.007,20.776-35.803,10.3-46.925-11.186-10.578-7.363-45.724-16.998-58.626-9.699-12.288,.783-20.457,13.512-24.061,16.038-21.58,32.305-38.896,49.409-40.637,0,0,6.57-22.802,14.612-40.332,8.042-17.53,28.451-26.557,28.451-26.557l5.01,1195.397Z" style="fill:#b0db72; fill-rule:evenodd; stroke:#2d80b4; stroke-miterlimit:10;"/><path d="M226.6,243.918s-1.542,28.446,20.602,26.243" style="fill:none; stroke:#2d80b4; stroke-miterlimit:10;"/></g></g></g><g id="uuid-867104fa-df55-4ad8-a7d5-746b5cc9261e"><path d="M992.795-357.014V712.168H-509.593V-357.014H992.795m1-1H-510.593V713.168H993.795V-358.014h0Z" style="fill:#7f9bbd;"/></g><g id="uuid-6f68e508-ab23-4c8f-8f56-7e584bfed5e6"><g><path d="M247.19,156.635l1.633-23.822-3.689-.545,.134-2.423,12.115-1.307-.2,2.649-4.011,1.236-1.632,23.822,8.96-.804,1.247-5.154,2.957-.266-.674,8.61-20.833,1.87,.2-2.649,3.793-1.217Z" style="fill:#3794cd;"/><path d="M281.033,156.821l.861-8.175c-.203,.549-3.115,8.861-8.8,9.483-3.254,.356-6.041-2.632-6.517-6.973-1.164-10.633,4.643-16.978,11.151-17.69,2.821-.309,5.003,.77,5.003,.77l1.208-1.01,2.387-.261-.987,19.872,3.848,.238-.129,2.43-8.025,1.317Zm1.029-19.876s-1.72-.47-3.977-.224c-4.123,.451-8.188,4.63-7.239,13.31,.333,3.038,1.627,4.434,3.146,4.268,5.209-.57,7.701-12.702,7.701-12.702l.368-4.652Z" style="fill:#3794cd;"/><path d="M305.598,133.687l-1.885-.285,.038-2.427,9.24-1.411-.099,2.654-3.088,.971-4.717,7.475,5.262,9.052,3.56,.641-.125,2.438-5.891,.759-5.797-10.479-3.724,.48-.31,11.266-4.114,.53,.957-30.5-3.793-.392,.083-2.432,7.896-1.238-.614,19.494,3.64-.469,3.479-6.127Z" style="fill:#3794cd;"/><path d="M333.219,147.129s-4.109,3.87-9.207,4.62c-4.752,.698-8.221-1.881-8.919-6.633-1.315-8.943,3.266-16.811,10.135-17.821,4.363-.642,7.452,1.155,7.954,4.568,.729,4.968-4.995,9.252-13.938,10.567,.01,.661,.062,1.315,.145,1.876,.451,3.068,2.172,4.271,5.412,3.794,3.154-.464,6.798-2.986,6.798-2.986l1.62,2.013Zm-4.078-14.23c-.279-1.901-1.45-2.655-3.653-2.332-3.153,.464-5.844,4.081-6.299,8.782,6.134-.901,10.372-3.6,9.952-6.451Z" style="fill:#3794cd;"/><path d="M359.771,145.974c-6.4,1.161-11.077-2.118-12.255-8.606-2.196-12.115,3.553-21.767,13.134-23.504,6.961-1.261,11.657,2.369,12.778,8.555,2.275,12.545-3.818,21.771-13.657,23.555Zm9.033-22.14c-.951-5.241-4.141-6.925-8.223-6.186-6.916,1.255-10.005,9.669-8.417,18.434,.873,4.812,3.851,6.801,7.89,6.069,6.874-1.247,10.417-9.122,8.75-18.316Z" style="fill:#3794cd;"/><path d="M394.258,123.325c-.052-.659-.104-1.318-.231-1.916-.338-1.58-1.115-2.708-2.823-2.343-5.551,1.188-6.624,13.698-6.624,13.698l.407,7.949-4.057,.869-1.039-19.872-3.769-.086-.119-2.431,7.768-1.886-.146,8.694c.111-.516,2.021-9.542,8.51-10.931,3.458-.741,5.196,1.121,5.864,4.237,.165,.769,.252,1.599,.306,2.48l.596,12.375,3.768-.136,.117,2.431-7.765,2.108-.762-15.242Z" style="fill:#3794cd;"/><path d="M418.542,131.454s-2.71,2.725-5.086,3.302c-2.886,.7-4.698-.657-5.513-4.009-.194-.807-.336-1.761-.404-2.778l-.986-12.208-4.201,1.021-.203-2.873,4.141-1.454-.45-5.553,3.995-1.869,.486,6.443,5.855-1.422,.264,3.306-5.855,1.422,.926,11.773c.099,1.144,.23,2.056,.395,2.735,.371,1.527,.981,2.008,2.169,1.72,1.189-.288,3.232-1.683,3.232-1.683l1.236,2.126Z" style="fill:#3794cd;"/><path d="M435.795,128.469l-.461-8.208c-.114,.575-1.653,9.246-7.165,10.771-3.155,.874-6.385-1.629-7.551-5.836-2.854-10.308,1.858-17.502,8.169-19.25,2.735-.757,5.063-.042,5.063-.042l1.028-1.191,2.313-.641,2.215,19.772,3.835-.383,.261,2.419-7.708,2.588Zm-2.172-19.784s-1.773-.188-3.962,.417c-3.997,1.107-7.34,5.883-5.01,14.297,.815,2.946,2.317,4.116,3.789,3.708,5.05-1.398,5.564-13.772,5.564-13.772l-.382-4.651Z" style="fill:#3794cd;"/><path d="M456.309,101.634c-4.364,1.407-3.996,13.218-3.996,13.218l1.218,8.325-3.947,1.274-3-19.68-3.8,.309-.364-2.407,7.581-2.675,.711,7.754c.034-.607,.442-8.585,6.261-10.462,1.039-.335,2.212-.254,2.212-.254l.764,6.636-2.701,.871-.938-2.909Z" style="fill:#3794cd;"/><path d="M475.344,115.194l-7.397,3.164-3.78-19.534-3.786,.452-.412-2.406,7.431-2.943,3.781,19.534,3.711-.657,.453,2.391Zm-11.008-24.565c-1.312,.479-2.526,.084-3.004-1.228-.704-1.928-.403-4.036,1.524-4.739,1.312-.479,2.524-.085,3.004,1.227,.703,1.928,.404,4.036-1.524,4.739Z" style="fill:#3794cd;"/><path d="M487.944,111.112c-4.574,1.963-8.727,.04-10.793-4.776-3.617-8.426-1.208-16.207,5.734-19.187,4.935-2.118,8.972,.092,10.936,4.667,3.755,8.747,1.023,16.334-5.877,19.296Zm1.87-17.671c-1.463-3.41-3.866-3.805-6.273-2.771-4.694,2.015-4.823,8.247-2.325,14.065,1.377,3.209,3.665,3.891,6.072,2.857,4.654-1.998,5.283-7.731,2.526-14.151Z" style="fill:#3794cd;"/></g><g><path d="M26.677,128.779l3.969-.793v-21.432h-5.16l-.992,3.969h-2.58v-7.144h21.63v7.144h-2.58l-.992-3.969h-5.16v21.432l3.969,.793v2.381h-12.104v-2.381Z" style="fill:#2a4225;"/><path d="M64.978,120.246c0,6.747-3.969,11.311-9.922,11.311s-9.525-3.572-9.525-10.716c0-6.747,4.167-11.113,10.121-11.113s9.327,4.167,9.327,10.518Zm-15.28,.396c0,4.763,1.587,7.739,5.556,7.739s5.557-2.778,5.557-7.938c0-4.366-1.389-7.541-5.358-7.541s-5.755,2.58-5.755,7.739Z" style="fill:#2a4225;"/><path d="M75.062,113.022c.992-1.111,3.294-3.294,5.993-3.294,1.984,0,3.572,.595,3.572,.595l-.198,5.755h-2.58l-.595-2.977c-2.977,0-4.882,1.945-5.755,3.096v11.788l3.969,.992v2.183h-11.311v-2.183l3.374-.992v-14.685l-3.374-.793v-2.183l6.549-.198,.357,2.897Z" style="fill:#2a4225;"/><path d="M106.061,120.246c0,6.747-3.969,11.311-9.922,11.311s-9.525-3.572-9.525-10.716c0-6.747,4.167-11.113,10.121-11.113s9.327,4.167,9.327,10.518Zm-15.28,.396c0,4.763,1.587,7.739,5.556,7.739s5.557-2.778,5.557-7.938c0-4.366-1.389-7.541-5.358-7.541s-5.755,2.58-5.755,7.739Z" style="fill:#2a4225;"/><path d="M116.144,112.943c.953-.833,4.088-3.215,7.382-3.215,4.366,0,6.351,2.778,6.351,7.144v11.113l2.977,.992v2.183h-9.525v-2.183l2.58-.992v-10.716c0-2.778-.992-4.167-3.572-4.167-3.374,0-5.755,3.175-5.755,3.175v11.708l2.58,.992v2.183h-9.922v-2.183l3.374-.992v-14.685l-3.374-.793v-2.183l6.549-.198,.357,2.818Z" style="fill:#2a4225;"/><path d="M148.533,113.3h-5.755v12.74c0,1.826,.873,2.421,1.984,2.421,.953,0,2.064-.437,3.096-.992l1.071,2.104c-1.786,1.31-3.572,1.984-5.556,1.984-2.381,0-4.564-1.31-4.564-5.755v-12.502h-3.969v-2.58l3.969-.397v-5l3.969-.794v5.794h5.755v2.977Z" style="fill:#2a4225;"/><path d="M170.76,120.246c0,6.747-3.969,11.311-9.922,11.311s-9.525-3.572-9.525-10.716c0-6.747,4.167-11.113,10.121-11.113s9.327,4.167,9.327,10.518Zm-15.28,.396c0,4.763,1.587,7.739,5.556,7.739s5.557-2.778,5.557-7.938c0-4.366-1.389-7.541-5.358-7.541s-5.755,2.58-5.755,7.739Z" style="fill:#2a4225;"/></g><g><circle cx="166.649" cy="161.552" r="17" style="fill:#353031;"/><path d="M166.649,146.553c8.284,0,15,6.716,15,15s-6.716,15-15,15-15-6.716-15-15,6.716-15,15-15m0-4c-10.477,0-19,8.523-19,19s8.523,19,19,19,19-8.523,19-19-8.523-19-19-19h0Z" style="fill:#fff;"/></g></g></svg>