<svg xmlns="http://www.w3.org/2000/svg" xmlns:xlink="http://www.w3.org/1999/xlink" width="380" height="285" viewBox="0 0 380 285"><defs><clipPath id="a"><path d="M84.194,14.423C60.724,20.07,39.74,29.377,25.012,50.277,13.09,67.194,6.693,87.761,3.49,108.487-2.4,146.6-.03,196.4,20.993,229.364c14.446,22.655,38.573,42.412,65.213,44.48,36.56,2.838,73.147,5.356,109.718,8.034,25.011,1.831,50.094,3.663,75.181,2.78,23.21-.817,50.138-1.628,67.986-19.368,20.737-20.612,29.4-55.649,33.963-84.525,5.464-34.625,6.133-78.685-9.3-110.836-10.821-22.549-32.144-38.262-55-47.144C271.593,8.342,231.726,7.535,192.623,5.622a425.013,425.013,0,0,0-97.36,6.47C91.549,12.774,87.853,13.543,84.194,14.423Z" fill="none"/></clipPath><clipPath id="b"><path d="M-161.843,135.038H377.568s85.53,59.352,189.765,51.529S532.419,365.5,532.419,365.5l-589.7-11.958-108.149-206.8Z" fill="none"/></clipPath></defs><g clip-path="url(#a)"><path d="M-201.277-7.02C-160.2-8.3-31.547-3.168,6.291.683S72.713-11.5,150.568-14.722c93-3.851,330.706,28.194,423.706-.048,126.249-38.339-32.706,247.808-32.706,247.808s-746.088-2.568-755.818-8.987S-201.277-7.02-201.277-7.02Z" fill="#b0db72"/><path d="M243.415,90.831c-20.167,0-42.014-2.242-62.418-8.909-31.91-10.428-49.028-8.02-68.849-5.235-15.194,2.136-32.415,4.556-55.672,1.038C3.485,69.706-.406,42.229-2.067,30.5c-.125-.882-.235-1.7-.375-2.425L25.53,23.335c.238,1.228,2.53,2.475,2.7,3.681,1.285,9.075,6.73,17.648,34.384,21.832,17.332,2.623,29.606.9,43.817-1.1,21.718-3.052,46.332-6.512,87.125,6.816,49.4,16.141,177.619-19.409,178.269-19.584l10.616,27.937C380.366,63.48,283.554,90.831,243.415,90.831Z" fill="#3ac4d6"/><g clip-path="url(#b)"><path d="M-161.843,135.038H377.568s85.53,59.352,189.765,51.529-7.765,105.471-7.765,105.471l-682-23.3-43-122Z" fill="#d6a365"/><ellipse cx="335.068" cy="168.538" rx="10.5" ry="7.5" fill="#bf8e5a" opacity="0.6"/><path d="M441.992,167.082c33.512,12.494,77.453,23.079,125.341,19.485,104.235-7.824-63.315,172.955-63.315,172.955L-90.917,337.847l-66.257-169.163Z" fill="#b7865a"/><ellipse cx="218.068" cy="146.038" rx="11.5" ry="5" fill="#bf8e5a" opacity="0.6"/><ellipse cx="154.068" cy="156.038" rx="5.5" ry="5" fill="#bf8e5a" opacity="0.6"/><ellipse cx="352.068" cy="136.538" rx="10.5" ry="7.5" fill="#bf8e5a" opacity="0.6"/><ellipse cx="361.568" cy="177.038" rx="4" ry="3" fill="#d6a365" opacity="0.26"/><ellipse cx="27.568" cy="177.538" rx="10" ry="5.5" fill="#7c6041" opacity="0.38"/><ellipse cx="284.568" cy="204.838" rx="15" ry="10.8" fill="#7c6041" opacity="0.38"/><ellipse cx="53.572" cy="248.444" rx="21" ry="19.133" transform="matrix(0.071, -0.997, 0.997, 0.071, -198.064, 284.137)" fill="#7c6041" opacity="0.38"/><ellipse cx="382.568" cy="209.538" rx="7" ry="6.5" fill="#7c6041" opacity="0.38"/></g></g><polyline points="193.659 67.602 193.674 71.275 193.958 142.519 193.98 148.108" fill="none" stroke="#1b3551" stroke-linecap="round" stroke-miterlimit="10" stroke-width="4.5"/><polyline points="201.006 148.931 194.029 160.406 186.961 148.986" fill="none" stroke="#1b3551" stroke-linecap="round" stroke-linejoin="round" stroke-width="4.5"/><line x1="193.949" y1="140.167" x2="194.024" y2="159.168" fill="none" stroke="#1b3551" stroke-miterlimit="10" stroke-width="4.5"/></svg>