<svg xmlns="http://www.w3.org/2000/svg" xmlns:xlink="http://www.w3.org/1999/xlink" width="380" height="285" viewBox="0 0 380 285"><defs><clipPath id="a"><path d="M84.194,14.423C60.724,20.07,39.74,29.377,25.012,50.277,13.09,67.194,6.693,87.761,3.49,108.487-2.4,146.6-.03,196.4,20.993,229.364c14.446,22.655,38.573,42.412,65.213,44.48,36.56,2.838,73.147,5.356,109.718,8.034,25.011,1.831,50.094,3.663,75.181,2.78,23.21-.817,50.138-1.628,67.986-19.368,20.737-20.612,29.4-55.649,33.963-84.525,5.464-34.625,6.133-78.685-9.3-110.836-10.821-22.549-32.144-38.262-55-47.144C271.593,8.342,231.726,7.535,192.623,5.622a425.013,425.013,0,0,0-97.36,6.47C91.549,12.774,87.853,13.543,84.194,14.423Z" fill="none"/></clipPath><clipPath id="b"><path d="M-161.843,5.117H377.568S463.1,64.47,567.333,56.646,505.458,345.6,505.458,345.6L-45,348.64-165.432,16.823Z" fill="none"/></clipPath></defs><g clip-path="url(#a)"><g clip-path="url(#b)"><path d="M-161.843,5.117H377.568S463.1,64.47,567.333,56.646s-7.765,105.471-7.765,105.471l-682-23.294-43-122Z" fill="#d6a365"/><ellipse cx="335.068" cy="38.617" rx="10.5" ry="7.5" fill="#bf8e5a" opacity="0.6"/><path d="M441.992,37.162C475.5,49.656,519.445,60.241,567.333,56.646c104.235-7.823-69.985,306.236-69.985,306.236L-77.443,326.337-157.174,38.763Z" fill="#b7865a"/><ellipse cx="218.068" cy="16.117" rx="11.5" ry="5" fill="#bf8e5a" opacity="0.6"/><ellipse cx="154.068" cy="26.117" rx="5.5" ry="5" fill="#bf8e5a" opacity="0.6"/><ellipse cx="352.068" cy="6.617" rx="10.5" ry="7.5" fill="#bf8e5a" opacity="0.6"/><ellipse cx="361.568" cy="47.117" rx="4" ry="3" fill="#d6a365" opacity="0.26"/><ellipse cx="27.568" cy="47.617" rx="10" ry="5.5" fill="#7c6041" opacity="0.38"/><ellipse cx="284.568" cy="74.917" rx="15" ry="10.8" fill="#7c6041" opacity="0.38"/><ellipse cx="53.572" cy="118.524" rx="21" ry="19.133" transform="translate(-68.475 163.494) rotate(-85.905)" fill="#7c6041" opacity="0.38"/><ellipse cx="382.568" cy="79.617" rx="7" ry="6.5" fill="#7c6041" opacity="0.38"/></g><path d="M-155.814,237.14c10.179-11.151,27.265-12.767,42.175-10.384s29.344,7.969,44.436,8.406c23.535.681,46.05-11.213,69.59-10.731,22.5.461,44.013,12.215,66.438,10.367,22-1.813,41.763-16.547,63.832-16.323,23.816.242,45.24,17.929,69.014,16.489,21.347-1.293,39.889-17.881,61.272-17.493,20.969.38,38.985,17.053,59.951,17.6,22.989.605,42.434-18.139,65.306-20.536,16.073-1.684,31.769,4.886,47.821,6.752,23.667,2.751,47.189-4.77,69.83-12.194" fill="none" stroke="#32b1d8" stroke-miterlimit="10" stroke-width="10"/><path d="M246.463,169.014c-4.229-3.422-8.752-5.582-14.344-5.5-5.795.086-11.647,2.631-14.389,7.709A10.116,10.116,0,0,0,215,177.93c-.2,8.025,8.468,13.4,15.665,13.709a21.3,21.3,0,0,0,15.8-6.228C250.561,181.333,251.343,172.962,246.463,169.014Z" fill="#7c6041" opacity="0.38"/><path d="M346.3,142.382c-11.039,0-11.057,17.157,0,17.157C357.34,159.539,357.358,142.382,346.3,142.382Z" fill="#7c6041" opacity="0.38"/><path d="M137.6,263.088c-7.26-10.535-23.3-11.816-32.052-2.186-3.239,3.563-5.2,10.335-1.889,14.638,2.264,2.947,4.742,5.774,8.57,6.646a14.045,14.045,0,0,0,10.676-1.827,11.9,11.9,0,0,0,4.039-4.372,28.942,28.942,0,0,0,5.622-.525C137.668,274.453,140.55,267.372,137.6,263.088Z" fill="#7c6041" opacity="0.38"/><path d="M134.144,76.776a3.9,3.9,0,0,0-1.006-1.725l-.378-.48a2.522,2.522,0,0,0-1.086-.7,2.55,2.55,0,0,0-1.3-.291l-.9.121a3.372,3.372,0,0,0-1.49.868l-.378.48a3.885,3.885,0,0,0-1,1.725,2.955,2.955,0,0,0-.07,1.559A2.9,2.9,0,0,0,127,79.789a3.924,3.924,0,0,0,1.4,1.4l.033.022a3.784,3.784,0,0,0,3.881,0l.033-.022a3.927,3.927,0,0,0,1.4-1.4,2.924,2.924,0,0,0,.464-1.454A2.965,2.965,0,0,0,134.144,76.776Z" fill="#7c6041" opacity="0.38"/></g><polyline points="193.656 67.602 193.664 71.275 193.992 214.826 194.005 220.416" fill="none" stroke="#1b3551" stroke-linecap="round" stroke-miterlimit="10" stroke-width="4.5"/><polyline points="201.03 221.25 194.032 232.714 186.984 221.282" fill="none" stroke="#1b3551" stroke-linecap="round" stroke-linejoin="round" stroke-width="4.5"/><polyline points="193.982 210.087 193.992 214.826 194.03 231.475" fill="none" stroke="#1b3551" stroke-miterlimit="10" stroke-width="4.5"/></svg>