<svg xmlns="http://www.w3.org/2000/svg" xmlns:xlink="http://www.w3.org/1999/xlink" width="380" height="285" viewBox="0 0 380 285"><defs><clipPath id="a"><path d="M84.194,14.423C60.724,20.07,39.74,29.377,25.012,50.277,13.09,67.194,6.693,87.761,3.49,108.487-2.4,146.6-.03,196.4,20.993,229.364c14.446,22.655,38.573,42.412,65.213,44.48,36.56,2.838,73.147,5.356,109.718,8.034,25.011,1.831,50.094,3.663,75.181,2.78,23.21-.817,50.138-1.628,67.986-19.368,20.737-20.612,29.4-55.649,33.963-84.525,5.464-34.625,6.133-78.685-9.3-110.836-10.821-22.549-32.144-38.262-55-47.144C271.593,8.342,231.726,7.535,192.623,5.622a425.013,425.013,0,0,0-97.36,6.47C91.549,12.774,87.853,13.543,84.194,14.423Z" fill="none"/></clipPath></defs><g clip-path="url(#a)"><rect x="-10.129" y="-35.298" width="814.004" height="344.833" transform="translate(0.799 -2.291) rotate(0.331)" fill="#c6ebf7"/><path d="M266.936,207.782c31.529-13.126,40.725-28.877,60.43-22.314s48.606,24.939,53.861,24.939,73.778-15.033,73.778-15.033,48.395,68.849,41.827,68.849-106.409,15.751-106.409,15.751-72.253-15.751-76.194-15.751H232.78l35.47-53.816-11.823,1.313" fill="#aadae2"/><path d="M150.36,213.052c-33.388-13.125-43.127-28.876-63.994-22.313s-51.474,24.939-57.038,24.939S-48.8,200.645-48.8,200.645s-51.249,68.848-44.293,68.848S19.59,285.244,19.59,285.244s76.514-15.751,80.688-15.751H186.53l-37.561-53.815,12.52,1.312" fill="#aadae2"/><path d="M79.762,279.321s86.5-162.6,109.483-166.092c16.94-2.571,118.577,168.814,118.577,168.814s-230.8,6-231.859,4.285S79.762,279.321,79.762,279.321Z" fill="#b7b7b7"/><path d="M86.681,254.037c2.378-4.755,86.792-126.026,86.792-126.026s15.456,19.023,8.323,24.967-29.724,47.558-29.724,47.558,24.968,17.833,33.29,26.156,111.34,25.6,111.34,25.6L87.87,273.06Z" fill="#a5a29f"/><path d="M147.426,161.717s16.94-12,24.351-12S193.056,158.739,199.3,160c4.235.857,9.529-16.281,14.822-17.138,4.405-.713,10.058,7.485,10.058,7.485s-20.645-33.193-33.349-36.621c-7.265-1.96-18.682,12.89-28.119,26.608C155.648,150.61,149.693,160.249,147.426,161.717Z" fill="#fff"/><path d="M153.526,153.955s22.22-38.987,31.487-38.113-3.812,12.763-1.434,15.141,8.323,22.59,8.323,23.779-15.456-5.945-19.023-4.756-21.312,14.14-23.69,12.951S153.526,153.955,153.526,153.955Z" fill="#d9dee2"/><path d="M-63.562,239.13c48.842-1.189,201.8,3.566,246.783,7.133S262.192,234.982,354.756,232c110.571-3.567,366.19,208.062,476.76,181.906,150.1-35.508-11.889,47.557-11.889,47.557s-887.045-2.378-898.613-8.322S-63.562,239.13-63.562,239.13Z" fill="#b0db72"/><path d="M311.324,134.423l-.312.027a13.489,13.489,0,0,0-24.285-3.913,10.117,10.117,0,0,0-17.519,6.907c0,.184.018.365.027.547a6.348,6.348,0,0,0,.283,12.689l41.806.428a8.343,8.343,0,1,0,0-16.685Z" fill="#9ab6b7"/><path d="M70.791,207.757c-.12-.548-7.415,14.862-.09,15.433C78.709,223.419,70.962,208.54,70.791,207.757Z" fill="#32b1d8"/><path d="M77.091,180.013c-.12-.548-7.415,14.862-.09,15.434C85.009,195.676,77.262,180.8,77.091,180.013Z" fill="#32b1d8"/><path d="M65.531,162.288c-.12-.548-7.415,14.862-.09,15.434C73.449,177.95,65.7,163.071,65.531,162.288Z" fill="#32b1d8"/><path d="M130.626,162.013c-.12-.548-7.415,14.862-.09,15.434C138.545,177.676,130.8,162.8,130.626,162.013Z" fill="#32b1d8"/><path d="M296.531,185.288c-.12-.548-7.415,14.862-.09,15.434C304.449,200.95,296.7,186.071,296.531,185.288Z" fill="#32b1d8"/><path d="M297.531,154.288c-.12-.548-7.415,14.862-.09,15.434C305.449,169.95,297.7,155.071,297.531,154.288Z" fill="#32b1d8"/><path d="M127.186,88.12c-.12-.548-7.415,14.862-.09,15.433C135.1,103.782,127.357,88.9,127.186,88.12Z" fill="#32b1d8"/><path d="M309.531,173.288c-.12-.548-7.415,14.862-.09,15.434C317.449,188.95,309.7,174.071,309.531,173.288Z" fill="#32b1d8"/><path d="M173.64,97.765c-.12-.549-7.416,14.861-.09,15.433C181.558,113.427,173.811,98.547,173.64,97.765Z" fill="#32b1d8"/><path d="M175.929,56.806l-.44.037a18.981,18.981,0,0,0-34.171-5.506,14.236,14.236,0,0,0-24.651,9.719c0,.26.025.513.039.77a8.931,8.931,0,0,0,.4,17.854l58.825.6a11.738,11.738,0,0,0,0-23.476Z" fill="#7f9998"/><path d="M55.668,130.587l2.435-.216c-.02-.332-.054-.66-.054-1,0-9.6,8.334-17.387,18.614-17.387a19.47,19.47,0,0,1,9.852,2.654A16.37,16.37,0,0,1,102.2,103.9c8.582,0,15.621,6.142,16.374,13.976a16.919,16.919,0,0,1,12.2-5.081,16.461,16.461,0,0,1,15.3,9.75l5.046-.449c10.519,0,19.047,7.966,19.047,17.792s-8.528,17.792-19.047,17.792H55.668c-8.009,0-14.5-6.065-14.5-13.546S47.659,130.587,55.668,130.587Z" fill="#688989"/><path d="M282.046,143.733c-.9-2.888,2.126-5.847,5.151-5.871s5.695,1.981,7.713,4.234c-.234-3.882,4.172-7.254,7.859-6.014" fill="none" stroke="#bdd1d1" stroke-linecap="round" stroke-linejoin="round"/><path d="M68.914,131.891a11.3,11.3,0,0,1,22.247.618,9.471,9.471,0,0,1,17.109,6.978" fill="none" stroke="#7f9998" stroke-linecap="round" stroke-linejoin="round"/><path d="M134.2,144.215a8.362,8.362,0,1,1,16.66-1.4" fill="none" stroke="#7f9998" stroke-linecap="round" stroke-linejoin="round"/><path d="M130.1,61.309a7.23,7.23,0,0,1,11.657,6.5,12.1,12.1,0,0,1,13.263.371" fill="none" stroke="#9ab6b7" stroke-linecap="round" stroke-linejoin="round"/><path d="M216.787,108.385c-.127-.582-7.866,15.766-.095,16.372C225.187,125,216.969,109.215,216.787,108.385Z" fill="#32b1d8"/><path d="M256.135,149.5c-.127-.582-7.866,15.766-.095,16.372C264.536,166.115,256.317,150.33,256.135,149.5Z" fill="#32b1d8"/><path d="M275.368,77.273l-.508.043a21.943,21.943,0,0,0-39.5-6.366,16.458,16.458,0,0,0-28.5,11.236c0,.3.029.594.044.89a10.326,10.326,0,0,0,.461,20.641l68.005.7a13.57,13.57,0,0,0,0-27.14Z" fill="#7f9998"/><path d="M266.719,110.25c-.127-.581-7.866,15.767-.095,16.373C275.12,126.866,266.9,111.081,266.719,110.25Z" fill="#32b1d8"/><path d="M229.735,83.6a7.23,7.23,0,0,1,11.657,6.5,12.1,12.1,0,0,1,13.263.37" fill="none" stroke="#9ab6b7" stroke-linecap="round" stroke-linejoin="round"/></g><path d="M148.825,75.957a24.114,24.114,0,0,0,2.617,1.677c1.024.589,2.063,1.154,3.058,1.793a9.182,9.182,0,0,1,2.643,2.327,3.26,3.26,0,0,1,.229,3.366,6.02,6.02,0,0,1-2.335,2.595c-1.961,1.324-4.23,2.126-6.132,3.545a4.939,4.939,0,0,0-2,2.83,4.017,4.017,0,0,0,.787,3.328,8.725,8.725,0,0,0,2.743,2.2c1.029.582,2.1,1.081,3.14,1.647a11.124,11.124,0,0,1,2.863,2.06,4.048,4.048,0,0,1,1.175,3.219,4.328,4.328,0,0,1-1.97,2.825,22.508,22.508,0,0,1-3.058,1.787,35.277,35.277,0,0,0-3.1,1.71,5.445,5.445,0,0,0-2.343,2.571,8.272,8.272,0,0,0-.159,2.348v2.367" fill="none" stroke="#2e344d" stroke-linecap="round" stroke-miterlimit="10" stroke-width="3.811"/><polyline points="152.928 121.008 146.982 130.569 141.037 120.741" fill="none" stroke="#2e344d" stroke-linecap="round" stroke-linejoin="round" stroke-width="3.811"/><path d="M148.17,113.9a4.7,4.7,0,0,0-.787.989,3.426,3.426,0,0,0-.255.6,2.972,2.972,0,0,0-.145,1.064V129.52" fill="none" stroke="#2e344d" stroke-miterlimit="10" stroke-width="3.811"/><path d="M103.135,161.378a23.959,23.959,0,0,0,2.616,1.678c1.025.589,2.064,1.154,3.059,1.792a9.2,9.2,0,0,1,2.643,2.328,3.262,3.262,0,0,1,.229,3.366,6.024,6.024,0,0,1-2.335,2.594c-1.961,1.325-4.231,2.126-6.132,3.546a4.939,4.939,0,0,0-2,2.83,4.017,4.017,0,0,0,.787,3.328,8.736,8.736,0,0,0,2.743,2.2c1.029.582,2.1,1.082,3.139,1.647a11.116,11.116,0,0,1,2.864,2.061,4.044,4.044,0,0,1,1.174,3.219,4.323,4.323,0,0,1-1.97,2.825,22.327,22.327,0,0,1-3.057,1.786c-1.05.542-2.112,1.066-3.1,1.711a5.443,5.443,0,0,0-2.342,2.571,8.236,8.236,0,0,0-.159,2.348v2.366" fill="none" stroke="#2e344d" stroke-linecap="round" stroke-miterlimit="10" stroke-width="3.811"/><polyline points="107.238 206.43 101.292 215.99 95.347 206.163" fill="none" stroke="#2e344d" stroke-linecap="round" stroke-linejoin="round" stroke-width="3.811"/><path d="M102.48,199.32a4.636,4.636,0,0,0-.787.988,3.394,3.394,0,0,0-.255.6,2.95,2.95,0,0,0-.145,1.064v12.967" fill="none" stroke="#2e344d" stroke-miterlimit="10" stroke-width="3.811"/><path d="M243.234,110.37a24.1,24.1,0,0,0,2.616,1.677c1.024.589,2.063,1.154,3.058,1.793a9.212,9.212,0,0,1,2.643,2.327,3.258,3.258,0,0,1,.229,3.366,6.009,6.009,0,0,1-2.335,2.595c-1.961,1.325-4.23,2.126-6.132,3.545a4.939,4.939,0,0,0-2,2.83,4.019,4.019,0,0,0,.786,3.329,8.74,8.74,0,0,0,2.744,2.2c1.028.582,2.1,1.082,3.139,1.647a11.087,11.087,0,0,1,2.863,2.061,4.042,4.042,0,0,1,1.175,3.219,4.326,4.326,0,0,1-1.97,2.825A22.338,22.338,0,0,1,247,145.572a35.17,35.17,0,0,0-3.1,1.711,5.435,5.435,0,0,0-2.343,2.571,8.3,8.3,0,0,0-.159,2.347v2.367" fill="none" stroke="#2e344d" stroke-linecap="round" stroke-miterlimit="10" stroke-width="3.811"/><polyline points="247.337 155.421 241.391 164.982 235.446 155.155" fill="none" stroke="#2e344d" stroke-linecap="round" stroke-linejoin="round" stroke-width="3.811"/><path d="M242.578,148.312a4.667,4.667,0,0,0-.787.988,3.459,3.459,0,0,0-.255.6,2.975,2.975,0,0,0-.145,1.064v12.968" fill="none" stroke="#2e344d" stroke-miterlimit="10" stroke-width="3.811"/></svg>