<svg xmlns="http://www.w3.org/2000/svg" xmlns:xlink="http://www.w3.org/1999/xlink" width="375.888" height="282.458" viewBox="0 0 375.888 282.458"><defs><clipPath id="a"><path d="M84.194,14.342c-23.47,5.6-44.454,14.824-59.182,35.543C13.09,66.655,6.693,87.044,3.49,107.589c-5.889,37.777-3.52,87.145,17.5,119.828,14.446,22.459,38.573,42.044,65.213,44.094,36.56,2.813,73.147,5.309,109.718,7.964,25.011,1.815,50.094,3.631,75.181,2.756,23.21-.81,50.138-1.614,67.986-19.2,20.737-20.433,29.4-55.165,33.963-83.791,5.464-34.324,6.133-78-9.3-109.874-10.821-22.353-32.144-37.929-55-46.734C271.593,8.314,231.726,7.514,192.623,5.618a428.61,428.61,0,0,0-97.36,6.414Q89.692,13.045,84.194,14.342Z" fill="none"/></clipPath></defs><g clip-path="url(#a)"><rect x="-10.129" y="-35.298" width="814.004" height="344.833" transform="translate(0.799 -2.291) rotate(0.331)" fill="#c6ebf7"/><path d="M256.583,56.386c0-8.078-7.557-14.628-16.878-14.628a18.763,18.763,0,0,0-8.847,2.171,16.108,16.108,0,0,0-28.14-13.041,21.378,21.378,0,0,0-36.389-6.259,16.1,16.1,0,0,0-24.52,13.754c0,.145.018.286.022.431a17.569,17.569,0,0,0-5.273-.806,17.068,17.068,0,0,0-17.253,16.878,16.886,16.886,0,0,0,10.67,15.6c1.628,1.37,5.4,2.073,15.585,2.775,21.755,1.5,84.768.75,96.4-1.5A15.327,15.327,0,0,0,249,68.594C253.569,65.976,256.583,61.487,256.583,56.386Z" fill="#fff" stroke="#fff" stroke-linejoin="round" stroke-width="0.598"/><path d="M150.427,48c.226-5.82,6.616-10.266,12.24-9.014a10.415,10.415,0,0,1,6.663,5.132,10.3,10.3,0,0,1,.956,8.367l-.805-.438a8.793,8.793,0,0,1,10.968-2.029A8.271,8.271,0,0,1,183.736,60.4l-.111-.045a8.489,8.489,0,0,0-3.593-9.622,7.923,7.923,0,0,0-9.822,1.891.467.467,0,0,1-.806-.439,9.622,9.622,0,0,0-.9-7.6c-4.9-8.561-15.763-5.04-18.073,3.414Z" fill="#cee0df"/><path d="M266.936,207.782c31.529-13.126,40.725-28.877,60.43-22.314s48.606,24.939,53.861,24.939,73.778-15.033,73.778-15.033,48.395,68.849,41.827,68.849-106.409,15.751-106.409,15.751-72.253-15.751-76.194-15.751H232.78l35.47-53.816-11.823,1.313" fill="#aadae2"/><path d="M150.36,213.052c-33.388-13.125-43.127-28.876-63.994-22.313s-51.474,24.939-57.038,24.939S-48.8,200.645-48.8,200.645s-51.249,68.848-44.293,68.848S19.59,285.244,19.59,285.244s76.514-15.751,80.688-15.751H186.53l-37.561-53.815,12.52,1.312" fill="#aadae2"/><path d="M79.762,279.321s86.5-162.6,109.483-166.092c16.94-2.571,118.577,168.814,118.577,168.814s-230.8,6-231.859,4.285S79.762,279.321,79.762,279.321Z" fill="#b7b7b7"/><path d="M86.681,254.037c2.378-4.755,86.792-126.026,86.792-126.026s15.456,19.023,8.323,24.967-29.724,47.558-29.724,47.558,24.968,17.833,33.29,26.156,111.34,25.6,111.34,25.6L87.87,273.06Z" fill="#a5a29f"/><path d="M147.426,161.717s16.94-12,24.351-12S193.056,158.739,199.3,160c4.235.857,9.529-16.281,14.822-17.138,4.405-.713,10.058,7.485,10.058,7.485s-20.645-33.193-33.349-36.621c-7.265-1.96-18.682,12.89-28.119,26.608C155.648,150.61,149.693,160.249,147.426,161.717Z" fill="#fff"/><path d="M153.526,153.955s22.22-38.987,31.487-38.113-3.812,12.763-1.434,15.141,8.323,22.59,8.323,23.779-15.456-5.945-19.023-4.756-21.312,14.14-23.69,12.951S153.526,153.955,153.526,153.955Z" fill="#d9dee2"/><path d="M-63.562,239.13c48.842-1.189,201.8,3.566,246.783,7.133S262.192,234.982,354.756,232c110.571-3.567,366.19,208.062,476.76,181.906,150.1-35.508-11.889,47.557-11.889,47.557s-887.045-2.378-898.613-8.322S-63.562,239.13-63.562,239.13Z" fill="#b0db72"/><path d="M188,107.48a5.357,5.357,0,0,1-1.875-2.427,4.237,4.237,0,0,1-.154-2.586,4.724,4.724,0,0,1,1.342-2.22,6.592,6.592,0,0,1,1.037-.806c.384-.209.776-.409,1.168-.605.783-.394,1.569-.786,2.334-1.215a12.217,12.217,0,0,0,4.088-3.244,3.51,3.51,0,0,0,.65-2.484,4.108,4.108,0,0,0-.4-1.244c-.108-.19-.2-.394-.32-.573a5.505,5.505,0,0,0-.437-.492c-2.558-2.439-6.148-3.42-8.667-5.911a3.735,3.735,0,0,1-1.13-2.314,4.219,4.219,0,0,1,.767-2.471,6.212,6.212,0,0,1,1.88-1.811,22.1,22.1,0,0,1,2.273-1.323h0a34.709,34.709,0,0,0,3.448-1.93,5.367,5.367,0,0,0,2.423-3,4.133,4.133,0,0,0-.9-3.686,10.82,10.82,0,0,0-3.177-2.313c-1.162-.621-2.362-1.174-3.487-1.862a6.8,6.8,0,0,1-2.772-2.736,3.941,3.941,0,0,1-.35-1.925,3.36,3.36,0,0,1,.776-1.787,10.458,10.458,0,0,1,3.163-2.33h0c1.221-.663,2.483-1.25,3.678-1.96a6.067,6.067,0,0,0,2.87-2.9,8.272,8.272,0,0,0,.159-2.348V44.605" fill="none" stroke="#2e344d" stroke-linecap="round" stroke-miterlimit="10" stroke-width="3.811"/><polyline points="190.442 43.885 196.39 34.191 202.336 43.886" fill="none" stroke="#2e344d" stroke-linecap="round" stroke-linejoin="round" stroke-width="3.811"/><path d="M194.57,51.408a4.61,4.61,0,0,0,1.66-2.088,5.013,5.013,0,0,0,.159-1.744V35.24" fill="none" stroke="#2e344d" stroke-miterlimit="10" stroke-width="3.811"/><path d="M213.581,137.673a5.365,5.365,0,0,1-1.875-2.428,4.237,4.237,0,0,1-.154-2.586,4.729,4.729,0,0,1,1.342-2.22,6.592,6.592,0,0,1,1.037-.806c.385-.209.776-.408,1.168-.605.783-.394,1.569-.786,2.334-1.215a12.2,12.2,0,0,0,4.088-3.244,3.5,3.5,0,0,0,.65-2.484,4.108,4.108,0,0,0-.4-1.244c-.108-.19-.2-.394-.32-.573a5.357,5.357,0,0,0-.437-.491c-2.558-2.44-6.148-3.421-8.666-5.912a3.728,3.728,0,0,1-1.131-2.314,4.219,4.219,0,0,1,.767-2.471,6.212,6.212,0,0,1,1.88-1.811,21.905,21.905,0,0,1,2.273-1.322h0a34.717,34.717,0,0,0,3.448-1.931,5.364,5.364,0,0,0,2.423-3,4.132,4.132,0,0,0-.9-3.686,10.806,10.806,0,0,0-3.177-2.314c-1.162-.621-2.362-1.173-3.487-1.862a6.8,6.8,0,0,1-2.772-2.736,3.935,3.935,0,0,1-.35-1.924A3.359,3.359,0,0,1,212.1,86.7a10.467,10.467,0,0,1,3.164-2.33h0c1.221-.663,2.483-1.249,3.678-1.959a6.069,6.069,0,0,0,2.87-2.9,8.236,8.236,0,0,0,.159-2.348V74.8" fill="none" stroke="#2e344d" stroke-linecap="round" stroke-miterlimit="10" stroke-width="3.811"/><polyline points="216.022 74.077 221.97 64.384 227.916 74.078" fill="none" stroke="#2e344d" stroke-linecap="round" stroke-linejoin="round" stroke-width="3.811"/><path d="M220.15,81.6a4.618,4.618,0,0,0,1.66-2.089,4.989,4.989,0,0,0,.159-1.744V65.432" fill="none" stroke="#2e344d" stroke-miterlimit="10" stroke-width="3.811"/><path d="M160.877,147.78A5.357,5.357,0,0,1,159,145.353a4.237,4.237,0,0,1-.154-2.586,4.724,4.724,0,0,1,1.342-2.22,6.592,6.592,0,0,1,1.037-.806c.384-.209.776-.409,1.168-.605.783-.394,1.569-.786,2.334-1.215a12.217,12.217,0,0,0,4.088-3.244,3.506,3.506,0,0,0,.65-2.484,4.108,4.108,0,0,0-.4-1.244c-.108-.19-.2-.394-.32-.574a5.635,5.635,0,0,0-.437-.491c-2.558-2.44-6.148-3.42-8.666-5.911a3.731,3.731,0,0,1-1.131-2.314,4.219,4.219,0,0,1,.767-2.471,6.212,6.212,0,0,1,1.88-1.811,22.1,22.1,0,0,1,2.273-1.323h0a34.709,34.709,0,0,0,3.448-1.93,5.367,5.367,0,0,0,2.423-3,4.133,4.133,0,0,0-.9-3.686,10.82,10.82,0,0,0-3.177-2.313c-1.162-.621-2.362-1.174-3.487-1.862a6.8,6.8,0,0,1-2.772-2.736,3.941,3.941,0,0,1-.35-1.925,3.363,3.363,0,0,1,.776-1.788,10.472,10.472,0,0,1,3.163-2.329h0c1.221-.663,2.483-1.25,3.678-1.96a6.067,6.067,0,0,0,2.87-2.9,8.236,8.236,0,0,0,.159-2.348V84.905" fill="none" stroke="#2e344d" stroke-linecap="round" stroke-miterlimit="10" stroke-width="3.811"/><polyline points="163.318 84.185 169.266 74.491 175.212 84.185" fill="none" stroke="#2e344d" stroke-linecap="round" stroke-linejoin="round" stroke-width="3.811"/><path d="M167.446,91.708a4.607,4.607,0,0,0,1.66-2.089,5,5,0,0,0,.159-1.743V75.54" fill="none" stroke="#2e344d" stroke-miterlimit="10" stroke-width="3.811"/></g></svg>