<svg xmlns="http://www.w3.org/2000/svg" xmlns:xlink="http://www.w3.org/1999/xlink" width="380" height="334.846" viewBox="0 0 380 334.846">
  <defs>
    <clipPath id="a">
      <path d="M375.936,220.346c-10.961,76.7-58.99,112.993-181.348,112.993S-3.514,290.487,3.277,200.552C9,124.8,66.268,23.606,169.827,20.8,324.319,16.6,386.852,143.949,375.936,220.346Z" fill="none"/>
    </clipPath>
    <clipPath id="b">
      <polygon points="99.537 27.407 109.135 290.55 132.697 311.045 168.362 320.567 209.514 322.342 245.018 313.143 273.26 297.167 277.294 283.785 286.834 24.755 99.537 27.407" fill="none"/>
    </clipPath>
    <clipPath id="c">
      <ellipse cx="193.186" cy="18.064" rx="93.649" ry="15.355" fill="none"/>
    </clipPath>
  </defs>
  <path d="M375.936,220.346c-10.961,76.7-58.99,112.993-181.348,112.993S-3.514,290.487,3.277,200.552C9,124.8,66.268,23.606,169.827,20.8,324.319,16.6,386.852,143.949,375.936,220.346Z" fill="#dff7e2"/>
  <g clip-path="url(#a)">
    <g>
      <rect x="-30.46" y="247.605" width="443.462" height="102.5" fill="#b4e0bd"/>
      <ellipse cx="193.186" cy="289.255" rx="94.592" ry="38.329" fill="#9fcea3"/>
    </g>
  </g>
  <polygon points="99.537 27.407 109.135 290.55 132.697 311.045 168.362 320.567 209.514 322.342 245.018 313.143 273.26 297.167 277.294 283.785 286.834 24.755 99.537 27.407" fill="#fdda17"/>
  <g clip-path="url(#b)">
    <g opacity="0.6">
      <path d="M121.5,119.76a96.146,96.146,0,0,1-2.805-18.051c-.366-6.034-.774-12.067-1.038-18.1q-.461-9.054-.7-18.114c-.177-6.04-.26-12.082-.2-18.129a3,3,0,0,1,6-.18c.424,6.032.7,12.069.887,18.109s.329,12.08.384,18.123c.1,6.042.053,12.089.049,18.134a96.14,96.14,0,0,1-1.719,18.186.439.439,0,0,1-.854.026Z" fill="#fff"/>
    </g>
    <g opacity="0.6">
      <path d="M124.143,211.233a81.251,81.251,0,0,1-2.76-16.549c-.351-5.533-.744-11.065-.992-16.6q-.44-8.3-.657-16.612c-.162-5.539-.231-11.08-.155-16.626a3,3,0,0,1,6-.18c.408,5.531.671,11.067.841,16.606s.3,11.078.34,16.621c.083,5.541.022,11.087,0,16.631A81.245,81.245,0,0,1,125,211.207a.441.441,0,0,1-.854.026Z" fill="#fff"/>
    </g>
    <g opacity="0.6">
      <path d="M126.554,283.874a38.01,38.01,0,0,1-2.63-11.084c-.307-3.714-.657-7.426-.862-11.143q-.373-5.572-.527-11.153c-.119-3.72-.144-7.442-.024-11.17a3.006,3.006,0,0,1,6-.2c.365,3.712.585,7.428.712,11.148s.213,7.44.209,11.163c.04,3.723-.064,7.45-.126,11.175a37.97,37.97,0,0,1-1.894,11.233.459.459,0,0,1-.854.029Z" fill="#fff"/>
    </g>
    <polygon points="324.022 346.717 221.193 348.919 223.749 -15.121 316.232 -17.101 324.022 346.717" fill="#e2bd23" opacity="0.7"/>
    <rect x="11.257" y="-26.72" width="102.853" height="363.902" transform="translate(-6.34 2.713) rotate(-2.36)" fill="#e2bd23" opacity="0.5"/>
    <g>
      <path d="M289.661,21.032C288.5,12.079,246.467,4.685,193.186,4.685S97.678,12.056,96.711,21.032c0,0-2.222,8.512,6.394,12.088s37.12,11.648,90.093,11.705c54.947.059,83.529-9.766,92.443-13.521a6.522,6.522,0,0,0,3.932-5.08A19.545,19.545,0,0,0,289.661,21.032Z" fill="#a68022" opacity="0.3"/>
      <path d="M187.762,144.268c57.756.965,88.485-12.066,95.724-19.8s.483-13.663.483-13.663,2.413,9.653-11.262,14.641-41.828,12.987-85.749,12.343c-36.99-.826-61.191-7.834-73.556-12.343C99.727,120.457,102.14,110.8,102.14,110.8s-6.757,5.927.483,13.663C109.371,131.677,137.329,143.48,187.762,144.268Z" fill="#a68022" opacity="0.3"/>
      <path d="M188.5,239.512c55.543,1.187,85.094-14.826,92.056-24.33s.464-16.788.464-16.788,1.842,10.924-10.83,17.99c-13.144,7.328-40.3,17.964-82.536,17.174-44.127-.831-59.33-9.806-70.711-16.329C104.43,210.055,104.94,197.7,104.94,197.7s-6.5,7.283.464,16.787C111.894,223.345,140,238.544,188.5,239.512Z" fill="#a68022" opacity="0.3"/>
    </g>
  </g>
  <path d="M289.661,17.55C288.5,8.6,246.467,1.2,193.186,1.2S97.678,8.574,96.711,17.55c0,0-2.222,8.512,6.394,12.089s37.12,11.647,90.093,11.7c54.947.059,83.529-9.766,92.443-13.521a6.521,6.521,0,0,0,3.932-5.08A19.545,19.545,0,0,0,289.661,17.55Z" fill="#fab516"/>
  <ellipse cx="193.186" cy="18.064" rx="93.649" ry="15.355" fill="#bf7f0d"/>
  <path d="M188.062,141.385c57.582.965,88.217-12.066,95.435-19.8s.278-13.776.278-13.776.348,10.08-11.025,14.754c-13.427,5.518-41.7,12.987-85.489,12.343-36.877-.826-60.893-8.152-73.332-12.343-12.083-4.072-11.459-14.754-11.459-14.754s-6.5,6.04.713,13.776C109.911,128.794,137.783,140.6,188.062,141.385Z" fill="#fab516"/>
  <path d="M188.5,236.514c55.543,1.186,85.094-14.826,92.056-24.331s-.01-16.805-.01-16.805a20.973,20.973,0,0,1-10.356,18.007c-12.834,7.859-40.3,17.965-82.536,17.174-44.127-.83-59.462-9.58-70.711-16.329a23.4,23.4,0,0,1-11.313-19.675s-7.192,7.427-.23,16.932C111.894,220.346,140,235.545,188.5,236.514Z" fill="#fab516"/>
  <g>
    <path d="M163.14,192.734c3.876,2.528,7.66,2.895,11.367.869l11.9,21.434a14.941,14.941,0,0,1-3.677,2.156,34.65,34.65,0,0,1-11.37,1.714,33.789,33.789,0,0,1-13.8-3.167,63.466,63.466,0,0,1-5.683-3.318Z" fill="#29272e"/>
    <path d="M157.871,182.975,135,181.392c-.772-9.746,4.084-23.061,15.805-29.295l11.971,21.341A9.831,9.831,0,0,0,157.871,182.975Z" fill="#29272e"/>
    <path d="M202.086,186.03l-22.868-1.582a8.9,8.9,0,0,0-1.39-5.636,16.015,16.015,0,0,0-3.9-4.449L184.918,154.6a38.265,38.265,0,0,1,12.207,13.314C200.347,173.607,202.36,179.572,202.086,186.03Z" fill="#29272e"/>
    <path d="M168.952,190.835a7.859,7.859,0,0,1-7.244-7.735c-.059-3.735,2.487-7.1,6.975-6.661a7.98,7.98,0,0,1,6.811,7.694C175.554,188.135,172.771,191.223,168.952,190.835Z" fill="#29272e"/>
  </g>
  <path d="M188.88,325.478c53.737,1.45,81.338-18.967,87.8-30.741,7.759-14.145,1.045-22.578,1.045-22.578s.672,17.678-12.092,27.858c-11.544,9.2-36.732,19.225-77.6,18.258-14.441-.342-29.369-1.8-43.05-6.692a98.873,98.873,0,0,1-14.623-6.715c-6.821-3.78-13.537-7.506-17.587-14.443-2.84-4.865-4.009-10.967-4.25-16.622a23.466,23.466,0,0,0,1.144,21.932C115.946,306.565,141.958,324.294,188.88,325.478Z" fill="#fab516"/>
  <g clip-path="url(#c)">
    <ellipse cx="193.186" cy="21.796" rx="93.649" ry="16.651" fill="#ffd62c"/>
  </g>
  <path d="M267.979,19.5,251.4,20.688a22.166,22.166,0,0,1-6.556-1.549l-1.214-.452c-2.513-.936-2.449-1.119-2.544-1.837l-.063-2.256,16.643,1.069a22.143,22.143,0,0,1,6.556,1.55l4.5.207C268.968,18.566,269.087,19.422,267.979,19.5Z" fill="#db970f"/>
  <path d="M268.285,17.443l-16.6.884a22.182,22.182,0,0,1-6.526-1.669l-1.206-.474c-2.5-.981-3.619-1.824-2.51-1.883l16.6-.884a22.182,22.182,0,0,1,6.526,1.669l1.206.474C268.27,16.541,269.394,17.384,268.285,17.443Z" fill="#fab516"/>
  <g opacity="0.6">
    <path d="M114.8,124.635c4.771.844,9.219,2.424,13.822,3.626s9.2,2.334,13.863,3.233c4.648.952,9.324,1.781,14.028,2.429,4.7.706,9.426.973,14.141,2.156h0a.149.149,0,0,1-.018.292,43.088,43.088,0,0,1-7.218.293c-2.4-.128-4.793-.327-7.177-.615-4.781-.48-9.524-1.28-14.24-2.193q-7.064-1.434-13.975-3.513c-4.581-1.413-9.245-2.739-13.344-5.439a.149.149,0,0,1,.108-.271Z" fill="#fff"/>
  </g>
  <g opacity="0.6">
    <path d="M101.492,23.78a37.318,37.318,0,0,0,6.747,2.723l3.508,1.077c1.181.326,2.367.631,3.54.974,4.741,1.223,9.522,2.333,14.367,3.136a268.525,268.525,0,0,0,29.29,3.329l3.68.27c1.228.076,2.458.112,3.688.17l7.377.316q7.383.18,14.774.273l14.785-.117c4.929-.1,9.864-.077,14.819.158a.147.147,0,0,1,.144.151.15.15,0,0,1-.128.142c-4.91.649-9.842,1.086-14.778,1.4-4.941.228-9.889.277-14.835.41-2.473.022-4.948-.011-7.423-.014-2.474-.022-4.95.014-7.424-.076l-7.423-.276c-1.237-.051-2.474-.08-3.711-.15l-3.707-.251a242.108,242.108,0,0,1-29.517-3.6,140.319,140.319,0,0,1-14.5-3.447c-1.188-.376-2.363-.791-3.544-1.185-1.171-.43-2.318-.93-3.474-1.391-.574-.243-1.131-.539-1.7-.8a18.231,18.231,0,0,1-1.665-.863,14.28,14.28,0,0,1-3.119-2.162.141.141,0,0,1,.173-.219Z" fill="#fff"/>
  </g>
  <g opacity="0.6">
    <path d="M125.79,220.675c2.338,1.124,4.757,1.99,7.144,2.907,2.418.852,4.833,1.725,7.331,2.362a124.579,124.579,0,0,0,15.157,3.073c1.273.223,2.554.4,3.84.541l3.852.474,7.738.718,7.767.5a60.568,60.568,0,0,1,7.788.9.148.148,0,0,1,.123.17.155.155,0,0,1-.123.123,60.489,60.489,0,0,1-7.841.659c-2.617.015-5.231-.133-7.847-.206-2.613-.155-5.229-.32-7.84-.542l-3.91-.438c-1.3-.134-2.606-.3-3.9-.508a105.635,105.635,0,0,1-15.4-3.379c-1.269-.356-2.516-.793-3.762-1.234-1.256-.4-2.469-.952-3.689-1.457A21.144,21.144,0,0,1,125.6,220.9a.147.147,0,0,1,.171-.233Z" fill="#fff"/>
  </g>
  <g opacity="0.6">
    <path d="M178.241,6.851c6.382-1.2,12.818-1.063,19.231-1.092,6.418-.005,12.836.161,19.248.451,6.409.331,12.816.742,19.2,1.369a116.209,116.209,0,0,1,19.048,2.835.149.149,0,0,1,.106.181.151.151,0,0,1-.141.111c-6.467.179-12.805-.573-19.188-.99q-9.564-.675-19.142-1.1c-6.383-.334-12.772-.523-19.162-.694s-12.771-.012-19.192-.779a.149.149,0,0,1-.132-.163A.151.151,0,0,1,178.241,6.851Z" fill="#fff"/>
  </g>
</svg>
