<svg xmlns="http://www.w3.org/2000/svg" xmlns:xlink="http://www.w3.org/1999/xlink" width="760" height="528" viewBox="0 0 760 528"><defs><clipPath id="a"><path d="M579,0C689.2,12.3,749.49,177.19,757.1,272.73c20.56,258.07-404.35,294.43-587.42,222C101.73,467.83,36.25,427.3,10.87,359.66-21.16,274.29,52.05,54.05,141,11,179.34-7.56,494.58-9.42,579,0Z" fill="none"/></clipPath><clipPath id="b"><path d="M242.11,469.68s105.37,20.05,106.12,17.83a16.89,16.89,0,0,1,.07,3.52l76.9-1.92,42.45,199.24s4.49,18.68-.75,34.37-28.85,109.12-28.85,109.12-9.71,17.48-20.17,17.48-37-3-43.7-9-8.11-15.84-8.11-21.82,15.19-115.69,15.19-115.69L345.5,587.22c-.58,17.53-1,30.29-1,30.29V809.18c0,8.18,0,27.49-16.44,33.43s-28.4,3-41.1,1.49-20.18-34.17-20.18-34.17-11.21-49.78-20.18-176.07S242.11,469.68,242.11,469.68Z" fill="none"/></clipPath><clipPath id="c"><polygon points="313.55 165.83 308.6 223.03 357.22 227.35 354.19 164.95 313.55 165.83" fill="none"/></clipPath><clipPath id="d"><path d="M406.51,101.13c-1.1-10.31-9.41-13.68-18.63-11.16-4.9,1.34-10.42,10.38-11.78,16.25-.49,2.09-2.94,15,.41,16.31,8.52,3.44,15.27.81,21.26-4.06C402.49,114.63,407.23,107.8,406.51,101.13Z" fill="#f8b5a2"/></clipPath><clipPath id="e"><path d="M247.8,130.49c-2.65-10,3.9-16.14,13.41-17.08,5.06-.51,13.45,6,16.82,11,1.2,1.78,8.09,12.91,5.44,15.38-6.72,6.26-14,6.21-21.3,3.81C256.39,141.66,249.51,137,247.8,130.49Z" fill="#f8b5a2"/></clipPath><clipPath id="f"><path d="M317.4,125.18s-12.57,18.76-35.39,4.17c0,0-1.72-14.89,14.86-17.33C313.66,109.55,317.4,125.18,317.4,125.18Z" fill="#fff"/></clipPath><clipPath id="g"><path d="M375,112.69s-10.6,19.93-34.79,7.73c0,0-3.22-14.63,13-18.75C369.67,97.51,375,112.69,375,112.69Z" fill="#fff"/></clipPath><clipPath id="h"><path d="M288.4,204.47s-29.48-.36-44.07,43.77c-15.88,48-27.93,182.72-8.71,197,14.8,11,51.08,21.37,92.53,28.65,13.05,2.29,91.19,5.28,106.5-7.33,20-16.47-8.51-204.71-11.72-221.9-4.15-22.23-22.07-39.43-43.53-40.59,0,0-11.35,29.64-45.68,28.4S288.4,204.47,288.4,204.47Z" fill="none"/></clipPath><clipPath id="i"><path d="M242.11,469.68s-4.49,37.88,4.48,164.18,20.18,176.07,20.18,176.07,7.47,32.68,20.18,34.17,24.66,4.46,41.1-1.49,16.44-25.25,16.44-33.43V617.51s4.49-132.23,3.74-130S242.11,469.68,242.11,469.68Z" fill="none"/></clipPath><clipPath id="j"><path d="M347.38,359.06a467.81,467.81,0,0,0,42.1,58.47c3-.61,6.93-.91,7.31-5-17.68-28.45-43.41-57.7-43.41-57.7a6.5,6.5,0,0,0-3.64,1.14A7.07,7.07,0,0,0,347.38,359.06Z" fill="#fcd230"/></clipPath></defs><path d="M230.63,92.77c31.9-2.49,64.13-3.34,95.62-6.79,82.83-9.09,161.87-36.51,246.3-27.09,110.19,12.3,176.94,118.3,184.55,213.84,20.56,258.07-404.35,294.43-587.42,222C101.73,467.83,36.25,427.3,10.87,359.66c-32-85.37,9.27-195.91,98.22-239C147.43,102.14,188.75,96,230.63,92.77Z" fill="#c4e5b7"/><g clip-path="url(#a)"><path d="M366.56,430H191.44c-28.36,0-49-24.1-46.23-52.73l8.24-85C155.8,268,177.73,249,202.5,249h153c24.77,0,46.7,19,49.05,43.23l8.24,85C415.57,405.9,394.92,430,366.56,430Z" fill="#60b4d8"/><path d="M195.85,255.23a33.26,33.26,0,0,0-17,8.76,45.4,45.4,0,0,0-6.31,7.31,59.76,59.76,0,0,0-4.8,8.47c-5.37,11.92-7.68,25.12-8.64,38.28-.29,3.28-.45,6.65-.67,10l-.62,10-1.27,20c-.44,6.67-.8,13.34-1.27,20s-1.16,13.32-2,20h-.46c-1-13.44-.14-26.79.45-40.15s1.3-26.68,2.16-40.07a144,144,0,0,1,2.85-20.09,89.76,89.76,0,0,1,6.47-19.34c3-6.12,6.86-12,12.19-16.53a32.91,32.91,0,0,1,8.86-5.37,23,23,0,0,1,10.11-1.67Z" fill="#4598b5"/><path d="M425.06,489.11l42.45,199.24s4.48,18.68-.75,34.37-28.85,109.12-28.85,109.12-9.71,17.48-20.18,17.48-37-3-43.7-9-8.1-15.84-8.1-21.82,15.19-115.69,15.19-115.69L341.36,574.3l-6-82.95Z" fill="#42313e"/><path d="M242.11,469.68s-4.49,37.88,4.48,164.18,20.18,176.07,20.18,176.07,7.47,32.68,20.18,34.17,24.66,4.46,41.1-1.49,16.44-25.25,16.44-33.43V617.51s4.49-132.23,3.74-130S242.11,469.68,242.11,469.68Z" fill="#42313e"/><g clip-path="url(#b)"><path d="M230.55,448s-5.78,20.15-4.72,30c2.58,24,165.26,58.38,209,29.19l-6-35.63Z" fill="#281d25" opacity="0.3"/></g><path d="M236.54,441.88s-1.6,16-3.64,31.95,68.71,33,127.89,36.24c31.44,1.7,74.2-4.16,74.73-15.91,0,0-1.21-16-2.46-47.11Z" fill="#7a5d7c"/><polygon points="313.55 165.83 308.6 223.03 357.22 227.35 354.19 164.95 313.55 165.83" fill="#f8b5a2"/><g clip-path="url(#c)"><path d="M359.52,168l-52.45,3.78-2.48,20.06s23.36,16.8,56.92-8.12Z" fill="#b7624b" opacity="0.7"/></g><path d="M376,.88c-.2-.11-.07-.45.15-.42,3.42.44,5.72,4.25,7.2,7a15.41,15.41,0,0,1,1.24,3.19,23.28,23.28,0,0,1,10.15,3c5.62,3.13,8,9,8.92,15a.21.21,0,0,1-.42.08c-1.87-5.87-3.88-10.56-9.29-14a19.06,19.06,0,0,0-9-2.65,17.42,17.42,0,0,1-.85,9.46c-.23.57-1.2.41-1.1-.24a32,32,0,0,0,.16-9.28c-1.33,0-2.66.06-4,.18a.58.58,0,0,1-.21-1.14,20.11,20.11,0,0,1,3.9-.49A14,14,0,0,0,376,.88Z" fill="#f15a24"/><path d="M240.45,89.67c14.39.56,16.91-17.23,12.85-27.86a.7.7,0,0,1,1.26-.62c5.49,10.15,1,32.72-14.24,29.07C240,90.18,240.12,89.66,240.45,89.67Z" fill="#f15a24"/><path d="M245.06,21.82c.3,0,.49.43.18.53-7.5,2.58-8.7,14-3.44,19.28.46.46-.23,1.19-.75.84C234.38,37.82,236.47,23,245.06,21.82Z" fill="#f15a24"/><path d="M275,39.72c6.36-3,7.14-10,5-16.13a.32.32,0,0,1,.57-.28c3.06,5.6,2.63,16.19-5.13,17.63A.65.65,0,0,1,275,39.72Z" fill="#f15a24"/><path d="M337.53,12.07c.11-.34.58-.15.51.18-1.27,5.36,3.6,11.19,7.78,13.93.65.43,0,1.32-.67,1C340.4,24.6,335.73,17.57,337.53,12.07Z" fill="#f15a24"/><path d="M256.28,97c7.07,38.25,43,67.41,79.11,60.74s59.24-49.1,52.16-87.36-42.34-50.66-78.43-44S249.2,58.76,256.28,97Z" fill="#f15a24"/><path d="M406.51,101.13c-1.1-10.31-9.41-13.68-18.63-11.16-4.9,1.34-10.42,10.38-11.78,16.25-.49,2.09-2.94,15,.41,16.31,8.52,3.44,15.27.81,21.26-4.06C402.49,114.63,407.23,107.8,406.51,101.13Z" fill="#f8b5a2"/><g clip-path="url(#d)"><path d="M402.76,98.29c5.7,3.34,6.4,13.86-.6,22-6.61,7.7-14,13.17-19.67,9.83s-6.07-13.11-1-21.92C388.25,96.56,397.06,95,402.76,98.29Z" fill="#f69c83"/><path d="M393.15,97.05c-7.54,2.21-13.83,11-14.23,17.5-.06.89,1.31.84,1.76.17,1.86-2.77,2.74-5.91,4.5-8.75,2.08-3.37,5-5.79,8.33-8.29C393.91,97.38,393.63,96.9,393.15,97.05Z" fill="#b7624b"/></g><path d="M247.8,130.49c-2.65-10,3.9-16.14,13.41-17.08,5.06-.51,13.45,6,16.82,11,1.2,1.78,8.09,12.91,5.44,15.38-6.72,6.26-14,6.21-21.3,3.81C256.39,141.66,249.51,137,247.8,130.49Z" fill="#f8b5a2"/><g clip-path="url(#e)"><path d="M252,126.19c-4.13,5.15-1,15.23,8.43,20.33,8.93,4.82,17.76,7.3,21.89,2.15s1-14.42-6.93-20.82C264.91,119.39,256.11,121,252,126.19Z" fill="#f69c83"/><path d="M260.51,121.59c7.84-.63,16.85,5.31,19.55,11.25.38.81-.93,1.25-1.58.79-2.73-1.92-4.68-4.54-7.33-6.56-3.16-2.41-6.78-3.61-10.75-4.76C259.92,122.17,260,121.62,260.51,121.59Z" fill="#b7624b"/></g><path d="M269,128.12c8.72,40.47,47.76,66.25,72.75,61.33,24.56-3.81,52.79-42.26,46-83.3C381.13,66.1,361.84,35.76,315,44.82,262.66,54.94,261.63,88.18,269,128.12Z" fill="#f8b5a2"/><path d="M328.82,143.21c5.26-1.28,11.63.67,9.73-7.49-1.39-6-4.67-11.54-7-17.22-.22-.53.6-.84.88-.39,4.12,6.6,10.14,14.34,9,22.66-.72,5.45-9.15,4.41-13.13,3.57C327,144,327.44,143.54,328.82,143.21Z" fill="#b7624b"/><path d="M374.13,131.23a8.87,8.87,0,0,1,1.66,14.42c-4.64,4.45-10.1,7.37-15.07,4.65s-6.3-9.22-2.94-14.51S369.16,128.51,374.13,131.23Z" fill="#f69c83"/><path d="M290,145.54a8.87,8.87,0,0,0,3.61,14.06c5.92,2.49,12.07,3.26,15.74-1.06s2.58-10.85-2.45-14.59S293.67,141.22,290,145.54Z" fill="#f69c83"/><path d="M319.58,159c-.11-.69.81-.91,1.24-.39,2.84,3.48,4.79,6.59,9.52,7.52,4.89,1,8.3-2.38,10.69-6,.62-1,2-.78,1.61.63-1.24,5.17-6.32,9.47-12.11,8.81C325.29,169,320.29,163.63,319.58,159Z" fill="#b7624b"/><path d="M310.39,49.47a53.67,53.67,0,0,0,4.41,5.59c-.58-3.54-1-6.91-1.4-9.8A.81.81,0,0,1,315,45c.75,4,1.37,8.29,2.21,12.61a58.86,58.86,0,0,0,12,9.09,60.21,60.21,0,0,0,11.75,5c4.61,1.47,9.73,3,14.6,2.55a.34.34,0,0,1,.13.67c-8.24,2.12-19-2.23-26.21-5.87A54.23,54.23,0,0,1,318,61.2c2.2,9.53,6,18.51,15.19,22.86a.37.37,0,0,1-.25.7c-11-2.7-15.24-14.58-17.44-25.92a49.63,49.63,0,0,1-6.68-8.32C308.2,49.6,309.78,48.57,310.39,49.47Z" fill="#f15a24"/><path d="M373.58,71a.64.64,0,0,1,1.14-.56c4.45,9,8.58,18.5,9.53,28.64.92,9.75-2.82,23.81,7.52,29.57.2.11,0,.44-.17.35-8.35-3.64-8.52-12.22-8.64-20.2A76.76,76.76,0,0,0,380.8,90C379.06,83.42,376.24,77.17,373.58,71Z" fill="#f15a24"/><path d="M381.2,52.59c4.94,5.19,13,8.74,19.32,3.79a.27.27,0,0,1,.35.4c-5.89,6.57-15.93,2.76-20.61-3.38A.62.62,0,0,1,381.2,52.59Z" fill="#f15a24"/><path d="M317.4,125.18s-12.57,18.76-35.39,4.17c0,0-1.72-14.89,14.86-17.33C313.66,109.55,317.4,125.18,317.4,125.18Z" fill="#fff"/><g clip-path="url(#f)"><path d="M292,129.36A10.09,10.09,0,1,0,300.61,118,10.1,10.1,0,0,0,292,129.36Z" fill="#0a6232"/></g><path d="M317.38,125.28h0c.47-.09.85-.16.77-.62,0-.17-3.17-16.84-21.51-14.54-17.37,2.21-15.55,19.07-15.53,19.23a.9.9,0,0,0,1,.8c.47-.09.85-.24.79-.71s-1.45-14,13.82-16.1l.33,0c7-1,12.45.73,16.12,5.22a16.18,16.18,0,0,1,3.34,6.55C316.59,125.52,316.93,125.37,317.38,125.28Z" fill="#742b11"/><path d="M375,112.69s-10.6,19.93-34.79,7.73c0,0-3.22-14.63,13-18.75C369.67,97.51,375,112.69,375,112.69Z" fill="#fff"/><g clip-path="url(#g)"><path d="M348.11,119.46a10,10,0,1,0,7.35-12.18A10.05,10.05,0,0,0,348.11,119.46Z" fill="#0a6232"/></g><path d="M375.06,112.87h0c.47-.09.78-.28.65-.74-.05-.15-4.88-16.44-22.9-12.29-17.06,4-13.54,20.54-13.51,20.7a.89.89,0,0,0,1,.69c.46-.14.81-.33.71-.79s-2.86-13.77,12.11-17.42l.32-.08c6.91-1.68,12.46-.53,16.57,3.57a16.66,16.66,0,0,1,4,6.2C374.25,113.15,374.62,113,375.06,112.87Z" fill="#742b11"/><path d="M266.72,114.14s10-46.79,49.13-53.76c42-7.48,69.39,30.52,68.82,30.63s1.17-71.29-75-56.4C239.69,48.28,266,112.53,266.72,114.14Z" fill="#f15a24"/><path d="M315.93,59.2a72.19,72.19,0,0,1-2.32-7.74c-.66-2.6-1.2-5.23-1.71-7.86s-.91-5.27-1.22-7.94a74.2,74.2,0,0,1-.6-8.06,72.19,72.19,0,0,1,2.32,7.74c.66,2.6,1.2,5.23,1.7,7.86s.91,5.28,1.22,7.94A71.77,71.77,0,0,1,315.93,59.2Z" fill="#c1481d"/><path d="M240.47,76.25c10.75,7.06,26.46,2.14,35.08-11s6.89-29.49-3.86-36.55-26.46-2.14-35.08,11S229.72,69.2,240.47,76.25Z" fill="#f15a24"/><path d="M395.65,47.55C388.14,58,371.72,59,359,49.83s-17-25.08-9.47-35.51S373.43,2.86,386.18,12,403.17,37.11,395.65,47.55Z" fill="#f15a24"/><path d="M367.18,88.8a2.58,2.58,0,0,0,1.79-1,1.84,1.84,0,0,0-.79-3c-5-2.36-14.18-5.49-24.46-.62a2.1,2.1,0,0,0-1.26,2.82,2.73,2.73,0,0,0,3.24,1,34.23,34.23,0,0,1,19.77.46A3.47,3.47,0,0,0,367.18,88.8Z" fill="#f15a24"/><path d="M282.88,104.09a2.55,2.55,0,0,1-2-.3,1.84,1.84,0,0,1-.33-3c3.84-4,11.28-10.2,22.63-9.33a2.1,2.1,0,0,1,2.18,2.18,2.72,2.72,0,0,1-2.66,2.09,34.16,34.16,0,0,0-18.3,7.5A3.61,3.61,0,0,1,282.88,104.09Z" fill="#f15a24"/><path d="M279.47,38.15a66,66,0,0,0-8,8.87c-.6.76-1.13,1.59-1.7,2.36-.28.4-.57.78-.83,1.19l-.76,1.24a56.63,56.63,0,0,0-2.93,5l-1.35,2.58c-.5.83-.77,1.78-1.22,2.64s-.9,1.75-1.22,2.68-.73,1.82-1.13,2.73-.7,1.85-1.07,2.78L258.17,73c-.7,1.89-1.32,3.83-2.21,5.76l-.3,0c.33-2,.61-4,1-6l.69-3a27.37,27.37,0,0,1,.77-3,58.12,58.12,0,0,1,2-5.79,56.11,56.11,0,0,1,2.54-5.58,51.17,51.17,0,0,1,7.12-10,35.56,35.56,0,0,1,9.61-7.55Z" fill="#c1481d"/><path d="M346.06,26.71a57.47,57.47,0,0,1,11.39,4,59.76,59.76,0,0,1,10.37,6.2,57.58,57.58,0,0,1,4.61,3.93c.73.7,1.4,1.45,2.1,2.18l1,1.1.94,1.19a49.32,49.32,0,0,1,6.4,10.23l-.27.13c-2.77-3.11-5.12-6.2-7.94-8.87A73.42,73.42,0,0,0,366,39.3l-1.12-.9-1.18-.82c-.79-.54-1.56-1.12-2.38-1.62s-1.6-1.09-2.42-1.59-1.66-1-2.48-1.53c-3.36-2-6.81-3.89-10.44-5.84Z" fill="#c1481d"/><path d="M270.52,120.9c-4.29-15.52-2.16-33.21,1-48.71.13-.68,1.29-.46,1.19.22-2.81,19.45-5.07,39.39,2.84,58,2.34,5.49,13.75,25.33,4.12,29.91a.24.24,0,0,1-.23-.42c5.34-3.46,1.57-13.07-.25-17.64C276.36,135.08,272.57,128.37,270.52,120.9Z" fill="#f15a24"/><path d="M303.71,57.68c-2.49-1.31-5-2.5-7.56-3.59a73.35,73.35,0,0,0-7.79-2.84,50.39,50.39,0,0,0-8.07-1.63,36.06,36.06,0,0,0-8.29.25,22.72,22.72,0,0,1,8.36-1.41,35.33,35.33,0,0,1,8.42,1.36A45.32,45.32,0,0,1,296.65,53,38.08,38.08,0,0,1,303.71,57.68Z" fill="#c1481d"/><path d="M275.19,86a16,16,0,0,1-5.3-3.85A25.69,25.69,0,0,1,266,76.75a30.78,30.78,0,0,1-2.45-6.09c-.32-1-.5-2.13-.73-3.19s-.28-2.16-.36-3.24c.4,1,.72,2,1.07,3.06s.72,2,1.12,3,.77,2,1.26,2.92.91,1.9,1.41,2.83a39.84,39.84,0,0,0,3.41,5.3A27.89,27.89,0,0,0,275.19,86Z" fill="#c1481d"/><path d="M307.49,38.67c-4.48.09-8.88.16-13.27.44-2.2.11-4.39.34-6.58.56s-4.37.59-6.6.9a31.92,31.92,0,0,1,6.41-2,45.49,45.49,0,0,1,6.67-.9,54,54,0,0,1,6.73,0A36.38,36.38,0,0,1,307.49,38.67Z" fill="#c1481d"/><path d="M327.66,53.25a38.28,38.28,0,0,1,4.94-6.86,44.9,44.9,0,0,1,6.19-5.82,35.28,35.28,0,0,1,7.38-4.29,22.77,22.77,0,0,1,8.31-1.67,36.29,36.29,0,0,0-7.83,2.73,48.9,48.9,0,0,0-6.95,4.42,71.62,71.62,0,0,0-6.26,5.43Q330.46,50.08,327.66,53.25Z" fill="#c1481d"/><path d="M356.25,63.09a39.2,39.2,0,0,0,3.12-5,37.51,37.51,0,0,0,3.77-10.92c.38-1.91.52-3.86.73-5.86a20.46,20.46,0,0,1,.43,6,22.4,22.4,0,0,1-1.21,5.95,22.64,22.64,0,0,1-2.72,5.43A17.62,17.62,0,0,1,356.25,63.09Z" fill="#c1481d"/><path d="M318.3,43.24a42.51,42.51,0,0,1,5.62-5.44,51.4,51.4,0,0,1,6.42-4.51A40.4,40.4,0,0,1,337.5,30a23.27,23.27,0,0,1,7.74-1.24,41.18,41.18,0,0,0-7.33,2.33,67.29,67.29,0,0,0-6.81,3.5c-2.22,1.28-4.35,2.71-6.48,4.15S320.4,41.7,318.3,43.24Z" fill="#c1481d"/><path d="M358.58,29a21.14,21.14,0,0,1-1.35-6.69,19.71,19.71,0,0,1,.88-6.89,14,14,0,0,1,3.73-5.92,13.28,13.28,0,0,1,6.08-3.18,18.69,18.69,0,0,0-5.24,4A13.56,13.56,0,0,0,360.82,13a15.8,15.8,0,0,0-1.29,2.95,25.07,25.07,0,0,0-1.14,6.42A44.14,44.14,0,0,0,358.58,29Z" fill="#c1481d"/><path d="M370.1,35.86a33.39,33.39,0,0,0,6.06-4.56,24,24,0,0,0,4.54-5.85,20.09,20.09,0,0,0,2.41-7,24.42,24.42,0,0,0,.36-3.74,13.39,13.39,0,0,0,0-1.9c0-.64,0-1.28-.05-1.93.16.62.32,1.25.46,1.88a10.36,10.36,0,0,1,.35,1.91,18.34,18.34,0,0,1,.07,3.92,11.67,11.67,0,0,1-.24,2l-.46,1.94c-.17.63-.47,1.23-.7,1.86a10.15,10.15,0,0,1-.86,1.79,21,21,0,0,1-11.91,9.68Z" fill="#c1481d"/><path d="M377.58,45.61A20.05,20.05,0,0,0,390.67,39a20.73,20.73,0,0,0,2.13-3,25,25,0,0,0,1.68-3.35,14,14,0,0,0,.65-1.78l.63-1.81c.31-1.23.6-2.48,1-3.73-.05,1.29-.15,2.59-.27,3.89a39.32,39.32,0,0,1-.89,3.83,21.1,21.1,0,0,1-3.77,7,17.25,17.25,0,0,1-6.49,4.6A15.52,15.52,0,0,1,377.58,45.61Z" fill="#c1481d"/><path d="M256.31,68.48A25.21,25.21,0,0,1,248.19,67a26.22,26.22,0,0,1-7.34-4,20.87,20.87,0,0,1-1.6-1.36l-1.48-1.5c-.46-.54-.87-1.11-1.3-1.67a10.1,10.1,0,0,1-.62-.84l-.52-.92a21.25,21.25,0,0,1-2.73-7.81A33.62,33.62,0,0,0,236.31,56l.56.83c.19.27.43.51.64.76.43.51.84,1,1.3,1.51l1.43,1.38c.46.48,1,.84,1.53,1.27a33.29,33.29,0,0,0,6.85,4.09A44.6,44.6,0,0,0,256.31,68.48Z" fill="#c1481d"/><path d="M262.83,51.78a35.92,35.92,0,0,0-5.1-5.8,24.15,24.15,0,0,0-6.25-4.2A19.29,19.29,0,0,0,244.22,40a28.91,28.91,0,0,0-7.63.88,19,19,0,0,1,7.63-2.05,19.4,19.4,0,0,1,4,.3,20,20,0,0,1,3.86,1.25,20.47,20.47,0,0,1,6.45,4.74A21.69,21.69,0,0,1,262.83,51.78Z" fill="#c1481d"/><path d="M272.7,41.44a20.82,20.82,0,0,0-5.25-6.25,19.73,19.73,0,0,0-7.11-3.62l-2-.44c-.65-.16-1.34-.14-2-.24a29,29,0,0,0-4.07-.1,17.73,17.73,0,0,0-2.05.18l-2.05.2c-1.36.26-2.72.52-4.11.72,1.29-.51,2.62-1,3.95-1.44,1.38-.28,2.75-.65,4.16-.83a23.18,23.18,0,0,1,8.53.51,18.09,18.09,0,0,1,7.49,4.18A16,16,0,0,1,272.7,41.44Z" fill="#c1481d"/><path d="M278.94,207.78s36.56-12.22,109.47-1l4.21,33.36L289.9,238.75Z" fill="#f8b5a2"/><path d="M379,205s61.15-13,99,87c13.71,36.24,28.74,41.66,37,59,17.22,36.14,16.33,59.54-8,69-21.1,8.2-79.71-9.2-77-15s-14.58-71.15-15-82-8-39-8-39" fill="#7a5d7c"/><path d="M288.4,204.47s-29.48-.36-44.07,43.77c-15.88,48-27.93,182.72-8.71,197,14.8,11,51.08,21.37,92.53,28.65,13.05,2.29,91.19,5.28,106.5-7.33,20-16.47-8.51-204.71-11.72-221.9C418.78,222.39,397.46,206.16,376,205c0,0-7.95,28.67-42.28,27.43S288.4,204.47,288.4,204.47Z" fill="#7a5d7c"/><g clip-path="url(#h)"><path d="M217.64,392.29l-1,25.74,8.5,12.08S268,446.27,335.9,425.68c0,0,15.67,14.55,29.1-4.68,0,0,7,2.54,13,0,0,0,15.08,4.64,33.85,9.89s27,6.61,36,5.38l3.2-30.45L416,395l-53-1Z" fill="#49384a" opacity="0.3"/><path d="M252,303s8.37,26.33,7,40c-2,20,17.51,8.6,25,13s23.56-1.59,28,15c13.18,2.52,48.53,10.26,49,16s-22.21,13.15-22.21,13.15L241.2,367.87l-18.86-23.31Z" fill="#49384a" opacity="0.3"/></g><path d="M363.25,476.76c21.27,0,43.7-3.27,67.79-9.31.46-.11,1-.27.92-.73s-.26-.75-.72-.63C325,492.75,238.75,447,237.9,446.56c-.41-.22-.62-.06-.84.36s.24.62.65.85C238.37,448.13,290.13,476.76,363.25,476.76Z" fill="#49384a"/><path d="M419,281s18,54.77,22.5,56.89,14.31-2.48,14.31-2.48-9.05,25.27-2.93,32.93,19.72,3.53,19.72,3.53,26.09,8.18,30.25,17.65,17.15,5.48,23.73-.9c0,0,1.42,14.38-5.58,21.38-8,4-80-1-80-1s-9-56-11-84C427,304,419,281,419,281Z" fill="#49384a" opacity="0.3"/><path d="M368.82,389.52c.06-.18.12-.37.17-.55" fill="none" stroke="#49384a" stroke-linecap="round" stroke-linejoin="round" stroke-width="1.49"/><circle cx="487.75" cy="403.25" r="25.25" fill="#49384a"/><path d="M334.26,243.75c1.08,0,2.17,0,3.29-.07,24.26-1,37.37-10.55,44.09-18.42,7.31-8.57,8.82-16.8,8.89-17.15a.86.86,0,0,0-1.69-.3c-.06.33-6.27,32.36-51.36,34.16-23.6.93-38-8.61-46-16.79A53.17,53.17,0,0,1,279.75,207a.86.86,0,0,0-1.63.53C278.24,207.88,290.46,243.75,334.26,243.75Z" fill="#49384a"/><path d="M345.06,222.05h.13C356,219.71,364,213.8,369.7,204a.64.64,0,0,0-1.11-.65c-5.54,9.49-13.28,15.2-23.67,17.45a.64.64,0,0,0,.14,1.27Z" fill="#e6e6e6"/><path d="M326,223.22a.65.65,0,0,0,.64-.59.64.64,0,0,0-.59-.7c-18.36-1.57-26-18.92-26.05-19.1a.65.65,0,0,0-.85-.34.65.65,0,0,0-.34.85c.08.18,8,18.23,27.13,19.87Z" fill="#e6e6e6"/><path d="M345.68,219.65s-11.23,2.57-21.65,1l-.25,4.74S332,227.3,346.65,224Z" fill="#e6e6e6"/><path d="M441.39,408.52q-1.15-4.35-2.11-8.75c-.67-2.93-1.28-5.87-1.86-8.82-1.15-5.89-2.15-11.81-3.14-17.73s-1.9-11.86-2.71-17.81-1.5-11.93-1.89-18c-.46-11.94-2.84-23.69-5.54-35.35-1.36-5.83-2.91-11.61-4.44-17.4l-4.6-17.4.21-.06a289.38,289.38,0,0,1,10.36,34.5c1.4,5.84,2.69,11.72,3.75,17.65.48,3,1,5.94,1.31,8.95.21,1.49.33,3,.43,4.51s.22,3,.32,4.5c.36,5.95,1,11.9,1.77,17.84s1.63,11.86,2.59,17.78,2,11.82,3,17.73c.5,2.95,1,5.91,1.45,8.88s.92,5.92,1.34,8.9Z" fill="#49384a"/><g clip-path="url(#i)"><path d="M293,846.73c-.22-.24-13.65-10.65-18-34.73-11.36-62.68-31.8-227.28-34-288.08l-4.09,42.92L259.5,837.32Z" fill="#281d25"/></g><rect x="-5.83" y="413.08" width="780.51" height="168.92" fill="#bd854a"/><path d="M718.66,436.55a47.19,47.19,0,0,0-23.78.61c-.49.13-1,.29-1.44.45s-.94.3-1.38.5a8.79,8.79,0,0,0-2.43,1.56,4.27,4.27,0,0,0-1.39,2.36,3.52,3.52,0,0,0,.56,2.6,5.07,5.07,0,0,0,2.25,1.61,13.33,13.33,0,0,0,2.86.73c2,.4,4,.71,5.94,1a132.61,132.61,0,0,0,24.06,1.35,162.72,162.72,0,0,0,24-2.88s0,0,0,0,0,.05,0,.06a113.22,113.22,0,0,1-23.95,3.49,132.45,132.45,0,0,1-24.21-1.26c-2-.32-4-.65-6-1.05a15,15,0,0,1-3-.79,5.79,5.79,0,0,1-2.58-1.89,4.25,4.25,0,0,1-.68-3.17,5.09,5.09,0,0,1,1.62-2.77,9.45,9.45,0,0,1,2.65-1.68,12,12,0,0,1,1.45-.52c.48-.16,1-.32,1.46-.46a41.94,41.94,0,0,1,24,0s0,0,0,.06A.05.05,0,0,1,718.66,436.55Z" fill="#b0783e"/><path d="M758.61,466.13A75.25,75.25,0,0,1,739,473.94a95.18,95.18,0,0,1-21,2.66c-14.17.3-28.21-2.28-41.89-5.65s-27.17-7.66-40.87-11l-10.28-2.43-10.37-2.07L612,455l-2.61-.43-5.21-.85-5.22-.85c-1.74-.25-3.49-.46-5.24-.68l-5.24-.67c-1.75-.23-3.49-.46-5.25-.6l-10.53-1c-7-.42-14.06-.91-21.11-1a365.12,365.12,0,0,0-42.22,1.49,401.17,401.17,0,0,0-41.82,6.08c-13.81,2.81-27.46,6.36-41,10.46a0,0,0,0,1-.06,0,0,0,0,0,1,0-.06A389,389,0,0,1,467.42,456l10.39-2c3.47-.63,7-1.11,10.45-1.67s7-1,10.5-1.39,7-.87,10.53-1.11a366.42,366.42,0,0,1,42.3-1.49c7.06.05,14.1.55,21.15,1l10.54,1c1.76.13,3.51.37,5.26.59l5.25.67c1.75.23,3.5.43,5.25.68l5.23.85,5.22.86,2.61.43,2.6.52,10.38,2.07,10.3,2.44c13.73,3.31,27.18,7.6,40.87,11S703.88,476.15,718,476a95.54,95.54,0,0,0,20.91-2.48A79.38,79.38,0,0,0,758.56,466a.06.06,0,0,1,.07,0A.07.07,0,0,1,758.61,466.13Z" fill="#b0783e"/><path d="M754.92,500.82A124.24,124.24,0,0,1,729,513.16a152.63,152.63,0,0,1-28,6.45,194.21,194.21,0,0,1-28.72,1.53c-9.59-.2-19.16-.95-28.68-2.07-19.05-2.22-37.89-5.76-56.82-8.66-4.73-.73-9.47-1.42-14.22-2s-9.5-1.23-14.26-1.7L544,505.42c-4.77-.36-9.55-.6-14.33-.91q-28.68-1.45-57.41-.09a569.69,569.69,0,0,0-57.11,5.81A599.22,599.22,0,0,0,304,538.43s0,0-.06,0a.05.05,0,0,1,0-.07c18-6.67,36.28-12.37,54.82-17.22,4.65-1.15,9.28-2.41,13.95-3.47l14-3.08c9.41-1.81,18.82-3.63,28.31-5a567.87,567.87,0,0,1,57.18-5.82q28.72-1.37,57.48.09c4.78.31,9.57.55,14.35.91l14.31,1.31c4.77.47,9.52,1.15,14.27,1.71s9.51,1.25,14.24,2c18.94,2.9,37.78,6.43,56.8,8.65,9.5,1.12,19.05,1.86,28.61,2.07A205.85,205.85,0,0,0,700.92,519a152.86,152.86,0,0,0,28-6.26,130.62,130.62,0,0,0,26-12,.05.05,0,0,1,.06.08Z" fill="#b0783e"/><path d="M.49,491.27a224,224,0,0,0,44.56-6.19c14.63-3.45,29-7.84,43.28-12.56s28.47-9.68,42.84-14.14c3.6-1.08,7.19-2.21,10.81-3.24l5.43-1.52c1.81-.51,3.63-1,5.46-1.45,7.28-1.89,14.64-3.47,22-4.86,29.62-5.53,59.87-6.73,89.92-5.9,15,.42,30.06,1.32,45.05,2.59s29.95,2.72,44.9,4.35a0,0,0,0,1,0,0,.05.05,0,0,1-.05.05c-15-1.31-29.95-2.75-44.94-3.88s-30-2.08-45-2.49c-30-.82-60.22.37-89.78,5.89-7.38,1.39-14.73,3-22,4.85-1.82.44-3.63.94-5.44,1.45l-5.43,1.52c-3.61,1-7.19,2.16-10.79,3.23-14.35,4.46-28.54,9.44-42.83,14.14s-28.66,9.2-43.35,12.5-29.64,5.6-44.7,5.71a.05.05,0,0,1,0-.1Z" fill="#b0783e"/><path d="M99.53,428.27c20,1.26,39.95,2.39,59.95,3s40,.78,60,.46,40-1.11,60-2.37l15-1,15-1.16,14.95-1.31c5-.51,10-.95,14.94-1.41,0,0,.05,0,.06,0a0,0,0,0,1,0,.05c-5,.59-9.93,1.19-14.91,1.73l-14.94,1.47-15,1.26-15,1q-30,1.89-60,2.38t-60-.46c-20-.63-40-1.71-59.94-3.59,0,0,0,0,0-.05A0,0,0,0,1,99.53,428.27Z" fill="#b0783e"/><path d="M302.46,486.92a363.29,363.29,0,0,0-39.3-5.29c-13.18-1.09-26.39-1.78-39.61-2s-26.46-.05-39.66.65c-6.6.35-13.2.84-19.76,1.58-3.29.38-6.56.82-9.81,1.39a49.94,49.94,0,0,0-9.51,2.46,7.43,7.43,0,0,0-2,1.17c-.1.12-.1.17-.08.23a.84.84,0,0,0,.3.3,4.33,4.33,0,0,0,1,.48,29.19,29.19,0,0,0,4.77,1.07c3.26.51,6.55.84,9.84,1.11,6.58.55,13.19.86,19.8,1.1,13.22.45,26.45.54,39.67.38s26.45-.59,39.66-1.27,26.41-1.75,39.5-3.62c0,0,.06,0,.06,0a.05.05,0,0,1,0,.06,390,390,0,0,1-39.48,4.09c-13.22.84-26.45,1.21-39.69,1.38s-26.47.06-39.7-.39c-6.62-.24-13.23-.55-19.84-1.09-3.3-.28-6.6-.61-9.88-1.12a30.34,30.34,0,0,1-4.9-1.1,5.62,5.62,0,0,1-1.19-.57,1.39,1.39,0,0,1-.54-.6.9.9,0,0,1,.18-.91,7.48,7.48,0,0,1,2.25-1.35,48.88,48.88,0,0,1,9.66-2.51c3.27-.58,6.56-1,9.85-1.4,6.58-.74,13.19-1.23,19.8-1.58,13.22-.71,26.47-.87,39.71-.65s26.47.83,39.65,2.07a318.55,318.55,0,0,1,39.27,5.8s0,0,0,.05S302.49,486.93,302.46,486.92Z" fill="#b0783e"/><path d="M340.11,492a176.75,176.75,0,0,1-42.25,15.84A244.84,244.84,0,0,1,253.09,514c-30.16,1.57-60.29-1-90.31-3.25s-60.23-3.87-90.19-.61a224.23,224.23,0,0,0-44.11,9.14,172.92,172.92,0,0,0-40.72,19.2,0,0,0,0,1-.06,0,0,0,0,0,1,0-.07A164.5,164.5,0,0,1,28.3,518.76a214.62,214.62,0,0,1,44.22-9.27c30-3.26,60.3-1.65,90.31.61s60.13,4.81,90.22,3.25a256.49,256.49,0,0,0,44.67-6.05A186.48,186.48,0,0,0,340.07,492a0,0,0,0,1,.06,0S340.14,492,340.11,492Z" fill="#b0783e"/><path d="M742.17,427.58a436.63,436.63,0,0,0-57.65.19c-9.6.67-19.16,1.76-28.67,3.16-2.38.33-4.75.74-7.12,1.12s-4.8.73-6.58,2.24a5.66,5.66,0,0,0-1.72,6.14,5.14,5.14,0,0,0,2.32,2.38A33.2,33.2,0,0,0,646,444.3,165.87,165.87,0,0,0,701.66,458a169.61,169.61,0,0,0,28.77-.55,171.45,171.45,0,0,0,28.29-5.43,0,0,0,0,1,.06,0,0,0,0,0,1,0,.06,157.26,157.26,0,0,1-57.13,6.55,166.45,166.45,0,0,1-55.89-13.79,33.87,33.87,0,0,1-3.31-1.52,5.84,5.84,0,0,1-2.61-2.7,5.5,5.5,0,0,1-.12-3.77,6.85,6.85,0,0,1,2-3.15,8.94,8.94,0,0,1,3.32-1.69,32.36,32.36,0,0,1,3.58-.71c2.37-.37,4.75-.79,7.13-1.12,9.53-1.4,19.11-2.49,28.72-3.17a350.79,350.79,0,0,1,57.71.4,0,0,0,0,1,.05.05S742.2,427.59,742.17,427.58Z" fill="#b0783e"/><path d="M538.5,482.14c19.15-2.08,38.51-.85,57.59,1.36s38.07,5.44,57.14,7.83,38.29,3.88,57.46,2.72a182.08,182.08,0,0,0,28.48-4,146.16,146.16,0,0,0,27.31-9,0,0,0,0,1,.06,0,0,0,0,0,1,0,.06c-17.38,8.35-36.6,12.43-55.79,13.56s-38.52-.33-57.59-2.72-38-5.62-57.13-7.83-38.32-3.38-57.5-1.93a.06.06,0,0,1-.06-.05A0,0,0,0,1,538.5,482.14Z" fill="#b0783e"/><path d="M455.54,529.72a261.86,261.86,0,0,1,37.75-4.79c12.68-.7,25.39-.58,38.08,0,25.37,1.16,50.59,4.21,75.81,6.93,12.61,1.36,25.23,2.63,37.88,3.6s25.32,1.52,38,1.54c25.34.13,50.75-2.59,75.27-9.16,0,0,.06,0,.06,0a0,0,0,0,1,0,.06,239.06,239.06,0,0,1-37.29,7.57l-4.73.55c-1.58.18-3.15.38-4.74.47l-9.5.7-9.52.34c-1.58.08-3.17.09-4.76.09l-4.76,0c-12.7,0-25.39-.6-38-1.54s-25.29-2.24-37.9-3.6c-25.23-2.72-50.44-5.77-75.78-6.93q-19-.89-38-.05a294.22,294.22,0,0,0-37.77,4.29s-.05,0-.05,0A0,0,0,0,1,455.54,529.72Z" fill="#b0783e"/><path d="M143.54,526.74c26-2.69,52.38-.07,78,5.12s50.68,12.75,75.63,20.44,49.86,15.6,75.29,21.51c12.71,3,25.54,5.37,38.48,7.06a272.39,272.39,0,0,0,39,2.26,0,0,0,1,1,0,.09,244.75,244.75,0,0,1-39.12-1.78,359.26,359.26,0,0,1-38.56-7c-25.47-5.92-50.4-13.82-75.34-21.52s-50-15.27-75.56-20.43a334.73,334.73,0,0,0-38.71-5.58,241.91,241.91,0,0,0-39.1-.1,0,0,0,0,1-.05-.05S143.52,526.74,143.54,526.74Z" fill="#b0783e"/><path d="M278.06,467.48A266.31,266.31,0,0,0,243.29,463a295,295,0,0,0-35.06.24l-2.19.12-2.18.2-4.37.41c-2.91.28-5.82.51-8.72.93l-8.7,1.13-8.66,1.4c-1.44.24-2.89.46-4.32.72l-4.31.83c-2.87.57-5.75,1.08-8.61,1.7-5.71,1.25-11.44,2.48-17.11,3.91C116.3,480,94,487.09,71.62,494.09a304.26,304.26,0,0,1-34,8.85,133.47,133.47,0,0,1-35,2.38s0,0,0-.06a0,0,0,0,1,.05,0,141.76,141.76,0,0,0,34.87-2.84,341.2,341.2,0,0,0,33.92-8.93c22.33-7,44.69-14.07,67.47-19.55,5.68-1.44,11.41-2.66,17.13-3.92,2.86-.62,5.75-1.13,8.62-1.7l4.32-.83c1.44-.27,2.89-.48,4.33-.72l8.68-1.4,8.71-1.14c2.9-.42,5.82-.65,8.74-.93l4.38-.41,2.18-.2,2.2-.12L217,462c2.92-.11,5.86-.1,8.79-.15l4.39-.05,4.39.14,4.4.16c1.46.08,2.93.07,4.39.23l8.76.76,2.18.2,2.18.3,4.35.6,4.36.61c1.45.17,2.88.53,4.31.8l8.61,1.74s.05,0,0,.06S278.09,467.48,278.06,467.48Z" fill="#b0783e"/><path d="M252.68,412.87c-20.69,4.42-41.92,5.74-63,5.87s-42.26-.8-63.38-1.1-42.27.13-63.2,2.93a247.71,247.71,0,0,0-31,6.16A197,197,0,0,0,2.26,437.38s0,0-.07,0a0,0,0,0,1,0-.06c19-9.24,39.81-14.62,60.75-17.39s42.18-3.24,63.3-2.94,42.25,1.25,63.36,1.1,42.26-1.41,63-5.3c0,0,.05,0,.05,0S252.71,412.86,252.68,412.87Z" fill="#b0783e"/><path d="M14,444.13a177,177,0,0,1,21.64-3c7.27-.62,14.55-.9,21.84-1s14.59.1,21.86.73a81.43,81.43,0,0,1,10.84,1.6,17.51,17.51,0,0,1,5.2,1.94A3.16,3.16,0,0,1,97,446.88a2.42,2.42,0,0,1-.53,1.45,5.56,5.56,0,0,1-1,1,20.71,20.71,0,0,1-5,2.49c-1.72.65-3.46,1.2-5.21,1.71-3.51,1-7,1.9-10.59,2.76-7.07,1.75-14.19,3.26-21,5.75-6.91,2.29-14,4.38-21.26,5.11a49.49,49.49,0,0,1-10.95,0,36.31,36.31,0,0,1-10.55-2.83,0,0,0,0,1,0-.06,0,0,0,0,1,.06,0,43.81,43.81,0,0,0,21.4,2.35,108.64,108.64,0,0,0,21.11-5.17c6.86-2.51,14-4,21.09-5.77,3.53-.86,7.06-1.74,10.55-2.75,1.74-.51,3.47-1.06,5.16-1.7A20.36,20.36,0,0,0,95,448.82a2.81,2.81,0,0,0,1.31-1.94A2.57,2.57,0,0,0,95,445a16.49,16.49,0,0,0-5-1.84,80.37,80.37,0,0,0-10.74-1.59c-7.24-.63-14.52-.78-21.79-.72s-14.54.4-21.8.92S21.2,443,14,444.22a0,0,0,0,1-.06,0S14,444.13,14,444.13Z" fill="#b0783e"/><path d="M201,400s24,39.64,60,39,52,0,52,0l23.87,49.07L599,478l-50.15-36.21L339,400Z" fill="#a86538" opacity="0.54"/><polygon points="501.07 451.27 473.22 474.43 433.59 407.81 316.41 404.99 341.58 483.72 473.22 478.81 599 478.81 599 473.46 501.07 451.27" fill="#aaaab3"/><path d="M318.54,406.29c43.63,0,101.65-9.29,111.9-1.44l42.16,69.36c-28.88-12.16-66,6.75-131.54,2.7Z" fill="#eeeef0"/><path d="M472.6,474.21c29.67-12.84,65.93,2.12,125.77-1l-64.45-64c-40.52,2.2-81.08-16.36-103.48-4.4Z" fill="#eeeef0"/><path d="M599.21,473.14c.25,1.82.4,3.63.56,5.44l.06.69-.81.09c-10.48,1.08-21,.87-31.48,1-5.25,0-10.49,0-15.73-.06s-10.49-.09-15.73-.21l-31.43-.62-15.7-.2c-5.23-.07-10.45-.25-15.71-.44h0a.2.2,0,0,1-.2-.21.2.2,0,0,1,.17-.2c10.41-2,21-1.91,31.46-2s21,.09,31.46.24l31.43.53c10.48.23,20.94,0,31.42.62l-.75.77c.16-1.81.31-3.62.56-5.44a.21.21,0,0,1,.42,0Z" fill="#589994"/><path d="M472.6,478.79c-11,1-21.89,1.79-32.85,2.37l-32.89,1.75c-21.94,1.1-43.87,2.2-65.91,2.23h-1.2l-.36-1.15-11-35.06q-2.76-8.76-5.31-17.59t-4.72-17.78a.21.21,0,0,1,.16-.25.21.21,0,0,1,.24.13q3.44,8.54,6.48,17.21t5.88,17.41L342.52,483,341,481.85c10.94,0,21.91-.43,32.87-.83s21.92-.87,32.89-1.34l32.91-1.37c5.49-.21,11-.37,16.48-.39s11,.07,16.5.46a.2.2,0,0,1,.19.22A.21.21,0,0,1,472.6,478.79Z" fill="#589994"/><path d="M472.12,478.1c-.7-.35-.59-.71-.66-1.06a6,6,0,0,1,0-2.13,1.08,1.08,0,0,1,.65-1.06.22.22,0,0,1,.21,0,1.08,1.08,0,0,1,.65,1.06,6,6,0,0,1,0,2.13c-.07.35,0,.71-.66,1.06A.26.26,0,0,1,472.12,478.1Z" fill="#91919e"/><path d="M386.63,428a6.24,6.24,0,0,1,5.14-1.83,6.34,6.34,0,0,1,4.84,2.77.33.33,0,0,1,0,.38h0a1.64,1.64,0,0,1-1.24.59,2.3,2.3,0,0,1-1.27-.36,2.25,2.25,0,0,1-1.12-2.27,2.84,2.84,0,0,1,1.56-2A3.75,3.75,0,0,1,397,425a7.3,7.3,0,0,1,3.88,2.65,18.34,18.34,0,0,0,3.05,3.21.39.39,0,0,1,.1.54.39.39,0,0,1-.17.14,2.8,2.8,0,0,1-3.3-1,2.69,2.69,0,0,1-.52-1.76,3.26,3.26,0,0,1,.6-1.69,3.6,3.6,0,0,1,3.08-1.56,4.67,4.67,0,0,1,3.14,1.37.43.43,0,0,1-.37.73,1.39,1.39,0,0,1-1-1.83.36.36,0,0,1,.11-.16,3.93,3.93,0,0,1,5.7.87l-.66-.05a4.49,4.49,0,0,1,6.18-.48.4.4,0,0,1,.05.56.39.39,0,0,1-.35.13,1.06,1.06,0,0,1-.83-.64,1.08,1.08,0,0,1,.09-1,.39.39,0,0,1,.23-.15,5.44,5.44,0,0,1,6.14,3.62.36.36,0,0,1-.24.47.41.41,0,0,1-.22,0,8.87,8.87,0,0,1-2.62-1.1,3.19,3.19,0,0,1-1.46-2.58,2.21,2.21,0,0,1,.57-1.5,2.54,2.54,0,0,1,1.38-.72,8.14,8.14,0,0,1,2.84.1,26.67,26.67,0,0,1,10.26,3.85.07.07,0,0,1,0,.07.05.05,0,0,1-.07,0,31.53,31.53,0,0,0-10.3-3.31,7.61,7.61,0,0,0-2.6-.05,1.55,1.55,0,0,0-1.38,1.54,2.47,2.47,0,0,0,1.16,2,8.37,8.37,0,0,0,2.41,1l-.46.46a4.68,4.68,0,0,0-5.26-3.07l.23-.15a.29.29,0,0,0,0,.26.28.28,0,0,0,.2.18l-.3.69a3.7,3.7,0,0,0-5,.41.41.41,0,0,1-.58.05l-.09-.1a3.09,3.09,0,0,0-4.44-.66l.12-.17a.55.55,0,0,0,.38.67l-.37.73a3.81,3.81,0,0,0-2.56-1.14,2.74,2.74,0,0,0-2.39,1.19,2.14,2.14,0,0,0-.1,2.51,2,2,0,0,0,2.33.78l-.06.68a18.89,18.89,0,0,1-3.18-3.35,6.6,6.6,0,0,0-3.45-2.42,2.66,2.66,0,0,0-3.14,1.73,1.52,1.52,0,0,0,.79,1.54,1.22,1.22,0,0,0,1.62,0l0,.39a6,6,0,0,0-4.33-2.65,6.19,6.19,0,0,0-5,1.43.06.06,0,0,1-.08,0A.09.09,0,0,1,386.63,428Z" fill="#a9a9c4"/><path d="M340.69,445.36a4.66,4.66,0,0,1,3.19,0,4.61,4.61,0,0,1,2.48,2.08l-.37.16a4.16,4.16,0,0,1,2.24-5,4.2,4.2,0,0,1,5.21,1.84.34.34,0,0,1,0,.24h0a.92.92,0,0,1-.62.61,1.37,1.37,0,0,1-.78,0,1.48,1.48,0,0,1-.65-.4,1.24,1.24,0,0,1-.32-.73,2.1,2.1,0,0,1,.35-1.34,4,4,0,0,1,.86-1,7.13,7.13,0,0,1,4.61-1.68,6.75,6.75,0,0,1,4.57,1.77,7.13,7.13,0,0,1,2.3,4.34l-.53-.3a29.46,29.46,0,0,1,15.32-2.52l-.43.3a3.23,3.23,0,0,1,1.63-2.18,4,4,0,0,1,2.71-.16,4.22,4.22,0,0,1,3,4.12.41.41,0,0,1-.43.39h0a2,2,0,0,1-1.59-1,2.8,2.8,0,0,1-.4-1.76,2.53,2.53,0,0,1,.87-1.61,3.43,3.43,0,0,1,1.6-.73,4.74,4.74,0,0,1,3.28.66,13.71,13.71,0,0,1,2.48,2,.41.41,0,0,1,0,.59l-.06.05a3.43,3.43,0,0,1-4.38-.41.42.42,0,0,1,0-.59.46.46,0,0,1,.13-.08,16.38,16.38,0,0,1,13,.25l-.45.64a1.78,1.78,0,0,1-.36-1.84,2.82,2.82,0,0,1,1.08-1.39,2.71,2.71,0,0,1,1.68-.47,5.74,5.74,0,0,1,1.62.3,20.69,20.69,0,0,0,2.86.94A2.58,2.58,0,0,0,409,441a.39.39,0,0,1,.52-.06l1,.76a.39.39,0,0,1,.14.39,1.09,1.09,0,0,1-.58.7,1.27,1.27,0,0,1-.83.05,2,2,0,0,1-1.18-.86,1.47,1.47,0,0,1-.21-.78,1.79,1.79,0,0,1,.22-.73,2.52,2.52,0,0,1,1-1,5.62,5.62,0,0,1,2.46-.61,14.55,14.55,0,0,1,2.47,0,15.55,15.55,0,0,1,4.74,1.22,15,15,0,0,1,4.12,2.65.33.33,0,0,1,0,.46l-.06.05a2,2,0,0,1-3.05-1.74.31.31,0,0,1,.22-.28,28.88,28.88,0,0,1,14.91,0s0,0,0,.06a.06.06,0,0,1-.06,0,30.33,30.33,0,0,0-14.73.46l.22-.27a1.43,1.43,0,0,0,2.09,1.18l0,.5a14.88,14.88,0,0,0-8.49-3.63,14.07,14.07,0,0,0-2.34,0,5.21,5.21,0,0,0-2.16.53c-.6.32-1.05,1-.73,1.45a1.2,1.2,0,0,0,.72.52.51.51,0,0,0,.35,0,.32.32,0,0,0,.15-.2l.14.39-1-.76.52-.06a2.57,2.57,0,0,1-1.51.89,4.69,4.69,0,0,1-1.67,0,22.66,22.66,0,0,1-3-1,3,3,0,0,0-2.62.07c-.71.47-1.14,1.53-.59,2a.39.39,0,0,1-.43.64h0a15.58,15.58,0,0,0-12.38-.21l.14-.67a2.58,2.58,0,0,0,3.27.31l0,.65a12.85,12.85,0,0,0-2.33-1.9,3.9,3.9,0,0,0-2.7-.57,2,2,0,0,0-1.78,1.6c-.12.84.43,1.82,1.19,1.84l-.43.39a3.42,3.42,0,0,0-2.41-3.3,3.26,3.26,0,0,0-2.12.1,2.43,2.43,0,0,0-1.22,1.66.39.39,0,0,1-.42.3,28.79,28.79,0,0,0-14.93,2.4.37.37,0,0,1-.5-.18l0-.11a6.38,6.38,0,0,0-2-3.89A6,6,0,0,0,356.9,441a6.41,6.41,0,0,0-4.14,1.5,2.2,2.2,0,0,0-1,1.69.62.62,0,0,0,.49.56c.29.1.54,0,.58-.15l0,.25a3.62,3.62,0,0,0-4.41-1.63,3.67,3.67,0,0,0-2.07,4.32h0a.2.2,0,0,1-.14.25.2.2,0,0,1-.23-.1,4.54,4.54,0,0,0-5.28-2.2.06.06,0,0,1-.07,0S340.67,445.37,340.69,445.36Z" fill="#a9a9c4"/><path d="M446.67,455.77a2.24,2.24,0,0,0-2.36-2.13,2.17,2.17,0,0,0-1.81,2.46.23.23,0,0,1-.18.26.21.21,0,0,1-.2-.06v0a3.71,3.71,0,0,0-.87-.73.81.81,0,0,0-.88-.1,2.12,2.12,0,0,0-.61,1.88l-.58.1a4.67,4.67,0,0,0-9.16-.58.38.38,0,0,1-.37.27,48,48,0,0,0-18.41,3,.38.38,0,0,1-.37-.06h0a11.49,11.49,0,0,0-4.29-1.86,17.12,17.12,0,0,0-4.72-.5,8.64,8.64,0,0,0-2.29.37,1.75,1.75,0,0,0-1.28,1.4,1.63,1.63,0,0,0,.61,1.73,2,2,0,0,0,1.9.15,1.59,1.59,0,0,0,.91-1.56,3,3,0,0,0-.95-1.85,3.79,3.79,0,0,0-4.14-.48,29.71,29.71,0,0,0-4.21,2.31,7.48,7.48,0,0,1-4.91,1.18l.46-.31c-.09.33.2.69.63.85a.82.82,0,0,0,1-.22l.09.48a7,7,0,0,0-9.07.18.37.37,0,0,1-.52,0,.35.35,0,0,1-.1-.2,3.63,3.63,0,0,0-2.7-2.55,6.9,6.9,0,0,0-4,.27c-1.33.43-2.64,1-4,1.53s-2.75.91-4.16,1.26a41.1,41.1,0,0,1-17.19.6.06.06,0,0,1-.05-.06s0-.05.06,0a47.34,47.34,0,0,0,8.58.24,46.28,46.28,0,0,0,8.44-1.37c1.38-.36,2.74-.8,4.08-1.29s2.63-1.1,4-1.56a7.57,7.57,0,0,1,4.45-.28,5.19,5.19,0,0,1,2,1.08,3.71,3.71,0,0,1,1.2,2l-.62-.2a7.7,7.7,0,0,1,10.09-.23.38.38,0,0,1,.09.48h0a1.37,1.37,0,0,1-.94.67,2,2,0,0,1-1.92-.72,1.35,1.35,0,0,1-.27-1.12h0a.39.39,0,0,1,.46-.3,6.74,6.74,0,0,0,4.37-1.11,30.35,30.35,0,0,1,4.33-2.38,6.25,6.25,0,0,1,2.55-.42,4,4,0,0,1,3.67,3.47,2.43,2.43,0,0,1-1.4,2.39,2.84,2.84,0,0,1-2.75-.23,2.48,2.48,0,0,1-.94-2.6,2.89,2.89,0,0,1,.63-1.26,2.4,2.4,0,0,1,1.21-.75,9.52,9.52,0,0,1,2.51-.4,18.25,18.25,0,0,1,4.95.53,12.5,12.5,0,0,1,4.59,2l-.38-.06a48.7,48.7,0,0,1,18.71-3l-.37.28a5.33,5.33,0,0,1,10.46.69v0a.3.3,0,0,1-.26.33.28.28,0,0,1-.32-.24,2.88,2.88,0,0,1,.11-1.35,2,2,0,0,1,.81-1.13,1.32,1.32,0,0,1,1.4.14,4.59,4.59,0,0,1,.95.86l-.39.19a2.49,2.49,0,0,1,2.23-2.83,2.44,2.44,0,0,1,2.49,2.42s0,.06-.06.05A0,0,0,0,1,446.67,455.77Z" fill="#a9a9c4"/><path d="M285,204.72s-60.24-3.08-91.56,99.17C161.92,406.77,214.24,426.11,254,431c22.47,2.76,48,0,52-8,10.06-.67,16.38-1.93,17-3,9.22-4.63,13-30,9-35s-4.6-12-21-10c-2.34.29-7-8.23-16-11-12.49-3.85-30.48-2.53-37-4-11.22-2.53-.27-25.71-2.42-36.36s2.79-38.87,2.79-38.87" fill="#7a5d7c"/><path d="M254.59,267.27c1.12,12.59,1.65,25.22,2,37.85.16,6.32.3,12.64.24,19,0,1.59-.06,3.17-.16,4.78s-.35,3.2-.57,4.76c-.46,3.13-.92,6.24-1.24,9.36a52.65,52.65,0,0,0-.28,9.29,14.84,14.84,0,0,0,.93,4.33,3.79,3.79,0,0,0,2.72,2.52,80.65,80.65,0,0,0,9.3,1l9.46.6c3.16.23,6.32.5,9.48.92,1.57.21,3.15.45,4.72.76A32.07,32.07,0,0,1,304.44,368a34.44,34.44,0,0,1,7.11,6.54l-.67-.26a29.24,29.24,0,0,1,7.93,0,16.67,16.67,0,0,1,7.43,2.81,11.19,11.19,0,0,1,4.36,6.57,18.81,18.81,0,0,1,0,7.8l-.22,0a19.49,19.49,0,0,0-.47-7.58,10.54,10.54,0,0,0-4.27-5.9,16.46,16.46,0,0,0-7-2.4,28.24,28.24,0,0,0-7.52.09l-.4.06-.27-.32a35.52,35.52,0,0,0-15.1-10.33,32,32,0,0,0-4.49-1.11c-1.53-.29-3.08-.52-4.63-.72-3.11-.4-6.24-.65-9.39-.86l-9.45-.55a81.92,81.92,0,0,1-9.53-1,5,5,0,0,1-2.52-1.29,7,7,0,0,1-1.51-2.25,15.86,15.86,0,0,1-1.07-4.89,53.07,53.07,0,0,1,.34-9.62c.34-3.17.82-6.3,1.29-9.42.23-1.56.49-3.13.58-4.64s.15-3.12.18-4.69c.09-6.29,0-12.6-.14-18.91-.29-12.62-.7-25.24-.64-37.88Z" fill="#49384a"/><path d="M215.66,419.77c7.43,2.55,14.87,4.94,22.41,7a148.69,148.69,0,0,0,23,4.39,103.08,103.08,0,0,0,11.65.61,76.15,76.15,0,0,0,11.59-.86,46.71,46.71,0,0,0,21.26-8.53l.23-.18.28,0c2.08.14,4.16.2,6.23.14a33.87,33.87,0,0,0,6.13-.72,15.5,15.5,0,0,0,5.63-2.27,7.53,7.53,0,0,0,3.35-4.89h.22a7.62,7.62,0,0,1-3.06,5.57,16.19,16.19,0,0,1-5.84,2.8,40.37,40.37,0,0,1-12.76.89l.51-.16c-6.34,4.93-14.09,7.74-21.91,9a85.92,85.92,0,0,1-23.7.28,151.1,151.1,0,0,1-23.19-4.63,115.63,115.63,0,0,1-22.08-8.3Z" fill="#49384a"/><path d="M304.56,376.55a41.06,41.06,0,0,0-4.6,10.9c-.23.95-.49,1.89-.65,2.85a28.28,28.28,0,0,0-.46,2.88c-.07,1-.26,1.93-.28,2.9L298.5,399c0,1,.09,1.94.13,2.91,0,.48,0,1,.1,1.45l.22,1.45c.15,1,.22,1.94.43,2.9s.44,1.91.64,2.87c.11.48.18,1,.32,1.45l.45,1.41.89,2.84c.62,1.9,1.44,3.72,2.06,5.66l-.13.07c-.88-1.81-1.83-3.58-2.65-5.42l-1.09-2.82-.54-1.41c-.17-.47-.28-1-.42-1.45l-.8-2.91c-.25-1-.36-2-.55-3l-.25-1.49c-.08-.5-.08-1-.13-1.51-.05-1-.16-2-.18-3a38.79,38.79,0,0,1,1.85-11.91,32.8,32.8,0,0,1,5.59-10.64Z" fill="#49384a"/><path d="M380.54,391.77c7.68-3.19-6.65-15.1-9.23-15.94s-5.86-.57-8.4-.11c-5.91,1.07-15.33,5-19,5.73" fill="#f69c83"/><line x1="359.33" y1="378.68" x2="362.29" y2="382.73" fill="none" stroke="#a89267" stroke-linecap="round" stroke-miterlimit="10" stroke-width="2.24"/><path d="M349.36,359.86s-1.83,1.59-.12,4.63S361.8,382.9,361.8,382.9" fill="none" stroke="#a89267" stroke-linecap="round" stroke-miterlimit="10" stroke-width="1.49"/><path d="M396.46,422.27l2,1.31a.7.7,0,0,0,1.06-.8l-.7-2.3Z" fill="#26231e"/><path d="M349.7,351l3.58,4.89a4,4,0,0,0-2.91.92c-1.77,1.21-1.88,2.33-1.88,2.33l-3.58-4.89a3.08,3.08,0,0,1,1.64-2.61A3.53,3.53,0,0,1,349.7,351Z" fill="#786f5e"/><path d="M347.38,359.06a467.81,467.81,0,0,0,42.1,58.47c3-.61,6.93-.91,7.31-5-17.68-28.45-43.41-57.7-43.41-57.7a6.5,6.5,0,0,0-3.64,1.14A7.07,7.07,0,0,0,347.38,359.06Z" fill="#fcd230"/><g clip-path="url(#j)"><path d="M361.71,388.66a11.53,11.53,0,0,1,.24-1.33c.1-.41.22-.8.36-1.2a14.51,14.51,0,0,1,1-2.28,12.29,12.29,0,0,1,3.4-3.87,11.62,11.62,0,0,1,4.74-2.14,13.56,13.56,0,0,1,2.51-.27,21.51,21.51,0,0,1,2.43.21,2.23,2.23,0,0,1,.16,4.39l-.44.08c-.6.13-1.2.15-1.77.26a11.76,11.76,0,0,0-1.63.4,9.11,9.11,0,0,0-2.82,1.36,9.91,9.91,0,0,0-2.24,2.28,14.13,14.13,0,0,0-.88,1.46,6.88,6.88,0,0,0-.38.77c-.11.24-.23.56-.31.69l-.27.52a2.2,2.2,0,0,1-4.13-1.33Z" fill="#a89267"/></g><path d="M397,422.81a2.36,2.36,0,0,1,2.3-1.56l-2.47-8.68a6.43,6.43,0,0,0-4.75,1.12,5.11,5.11,0,0,0-2.56,3.84Z" fill="#786f5e"/><path d="M389.62,400.8c-3.12-7.12-11.76-12.74-15.85-14.92a61.2,61.2,0,0,0-12.09-4.73c-7.28-2.21-15.07-.82-22.11,1.16-8.44.27-22.42-3.13-24.62,9s3.46,18.1,3.46,18.1c5,4,17.93,14.19,24.19,15.43a76.62,76.62,0,0,0,24.64.79,12,12,0,0,0,4.06-1.08,4.39,4.39,0,0,0,2.43-3.24A1.76,1.76,0,0,0,373,420c.52-.09,1-.18,1.56-.29,1.72-.36,3.73-1.17,4-2.9a1.73,1.73,0,0,0-.12-1.7l.36.09a16,16,0,0,0,4.46.51c1,0,2.93-.67,3.51-2.05a5.07,5.07,0,0,0-2-5.81l-.47-.38c3.06,1.43,5.52-.2,6-1.48C390.92,404.31,390.34,402.45,389.62,400.8Z" fill="#f8b5a2"/><path d="M350.13,415.5c2,.49,3.74,1.38,5.62,2a44.73,44.73,0,0,0,5.71,1.48,41,41,0,0,0,5.85.73c2,.11,3.9,0,5.95.18a.09.09,0,0,1,.09.11.09.09,0,0,1-.05.07,13.43,13.43,0,0,1-6,1,33.71,33.71,0,0,1-6.1-.59,35.27,35.27,0,0,1-5.88-1.69,13.26,13.26,0,0,1-5.25-3.12.09.09,0,0,1,0-.13A.11.11,0,0,1,350.13,415.5Z" fill="#b7624b"/><path d="M384.34,407.59A12.3,12.3,0,0,1,381,406c-1-.64-2-1.34-3.07-2-2-1.3-4.1-2.6-6.22-3.75a51,51,0,0,0-6.51-3.09c-2.25-.88-4.57-1.45-6.85-2.46a.1.1,0,0,1-.05-.13.1.1,0,0,1,.08-.05,19.89,19.89,0,0,1,7.28,1.37,44.35,44.35,0,0,1,6.79,3,73,73,0,0,1,6.24,3.95c1,.71,2,1.4,3,2.14s1.87,1.57,2.78,2.4h0a.09.09,0,0,1,0,.13A.08.08,0,0,1,384.34,407.59Z" fill="#b7624b"/><path d="M351.3,404.57a63.34,63.34,0,0,1,6.81,2.85c2.25,1,4.53,1.86,6.84,2.68s4.63,1.63,7,2.4a39.71,39.71,0,0,1,6.94,2.63.1.1,0,0,1,0,.13.09.09,0,0,1-.08.05,31.85,31.85,0,0,1-7.28-1.52c-2.39-.67-4.75-1.43-7.09-2.26s-4.65-1.79-6.89-2.87a23.22,23.22,0,0,1-6.35-3.93.12.12,0,0,1,0-.14A.12.12,0,0,1,351.3,404.57Z" fill="#b7624b"/><path d="M323.81,382.56a18.27,18.27,0,0,0-5.27,10.9c-.54,6.54,1.39,17.17,1.39,17.17s-5-1.35-5.48-13.49C313,383,323.81,382.56,323.81,382.56Z" fill="#f69c83"/><path d="M479,383.15s-8,.47-18.69,10.74c-6.71,6.43-15,13.3-7.6,15.11s22.77-4.51,22.77-4.51Z" fill="#f69c83"/><path d="M467.2,392.76c2.71-7.58,5.52-12.91,12.41-14.83,2.19-.61,6.73,4.74,6.73,4.74s2.46-4.77,6.09-3.84c3.34.86,6.2,6,6.2,6s4.15-2.1,7.16.43,3.7,8.84,3.7,8.84,2.5-.15,4.81,6.64c2.56,7.48-7.92,18.8-10.87,20s-4.95-2.81-4.95-2.81-1,1.79-5.26.49a13.25,13.25,0,0,1-5.88-3.32s-3.75,4.8-8.16,2.37a7.64,7.64,0,0,1-4-4.8s-.9,4.8-6.75,1C463.54,410.49,464.14,401.33,467.2,392.76Z" fill="#f8b5a2"/><path d="M475.3,412a29.3,29.3,0,0,1,2-6.29c.78-2.05,1.6-4.09,2.41-6.12s1.68-4.06,2.55-6.07a30.16,30.16,0,0,1,3-5.9.08.08,0,0,1,.12,0,.07.07,0,0,1,0,.08,30.77,30.77,0,0,1-2,6.3c-.78,2.05-1.59,4.08-2.4,6.12s-1.67,4.06-2.54,6.07a29.4,29.4,0,0,1-3,5.9.09.09,0,0,1-.12,0A.08.08,0,0,1,475.3,412Z" fill="#b7624b"/><path d="M497.45,392.08a22.77,22.77,0,0,1-1.12,6.22q-.82,3.06-1.88,6a32.49,32.49,0,0,1-2.77,5.76,17,17,0,0,1-4,4.95.09.09,0,0,1-.12,0,.1.1,0,0,1,0-.09c.87-2,2.06-3.64,3.05-5.46a38.73,38.73,0,0,0,2.54-5.61c.72-1.95,1.35-3.93,2-5.92a33.31,33.31,0,0,1,2.14-5.92.09.09,0,0,1,.12,0A.07.07,0,0,1,497.45,392.08Z" fill="#b7624b"/><path d="M507.3,398.18c.35,2-.34,3.72-.79,5.49s-1.08,3.5-1.74,5.23a30.85,30.85,0,0,1-2.43,5,10.16,10.16,0,0,1-3.81,4,.09.09,0,0,1-.12,0,.09.09,0,0,1,0-.09h0c1-1.52,2-3,2.87-4.53a39.57,39.57,0,0,0,2.2-4.88c.63-1.69,1.22-3.42,1.81-5.12a45.9,45.9,0,0,1,1.82-5.12v0a.08.08,0,0,1,.11,0A.13.13,0,0,1,507.3,398.18Z" fill="#b7624b"/><path d="M461.56,331.59c-2.56,2.51-5.46,4.46-8.17,6.68a103.82,103.82,0,0,0-7.82,7,54.28,54.28,0,0,0-6.74,7.89,30.37,30.37,0,0,0-2.5,4.49,27,27,0,0,0-1.72,4.87h-.22a11.47,11.47,0,0,1,.66-5.38,24.76,24.76,0,0,1,2.44-4.85,49.52,49.52,0,0,1,6.81-8.3,84.94,84.94,0,0,1,8.09-7c2.84-2.12,5.67-4.31,9.05-5.59Z" fill="#49384a"/><path d="M516.3,390.63c-2.69-6.26-5.27-12.54-9.31-17.87a26.13,26.13,0,0,0-7.34-6.54,18.55,18.55,0,0,0-9.3-2.5,22.8,22.8,0,0,0-9.54,2.07,34.8,34.8,0,0,0-8.4,5.32,39.23,39.23,0,0,0-6.75,7.35c-1.86,2.74-3.6,5.68-4.05,9h-.22a12.87,12.87,0,0,1,.8-5.13,24.57,24.57,0,0,1,2.32-4.68,38.23,38.23,0,0,1,15.61-13.44,24.51,24.51,0,0,1,10.24-2.33,20.1,20.1,0,0,1,10.14,2.83,28,28,0,0,1,7.74,7,46.62,46.62,0,0,1,8.27,18.77Z" fill="#49384a"/></g></svg>