<svg xmlns="http://www.w3.org/2000/svg" xmlns:xlink="http://www.w3.org/1999/xlink" width="380" height="285" viewBox="0 0 380 285"><defs><clipPath id="a"><path d="M84.194,14.915c-23.47,5.639-44.454,14.933-59.182,35.8C13.09,67.612,6.693,88.151,3.49,108.847-2.4,146.9-.03,196.632,20.993,229.555c14.446,22.624,38.573,42.353,65.213,44.418,36.56,2.834,73.147,5.348,109.718,8.022,25.011,1.829,50.094,3.658,75.181,2.777,23.21-.816,50.138-1.626,67.986-19.342,20.737-20.582,29.4-55.57,33.963-84.406,5.464-34.576,6.133-78.575-9.3-110.68-10.821-22.518-32.144-38.209-55-47.078C271.593,8.843,231.726,8.037,192.623,6.127a425.571,425.571,0,0,0-97.36,6.461C91.549,13.268,87.853,14.036,84.194,14.915Z" fill="none"/></clipPath></defs><g clip-path="url(#a)"><polygon points="705.924 377.142 -215.093 360.293 -211.393 -33.746 709.624 -16.898 705.924 377.142" fill="#c6ebf7"/><path d="M-203.885,200.855c55.385-1.348,52.439,14.551,103.452,18.6s89.548-12.793,194.512-16.179c125.381-4.044,415.943,72.076,541.324,42.416,170.207-40.264-14.185,217.784-14.185,217.784s-829.475-13.2-842.593-19.944S-203.885,200.855-203.885,200.855Z" fill="#b0db72"/><path d="M296.739,67.338a13.935,13.935,0,0,1,8.47,2.838,14.6,14.6,0,0,1,12.6-7.035A14.3,14.3,0,0,1,332.1,74.752a12.775,12.775,0,0,1,6.792-2.377,10.5,10.5,0,1,1,0,20.986s-34.685.839-42.148,0c-7.517,0-13.611-5.826-13.611-13.011S289.222,67.338,296.739,67.338Z" fill="#fff" stroke="#fff" stroke-linejoin="round" stroke-width="0.996"/><path d="M93.4,19.191a20.791,20.791,0,0,0-13,4.557A22.218,22.218,0,0,0,39.12,31.1c-2.838-1.96-6.536-3.818-10.428-3.818a16.852,16.852,0,1,0,0,33.7s53.253,1.349,64.712,0a20.9,20.9,0,1,0,0-41.793Z" fill="#fff" stroke="#fff" stroke-linejoin="round" stroke-width="0.996"/><path d="M53.869,47.054c-.894-2.54.18-5.347,1.751-7.4,4.312-5.953,13.123-5.306,17.035.719A6.765,6.765,0,0,1,73.747,44.1a.1.1,0,0,1-.1.1c-1.213-2.094-2.477-4.146-4.55-5.473-5.145-3.611-12.019-.909-14.064,4.847a18.4,18.4,0,0,0-.963,3.468.1.1,0,0,1-.2.016Z" fill="#cee0df"/><path d="M303.635,88.931c-1.538-3.656,1.343-7.969,5.028-8.986a8.013,8.013,0,0,1,9.479,5.087l-1.532.156a8.881,8.881,0,0,1,7.546-7.359,6.07,6.07,0,0,1,3.555.626.1.1,0,0,1,.041.137c-4.206-.282-9.07,2.3-9.575,6.784a.792.792,0,0,1-1.532.155c-1.707-4.787-8.614-5.91-11.332-1.347a9.017,9.017,0,0,0-1.484,4.708.1.1,0,0,1-.194.039Z" fill="#cee0df"/><ellipse cx="179.688" cy="149.468" rx="11.46" ry="10.144" fill="#40894e"/><ellipse cx="163.505" cy="159.362" rx="23.411" ry="20.724" fill="#40894e"/><path d="M173.57,186.033s5.885,65.961-5.125,69.283,49.068,11.2,37.584,0-11.484-66.056-11.484-66.056Z" fill="#775231"/><ellipse cx="171.867" cy="199.213" rx="17.495" ry="16.523" fill="#40894e"/><ellipse cx="232.612" cy="188.943" rx="20.244" ry="17.92" fill="#40894e"/><ellipse cx="183.59" cy="158.552" rx="34.772" ry="34.486" fill="#40894e"/><ellipse cx="147.39" cy="183.108" rx="17.926" ry="18.075" fill="#40894e"/><ellipse cx="206.539" cy="200.753" rx="21.538" ry="20.341" fill="#40894e"/><ellipse cx="219.417" cy="166.699" rx="24.698" ry="23.326" fill="#40894e"/><path d="M294.876,275.143a7.71,7.71,0,0,1,3.768-1.663,27.064,27.064,0,0,1,8.163-.748,8.025,8.025,0,0,1,4.01.936.11.11,0,0,1-.027.2c-2.7.641-5.258.122-7.943.544-2.725.068-5.126,1.1-7.909.923a.111.111,0,0,1-.062-.188Z" fill="#85bc55"/><path d="M314.114,265.771c4.109-2.083,19.809-1.934,23.478.615-3.934.452-7.805-.557-11.76-.412-3.938-.268-7.732.485-11.69-.007a.105.105,0,0,1-.028-.2Z" fill="#85bc55"/><path d="M251.8,286.333c4.1-2.106,19.8-2.048,23.481.48-3.932.475-7.809-.513-11.762-.344-3.94-.246-7.729.529-11.69.06a.105.105,0,0,1-.029-.2Z" fill="#85bc55"/><path d="M132.583,138.213a4.885,4.885,0,0,1-1.5-2.869,4.531,4.531,0,0,1,1.078-3.675,5.839,5.839,0,0,1,1.534-1.234l1.664-1.072a12.992,12.992,0,0,0,2.974-2.586,3.906,3.906,0,0,0,.853-3.69,5.6,5.6,0,0,0-2.494-2.96c-1.082-.757-2.238-1.4-3.339-2.126a7.873,7.873,0,0,1-2.808-2.723,3.284,3.284,0,0,1-.357-1.912,6.616,6.616,0,0,1,.226-.96,8.244,8.244,0,0,1,.413-.9,8.5,8.5,0,0,1,2.855-2.679,27.773,27.773,0,0,0,3.223-2.292,4.6,4.6,0,0,0,1.683-3.444,4.542,4.542,0,0,0-1.664-3.447c-1.98-1.753-4.767-2.389-6.475-4.48a5.474,5.474,0,0,1-.536-.828,5.734,5.734,0,0,1-.306-.94,3.416,3.416,0,0,1,.1-1.949,6.618,6.618,0,0,1,2.629-2.873h0a28.493,28.493,0,0,0,4.281-3.105,3.821,3.821,0,0,0,1.124-2.194c.048-.834-.035-1.673-.046-2.509" fill="none" stroke="#2e344d" stroke-linecap="round" stroke-miterlimit="10" stroke-width="4.045"/><polyline points="131.369 80.218 137.331 69.722 143.986 79.792" fill="none" stroke="#2e344d" stroke-linecap="round" stroke-linejoin="round" stroke-width="4.045"/><path d="M134.877,86.905a14.251,14.251,0,0,0,1.22-.928,7.3,7.3,0,0,0,.565-.544,4.669,4.669,0,0,0,.682-.917,3.49,3.49,0,0,0,.386-1.074,5.607,5.607,0,0,0,.025-1.144l-.077-2.293-.31-9.171" fill="none" stroke="#2e344d" stroke-miterlimit="10" stroke-width="4.045"/><path d="M177.831,109.581a4.885,4.885,0,0,1-1.5-2.87,4.529,4.529,0,0,1,1.078-3.675,5.815,5.815,0,0,1,1.534-1.233l1.663-1.072a13,13,0,0,0,2.975-2.587,3.9,3.9,0,0,0,.852-3.69,5.605,5.605,0,0,0-2.494-2.96c-1.082-.756-2.237-1.4-3.338-2.125a7.89,7.89,0,0,1-2.808-2.723,3.294,3.294,0,0,1-.358-1.912,6.869,6.869,0,0,1,.226-.961,8.325,8.325,0,0,1,.414-.9,8.486,8.486,0,0,1,2.855-2.68,27.96,27.96,0,0,0,3.222-2.291,4.6,4.6,0,0,0,1.684-3.444,4.543,4.543,0,0,0-1.665-3.448c-1.979-1.753-4.766-2.388-6.474-4.48a5.35,5.35,0,0,1-.536-.828,5.629,5.629,0,0,1-.306-.939,3.424,3.424,0,0,1,.1-1.949,6.634,6.634,0,0,1,2.63-2.874h0a28.323,28.323,0,0,0,4.281-3.105A3.823,3.823,0,0,0,183,54.646c.048-.835-.036-1.673-.047-2.51" fill="none" stroke="#2e344d" stroke-linecap="round" stroke-miterlimit="10" stroke-width="4.045"/><polyline points="176.617 51.585 182.579 41.089 189.234 51.16" fill="none" stroke="#2e344d" stroke-linecap="round" stroke-linejoin="round" stroke-width="4.045"/><path d="M180.124,58.272a13.9,13.9,0,0,0,1.221-.927,7.292,7.292,0,0,0,.564-.544,4.641,4.641,0,0,0,.683-.918,3.516,3.516,0,0,0,.386-1.074A5.607,5.607,0,0,0,183,53.665l-.078-2.292-.309-9.171" fill="none" stroke="#2e344d" stroke-miterlimit="10" stroke-width="4.045"/><path d="M242.257,133.654a4.893,4.893,0,0,1-1.5-2.87,4.527,4.527,0,0,1,1.079-3.674,5.794,5.794,0,0,1,1.533-1.234l1.664-1.072a13,13,0,0,0,2.974-2.586,3.9,3.9,0,0,0,.853-3.69,5.608,5.608,0,0,0-2.494-2.961c-1.082-.756-2.237-1.4-3.339-2.125a7.881,7.881,0,0,1-2.808-2.723,3.284,3.284,0,0,1-.357-1.912,6.555,6.555,0,0,1,.226-.96,8.244,8.244,0,0,1,.413-.9,8.509,8.509,0,0,1,2.856-2.68,27.839,27.839,0,0,0,3.222-2.291,4.593,4.593,0,0,0,1.683-3.444,4.542,4.542,0,0,0-1.664-3.447c-1.98-1.754-4.767-2.389-6.475-4.48a5.562,5.562,0,0,1-.536-.829,5.723,5.723,0,0,1-.306-.939,3.425,3.425,0,0,1,.105-1.949,6.615,6.615,0,0,1,2.63-2.873h0a28.487,28.487,0,0,0,4.281-3.1,3.821,3.821,0,0,0,1.124-2.194c.049-.835-.035-1.673-.046-2.509" fill="none" stroke="#2e344d" stroke-linecap="round" stroke-miterlimit="10" stroke-width="4.045"/><polyline points="241.044 75.659 247.005 65.162 253.661 75.233" fill="none" stroke="#2e344d" stroke-linecap="round" stroke-linejoin="round" stroke-width="4.045"/><path d="M244.551,82.346a14.1,14.1,0,0,0,1.22-.928,7.3,7.3,0,0,0,.565-.544,4.636,4.636,0,0,0,.682-.918,3.471,3.471,0,0,0,.386-1.074,5.527,5.527,0,0,0,.025-1.143l-.077-2.293-.309-9.171" fill="none" stroke="#2e344d" stroke-miterlimit="10" stroke-width="4.045"/></g></svg>