<svg role="img" alt="TVO logo" width="87px" xmlns="http://www.w3.org/2000/svg" xmlns:xlink="http://www.w3.org/1999/xlink" x="0px" y="0px" viewBox="0 0 92.2 45.3" xml:space="preserve"><path class="st0" fill="#E7131A" d="M23.4,26.5c1.9,0,2.5,1.6,2.5,3c0,3.2-0.3,6.3-1.6,8.6s-3.8,3.8-7.8,3.8h-0.1 c-2.7,0-5.6-1-7-3.5c-0.9-1.7-1.2-3.1-1.2-7.7V18.5c-0.1-1.7,0.1-1.4-1.6-1.6c-0.9,0.1-1.8-0.1-2.7-0.4c-0.7-0.4-1.1-1.2-1-2 c0.1-1.3,1.2-2.4,2.5-2.4h2C8,12.1,8.1,12,8.1,12c0.1-0.4,0.2-0.9,0.1-1.3V6.1C8.2,5.4,8.3,4.6,8.7,3.9c0.5-0.7,1.3-1.1,2.1-1 c0.8-0.1,1.6,0.3,2.1,1c0.3,0.7,0.5,1.4,0.4,2.1v5.5c0,0.4,0,0.5,0.1,0.5c0.2,0,0.4,0.1,0.5,0h5.7c0.9-0.1,1.8,0.1,2.6,0.6 c0.5,0.5,0.8,1.1,0.7,1.8c0,0.6-0.2,1.3-0.7,1.7c-0.8,0.5-1.8,0.8-2.7,0.7h-5c-0.3,0-0.7,0-1,0.1c0,0-0.1,0.1-0.1,0.6v13.4 c0.1,5,1,6.2,3.8,6.3c3.1,0,3.6-2.5,3.7-5.1v-1.8c-0.1-1,0.1-2,0.6-2.9C21.8,26.8,22.6,26.5,23.4,26.5 M59.7,12.2 c-1.7,0-3.6,0.6-5.5,0.6c-2,0-3.9-0.6-5.4-0.6c-1.2-0.1-2.2,0.9-2.3,2.1c0,0,0,0.1,0,0.1c-0.1,1.3,0.9,2.4,2.2,2.4c0,0,0,0,0,0 c0.5,0,1-0.1,1.5-0.3c0.2-0.1,0.5-0.2,0.7-0.2c0.2,0,0.5,0.1,0.5,0.8c-0.1,0.9-0.4,1.8-0.8,2.6L44.7,36L38,18.3 c-0.2-0.5-0.3-1-0.4-1.5c0-0.4,0.1-0.5,0.5-0.5c0.4,0,0.8,0.1,1.2,0.2c0.4,0.2,0.8,0.3,1.3,0.3c1.3-0.1,2.3-1.1,2.3-2.4 c0-1.3-1.1-2.2-2.9-2.2c-1.8,0-3.8,0.6-5.7,0.6c-2,0-3.4-0.6-5.2-0.6c-0.7-0.1-1.4,0.2-2,0.6c-0.4,0.4-0.7,1-0.6,1.6 c-0.1,1.2,0.7,2.3,1.9,2.4c0,0,0,0,0,0c0.5,0,0.9-0.1,1.3-0.3c0.3-0.1,0.6-0.2,0.9-0.2c0.4,0,1,0.4,1.8,2.5l7.9,19.9 c0.7,1.7,1.7,3.4,4,3.4h0c2.4,0,3.5-1.7,4.2-3.4l7.7-19.3c0.5-1.3,0.9-2.2,1.1-2.6c0.3-0.5,0.3-0.5,0.4-0.5c0.3,0,0.7,0.1,1,0.2 c0.4,0.2,0.9,0.3,1.3,0.3c1.3-0.1,2.3-1.1,2.3-2.4C62.4,13.1,61.3,12.1,59.7,12.2 M86.1,15.7c2.4,3.2,3.7,7.1,3.6,11.1 c0,8.6-5,15.7-14.4,15.7c-9.2,0-13.8-7.3-13.8-15.5c0-8.3,4.5-15.6,13.8-15.6C79.6,11.4,83.4,12.5,86.1,15.7 M75.5,38 c6.7,0,8.8-5.6,8.9-11.4c0.1-2.7-0.6-5.4-2-7.7c-1.4-2.2-3.9-3.1-6.5-3.1c-3.1,0-5.3,1-6.9,3.6c-1.2,2.3-1.9,4.8-1.9,7.4 C67.1,32.3,69.2,38,75.5,38"></path></svg>