<svg xmlns="http://www.w3.org/2000/svg" xmlns:xlink="http://www.w3.org/1999/xlink" width="32.823" height="43.287" viewBox="0 0 32.823 43.287">
  <defs>
    <clipPath id="clip-path">
      <rect id="Rectangle_182" data-name="Rectangle 182" width="32.823" height="43.287" transform="translate(0 0)" fill="none"/>
    </clipPath>
  </defs>
  <g id="locked_icon" transform="translate(0 0)" clip-path="url(#clip-path)">
    <path id="Path_85" data-name="Path 85" d="M8.219,14.874V10.092A8.345,8.345,0,0,1,16.411,1.6a8.344,8.344,0,0,1,8.192,8.49v4.782" fill="none" stroke="#878787" stroke-linecap="round" stroke-width="3"/>
    <path id="Path_86" data-name="Path 86" d="M27.473,15.316H5.35c-2.1,0-3.806,2-3.806,4.479v17.47c0,2.473,1.705,4.479,3.806,4.479H27.473c2.1,0,3.806-2.006,3.806-4.479V19.8C31.279,17.321,29.575,15.316,27.473,15.316Z" fill="none" stroke="#878787" stroke-linecap="round" stroke-width="3"/>
    <path id="Path_87" data-name="Path 87" d="M16.854,34.543h-.093a2.106,2.106,0,0,1-2.106-2.1V26.667a2.105,2.105,0,1,1,4.211,0v5.864a2.012,2.012,0,0,1-2.012,2.012" fill="#878787"/>
    <path id="Path_88" data-name="Path 88" d="M20.556,26.312a3.8,3.8,0,1,1-3.8-3.8,3.795,3.795,0,0,1,3.8,3.8" fill="#878787"/>
  </g>
</svg>
